{
.appVersion = "1280";
DisplayStrings = (
HandglovesHHTH,
HHHCHH,
"All die anderen Adaptionen sind ein überwiegend trauriges Kapitel",
"nnßnn",
"&",
"234",
"35",
"HH?HH",
"{/_part.brace",
"'",
H6H9H,
k,
F
);
classes = (
{
code = E;
disabled = 1;
name = hex_src;
},
{
code = E.x;
disabled = 1;
name = hex_tgt;
},
{
code = "zero one two three four five six seven eight nine a b d e f A B C D F";
disabled = 1;
name = num_all;
},
{
automatic = 1;
code = "A Aacute Acircumflex Adieresis Agrave Atilde B C Ccedilla D E Eacute Ecircumflex Edieresis Egrave F G H I Iacute Icircumflex Idieresis Igrave J K L M N Ntilde O Oacute Ocircumflex Odieresis Ograve Otilde P Q R S T U Uacute Ucircumflex Udieresis Ugrave V W Wacute Wcircumflex Wdieresis Wgrave X Y Yacute Ycircumflex Ydieresis Ygrave Z";
name = Uppercase;
}
);
copyright = "Copyright 2017-2018 by Jens Kutilek";
customParameters = (
{
name = glyphOrder;
value = (
".notdef NULL CR space"
);
},
{
name = description;
value = "conta (f) - Portuguese\012\012From Old Portuguese conta, from Latin computō (“I calculate”).\012\0121. (mathematics) operation, calculation\0122. (mathematics) equation\0123. account (in a bank or computer)\0124. bead (small round object, especially those of a rosary)\0125. check (a bill, particularly at a restaurant)";
}
);
date = "2017-12-19 14:57:33 +0000";
designer = "Jens Kutilek";
familyName = Conta;
featurePrefixes = (
{
automatic = 1;
code = "languagesystem DFLT dflt;\012";
name = Languagesystems;
}
);
features = (
{
automatic = 1;
code = "feature ccmp;\012feature case;\012feature zero;\012";
disabled = 1;
name = aalt;
},
{
automatic = 1;

glyphs = (
{
glyphname = A;
lastChange = "2019-12-19 14:57:11 +0000";
layers = (
{
anchors = (
{
name = bottom;
position = "{224, 0}";
},
{
name = ogonek;
position = "{466, 0}";
},
{
name = top;
position = "{368, 720}";
}
);
background = {
paths = (
{
closed = 1;
nodes = (
"160 0 LINE",
"160 240 LINE",
"400 240 LINE",
"400 0 LINE",
"480 0 LINE",
"480 640 LINE",
"400 640 LINE",
"400 320 LINE",
"160 320 LINE",
"160 640 LINE",
"80 640 LINE",
"80 0 LINE"
);
},
{
closed = 1;
nodes = (
"400 640 LINE",
"400 720 LINE",
"160 720 LINE",
"160 640 LINE"
);
}
);
};
hints = (
{
horizontal = 1;
origin = "{0, 4}";
type = Anchor;
},
{
horizontal = 1;
origin = "{0, 6}";
type = Anchor;
},
{
horizontal = 1;
origin = "{0, 6}";
target = "{0, 1}";
type = Align;
options = 4;
},
{
horizontal = 1;
origin = "{0, 4}";
target = "{0, 6}";
other1 = "{0, 7, 1, 1}";
type = Interpolate;
},
{
horizontal = 1;
origin = "{0, 7, 1, 1}";
target = "{0, 7, 1, 3}";
type = TTStem;
options = 4;
},
{
horizontal = 1;
origin = "{0, 4}";
target = "{0, 6}";
other1 = "{0, 1, 0, 7}";
type = Interpolate;
options = 4;
}
);
layerId = "83692D61-586C-413E-9B5A-1AF652750951";
paths = (
{
closed = 1;
nodes = (
"341 650 LINE",
"378 0 LINE",
"465 0 LINE",
"410 720 LINE",
"327 720 LINE",
"-20 0 LINE",
"62 0 LINE",
"369 650 LINE"
);
},
{
closed = 1;
nodes = (
"145 204 LINE",
"385 204 LINE",
"399 276 LINE",
"159 276 LINE"
);
}
);
width = 560;
}
);
unicode = 0041;
},
{
glyphname = B;
lastChange = "2019-12-19 14:57:11 +0000";
layers = (
{
anchors = (
{
name = bottom;
position = "{224, 0}";
},
{
name = top;
position = "{368, 720}";
}
);
background = {
paths = (
{
closed = 1;
nodes = (
"160 400 LINE",
"160 640 LINE",
"400 640 LINE",
"400 720 LINE",
"80 720 LINE",
"80 0 LINE",
"400 0 LINE",
"400 80 LINE",
"160 80 LINE",
"160 320 LINE",
"400 320 LINE",
"400 400 LINE"
);
},
{
closed = 1;
nodes = (
"400 400 LINE",
"480 400 LINE",
"480 640 LINE",
"400 640 LINE"
);
},
{
closed = 1;
nodes = (
"400 80 LINE",
"480 80 LINE",
"480 320 LINE",
"400 320 LINE"
);
}
);
};
hints = (
{
horizontal = 1;
origin = "{0, 13}";
target = "{2, 1}";
type = TTStem;
options = 4;
},
{
horizontal = 1;
origin = "{0, 0}";
target = "{1, 7}";
type = TTStem;
options = 4;
},
{
horizontal = 1;
origin = "{0, 13}";
target = "{0, 0}";
other1 = "{1, 1}";
type = Interpolate;
},
{
horizontal = 1;
origin = "{1, 1}";
target = "{2, 7}";
type = TTStem;
options = 4;
},
{
horizontal = 1;
origin = "{1, 1}";
target = "{2, 7}";
other1 = "{0, 6, 0, 10}";
type = Interpolate;
options = 4;
}
);
layerId = "83692D61-586C-413E-9B5A-1AF652750951";
paths = (
{
closed = 1;
nodes = (
"201 0 LINE SMOOTH",
"359 0 OFFCURVE",
"446 70 OFFCURVE",
"469 183 CURVE SMOOTH",
"493 306 OFFCURVE",
"420 384 OFFCURVE",
"285 384 CURVE",
"267 347 LINE",
"404 347 OFFCURVE",
"502 421 OFFCURVE",
"524 529 CURVE SMOOTH",
"547 645 OFFCURVE",
"483 720 OFFCURVE",
"325 720 CURVE SMOOTH",
"168 720 LINE",
"24 0 LINE"
);
},
{
closed = 1;
nodes = (
"170 328 LINE",
"273 328 LINE SMOOTH",
"364 328 OFFCURVE",
"406 288 OFFCURVE",
"389 207 CURVE SMOOTH",
"373 124 OFFCURVE",
"313 70 OFFCURVE",
"211 70 CURVE SMOOTH",
"118 70 LINE"
);
},
{
closed = 1;
nodes = (
"234 650 LINE",
"319 650 LINE SMOOTH",
"426 650 OFFCURVE",
"455 603 OFFCURVE",
"440 532 CURVE SMOOTH",
"423 444 OFFCURVE",
"359 400 OFFCURVE",
"267 400 CURVE SMOOTH",
"184 400 LINE"
);
}
);
width = 560;
}
);
unicode = 0042;
},
{
glyphname = C;
lastChange = "2019-12-19 14:57:11 +0000";
layers = (
{
anchors = (
{
name = bottom;
position = "{224, 0}";
},
{
name = top;
position = "{368, 720}";
}
);
background = {
paths = (
{
closed = 1;
nodes = (
"160 80 LINE",
"160 640 LINE",
"80 640 LINE",
"80 80 LINE"
);
},
{
closed = 1;
nodes = (
"400 0 LINE",
"400 80 LINE",
"160 80 LINE",
"160 0 LINE"
);
},
{
closed = 1;
nodes = (
"480 80 LINE",
"480 240 LINE",
"400 240 LINE",
"400 80 LINE"
);
},
{
closed = 1;
nodes = (
"400 640 LINE",
"400 720 LINE",
"360 722 OFFCURVE",
"320 724 OFFCURVE",
"279 724 CURVE SMOOTH",
"240 724 OFFCURVE",
"200 722 OFFCURVE",
"160 720 CURVE",
"160 640 LINE"
);
},
{
closed = 1;
nodes = (
"480 480 LINE",
"480 640 LINE",
"400 640 LINE",
"400 480 LINE"
);
}
);
};
hints = (
{
horizontal = 1;
origin = "{0, 19}";
target = "{0, 12}";
type = TTStem;
options = 4;
},
{
horizontal = 1;
origin = "{0, 25}";
target = "{0, 6}";
type = TTStem;
options = 4;
}
);
layerId = "83692D61-586C-413E-9B5A-1AF652750951";
paths = (
{
closed = 1;
nodes = (
"322 -11 OFFCURVE",
"372 17 OFFCURVE",
"433 53 CURVE",
"407 112 LINE",
"359 85 OFFCURVE",
"313 61 OFFCURVE",
"259 61 CURVE SMOOTH",
"156 61 OFFCURVE",
"124 148 OFFCURVE",
"165 354 CURVE SMOOTH",
"213 597 OFFCURVE",
"300 659 OFFCURVE",
"385 659 CURVE SMOOTH",
"442 659 OFFCURVE",
"482 636 OFFCURVE",
"512 615 CURVE",
"553 668 LINE",
"511 702 OFFCURVE",
"461 731 OFFCURVE",
"393 731 CURVE SMOOTH",
"242 731 OFFCURVE",
"135 613 OFFCURVE",
"85 366 CURVE SMOOTH",
"33 106 OFFCURVE",
"100 -11 OFFCURVE",
"241 -11 CURVE SMOOTH"
);
}
);
width = 560;
}
);
unicode = 0043;
},
{
glyphname = D;
lastChange = "2019-12-19 14:57:11 +0000";
layers = (
{
anchors = (
{
name = bottom;
position = "{224, 0}";
},
{
name = center;
position = "{296, 360}";
},
{
name = top;
position = "{368, 720}";
}
);
background = {
paths = (
{
closed = 1;
nodes = (
"160 640 LINE",
"320 640 LINE",
"320 720 LINE",
"80 720 LINE",
"80 0 LINE",
"320 0 LINE",
"320 80 LINE",
"160 80 LINE"
);
},
{
closed = 1;
nodes = (
"400 640 LINE",
"320 640 LINE",
"320 560 LINE",
"400 560 LINE"
);
},
{
closed = 1;
nodes = (
"400 160 LINE",
"480 160 LINE",
"480 560 LINE",
"400 560 LINE"
);
},
{
closed = 1;
nodes = (
"400 80 LINE",
"400 160 LINE",
"320 160 LINE",
"320 80 LINE"
);
}
);
};
hints = (
{
horizontal = 1;
origin = "{0, 8}";
target = "{1, 8}";
type = TTStem;
options = 4;
},
{
horizontal = 1;
origin = "{0, 2}";
target = "{1, 5}";
type = TTStem;
options = 4;
}
);
layerId = "83692D61-586C-413E-9B5A-1AF652750951";
paths = (
{
closed = 1;
nodes = (
"168 720 LINE",
"24 0 LINE",
"201 0 LINE SMOOTH",
"350 0 OFFCURVE",
"472 119 OFFCURVE",
"519 356 CURVE SMOOTH",
"566 590 OFFCURVE",
"511 720 OFFCURVE",
"333 720 CURVE SMOOTH"
);
},
{
closed = 1;
nodes = (
"439 648 OFFCURVE",
"479 574 OFFCURVE",
"437 365 CURVE SMOOTH",
"393 147 OFFCURVE",
"314 72 OFFCURVE",
"214 72 CURVE SMOOTH",
"118 72 LINE",
"234 648 LINE",
"328 648 LINE SMOOTH"
);
}
);
width = 560;
}
);
unicode = 0044;
},
{
color = 9;
glyphname = E;
lastChange = "2019-12-19 14:57:11 +0000";
layers = (
{
anchors = (
{
name = bottom;
position = "{224, 0}";
},
{
name = ogonek;
position = "{415, 0}";
},
{
name = top;
position = "{373, 720}";
},
{
name = topleft;
position = "{108, 720}";
}
);
hints = (
{
horizontal = 1;
origin = "{0, 11}";
target = "{0, 2}";
type = TTStem;
options = 4;
},
{
horizontal = 1;
origin = "{0, 10}";
target = "{0, 7}";
type = TTStem;
options = 4;
},
{
horizontal = 1;
origin = "{0, 11}";
target = "{0, 10}";
other1 = "{0, 3}";
type = Interpolate;
},
{
horizontal = 1;
origin = "{0, 3}";
target = "{0, 6}";
type = TTStem;
options = 4;
}
);
layerId = "83692D61-586C-413E-9B5A-1AF652750951";
paths = (
{
closed = 1;
nodes = (
"415 0 LINE",
"429 72 LINE",
"130 72 LINE",
"181 326 LINE",
"440 326 LINE",
"455 398 LINE",
"196 398 LINE",
"246 648 LINE",
"541 648 LINE",
"555 720 LINE",
"180 720 LINE",
"36 0 LINE"
);
}
);
width = 560;
},
{
associatedMasterId = "83692D61-586C-413E-9B5A-1AF652750951";
layerId = "E6CE487C-E1FC-470A-BAAF-A504782E6D1F";
name = "Jan 10 18, 17:22";
paths = (
{
closed = 1;
nodes = (
"471 0 LINE",
"471 72 LINE",
"172 72 LINE",
"172 326 LINE",
"431 326 LINE",
"431 398 LINE",
"172 398 LINE",
"172 648 LINE",
"467 648 LINE",
"467 720 LINE",
"92 720 LINE",
"92 0 LINE"
);
}
);
width = 560;
}
);
unicode = 0045;
},
{
glyphname = F;
lastChange = "2019-12-19 14:57:11 +0000";
layers = (
{
anchors = (
{
name = bottom;
position = "{224, 0}";
},
{
name = top;
position = "{368, 720}";
}
);
hints = (
{
horizontal = 1;
origin = "{0, 8}";
target = "{0, 5}";
type = TTStem;
options = 4;
},
{
horizontal = 1;
origin = "{0, 0}";
type = Anchor;
},
{
horizontal = 1;
origin = "{0, 8}";
target = "{0, 0}";
other1 = "{0, 1}";
type = Interpolate;
},
{
horizontal = 1;
origin = "{0, 1}";
target = "{0, 4}";
type = TTStem;
options = 4;
}
);
layerId = "83692D61-586C-413E-9B5A-1AF652750951";
paths = (
{
closed = 1;
nodes = (
"124 0 LINE",
"187 314 LINE",
"407 314 LINE",
"421 386 LINE",
"201 386 LINE",
"254 648 LINE",
"554 648 LINE",
"568 720 LINE",
"188 720 LINE",
"44 0 LINE"
);
}
);
width = 560;
}
);
unicode = 0046;
},
{
glyphname = G;
lastChange = "2019-12-19 14:57:11 +0000";
layers = (
{
anchors = (
{
name = bottom;
position = "{224, 0}";
},
{
name = top;
position = "{368, 720}";
}
);
background = {
paths = (
{
closed = 1;
nodes = (
"480 0 LINE",
"480 320 LINE",
"240 320 LINE",
"240 240 LINE",
"400 240 LINE",
"400 80 LINE",
"160 80 LINE",
"160 0 LINE"
);
},
{
closed = 1;
nodes = (
"160 80 LINE",
"160 640 LINE",
"80 640 LINE",
"80 80 LINE"
);
},
{
closed = 1;
nodes = (
"400 640 LINE",
"400 720 LINE",
"160 720 LINE",
"160 640 LINE"
);
},
{
closed = 1;
nodes = (
"480 480 LINE",
"480 640 LINE",
"400 640 LINE",
"400 480 LINE"
);
}
);
};
layerId = "83692D61-586C-413E-9B5A-1AF652750951";
paths = (
{
closed = 1;
nodes = (
"321 -11 OFFCURVE",
"378 3 OFFCURVE",
"431 24 CURVE",
"417 95 LINE",
"367 75 OFFCURVE",
"318 61 OFFCURVE",
"266 61 CURVE SMOOTH",
"156 61 OFFCURVE",
"124 148 OFFCURVE",
"165 354 CURVE SMOOTH",
"213 597 OFFCURVE",
"300 659 OFFCURVE",
"393 659 CURVE SMOOTH",
"443 659 OFFCURVE",
"483 642 OFFCURVE",
"517 624 CURVE",
"553 684 LINE",
"509 711 OFFCURVE",
"460 731 OFFCURVE",
"397 731 CURVE SMOOTH",
"242 731 OFFCURVE",
"135 613 OFFCURVE",
"85 366 CURVE SMOOTH",
"33 106 OFFCURVE",
"100 -11 OFFCURVE",
"255 -11 CURVE SMOOTH"
);
},
{
closed = 1;
nodes = (
"429 25 LINE",
"488 320 LINE",
"282 320 LINE",
"268 248 LINE",
"394 248 LINE",
"349 25 LINE"
);
}
);
width = 560;
}
);
unicode = 0047;
},
{
glyphname = H;
lastChange = "2019-12-19 14:57:11 +0000";
layers = (
{
anchors = (
{
name = bottom;
position = "{224, 0}";
},
{
name = center;
position = "{296, 360}";
},
{
name = top;
position = "{368, 720}";
},
{
name = topleft;
position = "{108, 720}";
}
);
layerId = "83692D61-586C-413E-9B5A-1AF652750951";
paths = (
{
closed = 1;
nodes = (
"104 0 LINE",
"170 328 LINE",
"410 328 LINE",
"344 0 LINE",
"424 0 LINE",
"568 720 LINE",
"488 720 LINE",
"424 400 LINE",
"184 400 LINE",
"248 720 LINE",
"168 720 LINE",
"24 0 LINE"
);
}
);
width = 560;
}
);
unicode = 0048;
},
{
glyphname = I;
lastChange = "2019-12-19 14:57:11 +0000";
layers = (
{
anchors = (
{
name = bottom;
position = "{184, 0}";
},
{
name = ogonek;
position = "{344, 0}";
},
{
name = top;
position = "{328, 720}";
},
{
name = topleft;
position = "{108, 720}";
}
);
layerId = "83692D61-586C-413E-9B5A-1AF652750951";
paths = (
{
closed = 1;
nodes = (
"344 0 LINE",
"357 64 LINE",
"238 72 LINE",
"354 648 LINE",
"475 656 LINE",
"488 720 LINE",
"168 720 LINE",
"155 656 LINE",
"274 648 LINE",
"158 72 LINE",
"37 64 LINE",
"24 0 LINE"
);
}
);
width = 480;
}
);
unicode = 0049;
},
{
glyphname = J;
lastChange = "2019-12-19 14:57:11 +0000";
layers = (
{
anchors = (
{
name = bottom;
position = "{144, 0}";
},
{
name = top;
position = "{344, 720}";
}
);
background = {
paths = (
{
closed = 1;
nodes = (
"80 720 LINE",
"80 640 LINE",
"320 640 LINE",
"320 80 LINE",
"400 80 LINE",
"400 720 LINE"
);
},
{
closed = 1;
nodes = (
"0 80 LINE",
"80 80 LINE",
"80 160 LINE",
"0 160 LINE"
);
},
{
closed = 1;
nodes = (
"80 80 LINE",
"80 0 LINE",
"320 0 LINE",
"320 80 LINE"
);
}
);
};
color = -1;
layerId = "83692D61-586C-413E-9B5A-1AF652750951";
paths = (
{
closed = 1;
nodes = (
"275 -12 OFFCURVE",
"365 66 OFFCURVE",
"392 200 CURVE SMOOTH",
"496 720 LINE",
"192 720 LINE",
"178 648 LINE",
"402 648 LINE",
"312 201 LINE SMOOTH",
"294 109 OFFCURVE",
"238 60 OFFCURVE",
"165 60 CURVE SMOOTH",
"113 60 OFFCURVE",
"82 92 OFFCURVE",
"53 142 CURVE",
"-8 103 LINE",
"31 32 OFFCURVE",
"79 -12 OFFCURVE",
"165 -12 CURVE SMOOTH"
);
}
);
width = 480;
}
);
unicode = 004A;
},
{
glyphname = K;
lastChange = "2019-12-19 14:57:11 +0000";
layers = (
{
anchors = (
{
name = bottom;
position = "{204, 0}";
},
{
name = top;
position = "{348, 720}";
}
);
background = {
paths = (
{
closed = 1;
nodes = (
"160 720 LINE",
"80 720 LINE",
"80 0 LINE",
"160 0 LINE",
"160 320 LINE",
"240 320 LINE",
"240 400 LINE",
"160 400 LINE"
);
},
{
closed = 1;
nodes = (
"400 560 LINE",
"480 560 LINE",
"480 720 LINE",
"400 720 LINE"
);
},
{
closed = 1;
nodes = (
"400 480 LINE",
"400 560 LINE",
"320 560 LINE",
"320 480 LINE"
);
},
{
closed = 1;
nodes = (
"320 400 LINE",
"320 480 LINE",
"240 480 LINE",
"240 400 LINE"
);
},
{
closed = 1;
nodes = (
"320 320 LINE",
"240 320 LINE",
"240 240 LINE",
"320 240 LINE"
);
},
{
closed = 1;
nodes = (
"400 240 LINE",
"320 240 LINE",
"320 160 LINE",
"400 160 LINE"
);
},
{
closed = 1;
nodes = (
"480 0 LINE",
"480 160 LINE",
"400 160 LINE",
"400 0 LINE"
);
}
);
};
layerId = "83692D61-586C-413E-9B5A-1AF652750951";
paths = (
{
closed = 1;
nodes = (
"248 720 LINE",
"168 720 LINE",
"24 0 LINE",
"104 0 LINE"
);
},
{
closed = 1;
nodes = (
"562 720 LINE",
"468 720 LINE",
"147 353 LINE",
"233 353 LINE"
);
},
{
closed = 1;
nodes = (
"334 0 LINE",
"432 0 LINE",
"246 381 LINE",
"156 381 LINE"
);
}
);
width = 520;
}
);
unicode = 004B;
},
{
glyphname = L;
lastChange = "2019-12-19 14:57:11 +0000";
layers = (
{
anchors = (
{
name = bottom;
position = "{184, 0}";
},
{
name = center;
position = "{256, 360}";
},
{
name = top;
position = "{208, 720}";
},
{
name = topright;
position = "{548, 720}";
}
);
layerId = "83692D61-586C-413E-9B5A-1AF652750951";
paths = (
{
closed = 1;
nodes = (
"384 0 LINE",
"398 72 LINE",
"118 72 LINE",
"248 720 LINE",
"168 720 LINE",
"24 0 LINE"
);
}
);
width = 480;
}
);
unicode = 004C;
},
{
glyphname = M;
lastChange = "2019-12-19 14:57:11 +0000";
layers = (
{
anchors = (
{
name = bottom;
position = "{304, 0}";
},
{
name = top;
position = "{448, 720}";
}
);
guideLines = (
{
position = "{88, 471}";
}
);
layerId = "83692D61-586C-413E-9B5A-1AF652750951";
paths = (
{
closed = 1;
nodes = (
"210 720 LINE",
"16 0 LINE",
"92 0 LINE",
"286 720 LINE"
);
},
{
closed = 1;
nodes = (
"610 720 LINE",
"516 0 LINE",
"592 0 LINE",
"686 720 LINE"
);
},
{
closed = 1;
nodes = (
"252 720 LINE",
"254 0 LINE",
"330 0 LINE",
"328 720 LINE"
);
},
{
closed = 1;
nodes = (
"282 0 LINE",
"356 0 LINE",
"646 720 LINE",
"572 720 LINE"
);
}
);
width = 720;
},
{
associatedMasterId = "83692D61-586C-413E-9B5A-1AF652750951";
layerId = "D36518EA-A451-49CD-9689-71A006F6C7DE";
name = "Jan 9 18, 17:31";
paths = (
{
closed = 1;
nodes = (
"120 0 LINE",
"120 648 LINE",
"280 648 LINE",
"280 0 LINE",
"360 0 LINE",
"360 648 LINE",
"520 648 LINE",
"520 0 LINE",
"600 0 LINE",
"600 720 LINE",
"40 720 LINE",
"40 0 LINE"
);
}
);
width = 640;
},
{
associatedMasterId = "83692D61-586C-413E-9B5A-1AF652750951";
guideLines = (
{
position = "{29, 578}";
}
);
layerId = "972F3E4A-8DF6-42D8-93D1-10164F196B38";
name = "Jan 9 18, 17:54";
paths = (
{
closed = 1;
nodes = (
"110 720 LINE",
"60 0 LINE",
"140 0 LINE",
"190 720 LINE"
);
},
{
closed = 1;
nodes = (
"510 720 LINE",
"560 0 LINE",
"640 0 LINE",
"590 720 LINE"
);
},
{
closed = 1;
nodes = (
"151 720 LINE",
"297 0 LINE",
"379 0 LINE",
"233 720 LINE"
);
},
{
closed = 1;
nodes = (
"327 0 LINE",
"403 0 LINE",
"549 720 LINE",
"473 720 LINE"
);
}
);
width = 700;
}
);
unicode = 004D;
},
{
glyphname = N;
lastChange = "2019-12-19 14:57:11 +0000";
layers = (
{
anchors = (
{
name = bottom;
position = "{224, 0}";
},
{
name = top;
position = "{368, 720}";
}
);
background = {
paths = (
{
closed = 1;
nodes = (
"160 640 LINE",
"160 720 LINE",
"80 720 LINE",
"80 0 LINE",
"160 0 LINE",
"160 480 LINE",
"240 480 LINE",
"240 640 LINE"
);
},
{
closed = 1;
nodes = (
"400 320 LINE",
"320 320 LINE",
"320 160 LINE",
"400 160 LINE",
"400 0 LINE",
"480 0 LINE",
"480 720 LINE",
"400 720 LINE"
);
},
{
closed = 1;
nodes = (
"240 480 LINE",
"240 320 LINE",
"320 320 LINE",
"320 480 LINE"
);
}
);
};
layerId = "83692D61-586C-413E-9B5A-1AF652750951";
paths = (
{
closed = 1;
nodes = (
"98 0 LINE",
"211 562 LINE",
"359 0 LINE",
"424 0 LINE",
"568 720 LINE",
"494 720 LINE",
"391 208 LINE",
"256 720 LINE",
"168 720 LINE",
"24 0 LINE"
);
}
);
width = 560;
}
);
unicode = 004E;
},
{
glyphname = O;
lastChange = "2019-12-19 14:57:11 +0000";
layers = (
{
anchors = (
{
name = bottom;
position = "{224, 0}";
},
{
name = center;
position = "{296, 360}";
},
{
name = ogonek;
position = "{286, 0}";
},
{
name = top;
position = "{368, 720}";
},
{
name = topleft;
position = "{108, 720}";
},
{
name = topright;
position = "{628, 720}";
}
);
layerId = "83692D61-586C-413E-9B5A-1AF652750951";
paths = (
{
closed = 1;
nodes = (
"360 -10 OFFCURVE",
"472 110 OFFCURVE",
"521 354 CURVE SMOOTH",
"569 596 OFFCURVE",
"528 730 OFFCURVE",
"364 730 CURVE SMOOTH",
"220 730 OFFCURVE",
"119 606 OFFCURVE",
"71 366 CURVE SMOOTH",
"19 107 OFFCURVE",
"78 -10 OFFCURVE",
"228 -10 CURVE SMOOTH"
);
},
{
closed = 1;
nodes = (
"144 60 OFFCURVE",
"109 134 OFFCURVE",
"153 354 CURVE SMOOTH",
"198 581 OFFCURVE",
"261 660 OFFCURVE",
"362 660 CURVE SMOOTH",
"458 660 OFFCURVE",
"482 582 OFFCURVE",
"439 366 CURVE SMOOTH",
"394 141 OFFCURVE",
"324 60 OFFCURVE",
"230 60 CURVE SMOOTH"
);
}
);
width = 560;
}
);
unicode = 004F;
},
{
glyphname = P;
lastChange = "2019-12-19 14:57:11 +0000";
layers = (
{
anchors = (
{
name = bottom;
position = "{224, 0}";
},
{
name = top;
position = "{368, 720}";
}
);
background = {
paths = (
{
closed = 1;
nodes = (
"160 0 LINE",
"160 251 LINE",
"187 249 OFFCURVE",
"215 248 OFFCURVE",
"242 248 CURVE SMOOTH",
"394 248 OFFCURVE",
"476 346 OFFCURVE",
"476 486 CURVE SMOOTH",
"476 629 OFFCURVE",
"400 720 OFFCURVE",
"242 720 CURVE SMOOTH",
"80 720 LINE",
"80 0 LINE"
);
},
{
closed = 1;
nodes = (
"160 648 LINE",
"244 648 LINE SMOOTH",
"351 648 OFFCURVE",
"392 584 OFFCURVE",
"392 482 CURVE SMOOTH",
"392 383 OFFCURVE",
"355 320 OFFCURVE",
"244 320 CURVE SMOOTH",
"216 320 OFFCURVE",
"188 321 OFFCURVE",
"160 323 CURVE"
);
}
);
};
layerId = "83692D61-586C-413E-9B5A-1AF652750951";
paths = (
{
closed = 1;
nodes = (
"104 0 LINE",
"157 252 LINE",
"182 249 OFFCURVE",
"206 248 OFFCURVE",
"230 248 CURVE SMOOTH",
"392 248 OFFCURVE",
"489 343 OFFCURVE",
"516 480 CURVE SMOOTH",
"545 626 OFFCURVE",
"485 720 OFFCURVE",
"327 720 CURVE SMOOTH",
"168 720 LINE",
"24 0 LINE"
);
},
{
closed = 1;
nodes = (
"234 648 LINE",
"320 648 LINE SMOOTH",
"427 648 OFFCURVE",
"453 587 OFFCURVE",
"434 488 CURVE SMOOTH",
"412 378 OFFCURVE",
"357 320 OFFCURVE",
"229 320 CURVE SMOOTH",
"215 320 OFFCURVE",
"193 321 OFFCURVE",
"166 323 CURVE"
);
}
);
width = 560;
},
{
associatedMasterId = "83692D61-586C-413E-9B5A-1AF652750951";
background = {
paths = (
{
closed = 1;
nodes = (
"160 320 LINE",
"160 640 LINE",
"400 640 LINE",
"400 720 LINE",
"80 720 LINE",
"80 0 LINE",
"160 0 LINE",
"160 240 LINE",
"400 240 LINE",
"400 320 LINE"
);
},
{
closed = 1;
nodes = (
"400 320 LINE",
"480 320 LINE",
"480 640 LINE",
"400 640 LINE"
);
}
);
};
layerId = "255C0E84-DEE1-4680-A231-36CF8B22D124";
name = "Feb 2 18, 11:28";
paths = (
{
closed = 1;
nodes = (
"160 0 LINE",
"160 248 LINE",
"242 248 LINE SMOOTH",
"394 248 OFFCURVE",
"476 346 OFFCURVE",
"476 486 CURVE SMOOTH",
"476 629 OFFCURVE",
"400 720 OFFCURVE",
"242 720 CURVE SMOOTH",
"80 720 LINE",
"80 0 LINE"
);
},
{
closed = 1;
nodes = (
"160 648 LINE",
"244 648 LINE SMOOTH",
"351 648 OFFCURVE",
"392 584 OFFCURVE",
"392 482 CURVE SMOOTH",
"392 383 OFFCURVE",
"355 320 OFFCURVE",
"244 320 CURVE SMOOTH",
"160 320 LINE"
);
}
);
width = 520;
}
);
unicode = 0050;
},
{
color = 7;
glyphname = Q;
lastChange = "2019-12-19 14:57:11 +0000";
layers = (
{
anchors = (
{
name = bottom;
position = "{224, 0}";
},
{
name = top;
position = "{368, 720}";
}
);
background = {
paths = (
{
closed = 1;
nodes = (
"400 640 LINE",
"400 720 LINE",
"160 720 LINE",
"160 640 LINE"
);
},
{
closed = 1;
nodes = (
"160 640 LINE",
"80 640 LINE",
"80 80 LINE",
"160 80 LINE"
);
},
{
closed = 1;
nodes = (
"400 80 LINE",
"480 80 LINE",
"480 640 LINE",
"400 640 LINE"
);
},
{
closed = 1;
nodes = (
"160 80 LINE",
"160 0 LINE",
"240 0 LINE",
"240 -80 LINE",
"320 -80 LINE",
"320 0 LINE",
"400 0 LINE",
"400 80 LINE"
);
},
{
closed = 1;
nodes = (
"480 -160 LINE",
"480 -80 LINE",
"320 -80 LINE",
"320 -160 LINE"
);
}
);
};
components = (
{
name = O;
}
);
layerId = "83692D61-586C-413E-9B5A-1AF652750951";
paths = (
{
closed = 1;
nodes = (
"345 -164 OFFCURVE",
"374 -160 OFFCURVE",
"400 -151 CURVE",
"398 -86 LINE",
"371 -90 OFFCURVE",
"352 -92 OFFCURVE",
"330 -92 CURVE SMOOTH",
"272 -92 OFFCURVE",
"249 -65 OFFCURVE",
"259 6 CURVE",
"184 6 LINE",
"175 -112 OFFCURVE",
"223 -164 OFFCURVE",
"311 -164 CURVE"
);
}
);
width = 560;
}
);
unicode = 0051;
},
{
glyphname = R;
lastChange = "2019-12-19 14:57:11 +0000";
layers = (
{
anchors = (
{
name = bottom;
position = "{224, 0}";
},
{
name = top;
position = "{368, 720}";
}
);
background = {
paths = (
{
closed = 1;
nodes = (
"160 400 LINE",
"160 640 LINE",
"400 640 LINE",
"400 720 LINE",
"80 720 LINE",
"80 0 LINE",
"160 0 LINE",
"160 320 LINE",
"240 320 LINE",
"240 240 LINE",
"320 240 LINE",
"320 320 LINE",
"400 320 LINE",
"400 400 LINE"
);
},
{
closed = 1;
nodes = (
"400 400 LINE",
"480 400 LINE",
"480 640 LINE",
"400 640 LINE"
);
},
{
closed = 1;
nodes = (
"400 240 LINE",
"320 240 LINE",
"320 160 LINE",
"400 160 LINE"
);
},
{
closed = 1;
nodes = (
"480 0 LINE",
"480 160 LINE",
"400 160 LINE",
"400 0 LINE"
);
}
);
};
layerId = "83692D61-586C-413E-9B5A-1AF652750951";
paths = (
{
closed = 1;
nodes = (
"104 0 LINE",
"164 300 LINE",
"248 300 LINE",
"249 304 LINE",
"261 304 LINE SMOOTH",
"411 304 OFFCURVE",
"497 387 OFFCURVE",
"521 506 CURVE SMOOTH",
"547 636 OFFCURVE",
"485 720 OFFCURVE",
"327 720 CURVE SMOOTH",
"168 720 LINE",
"24 0 LINE"
);
},
{
closed = 1;
nodes = (
"440 0 LINE",
"311 331 LINE",
"226 331 LINE",
"343 0 LINE"
);
},
{
closed = 1;
nodes = (
"234 648 LINE",
"320 648 LINE SMOOTH",
"427 648 OFFCURVE",
"455 597 OFFCURVE",
"439 514 CURVE SMOOTH",
"420 421 OFFCURVE",
"366 372 OFFCURVE",
"269 372 CURVE SMOOTH",
"178 372 LINE"
);
}
);
width = 560;
}
);
unicode = 0052;
},
{
glyphname = S;
lastChange = "2019-12-19 14:57:11 +0000";
layers = (
{
anchors = (
{
name = bottom;
position = "{184, 0}";
},
{
name = top;
position = "{328, 720}";
}
);
background = {
paths = (
{
closed = 1;
nodes = (
"349 -9 OFFCURVE",
"417 80 OFFCURVE",
"417 172 CURVE SMOOTH",
"417 289 OFFCURVE",
"339 337 OFFCURVE",
"271 389 CURVE SMOOTH",
"173 463 OFFCURVE",
"146 499 OFFCURVE",
"146 556 CURVE SMOOTH",
"146 605 OFFCURVE",
"180 658 OFFCURVE",
"251 658 CURVE SMOOTH",
"294 658 OFFCURVE",
"339 646 OFFCURVE",
"388 623 CURVE",
"417 683 LINE",
"379 704 OFFCURVE",
"315 730 OFFCURVE",
"243 730 CURVE SMOOTH",
"126 730 OFFCURVE",
"64 641 OFFCURVE",
"64 550 CURVE SMOOTH",
"64 458 OFFCURVE",
"126 399 OFFCURVE",
"218 329 CURVE SMOOTH",
"294 271 OFFCURVE",
"335 234 OFFCURVE",
"335 170 CURVE SMOOTH",
"335 104 OFFCURVE",
"288 63 OFFCURVE",
"214 63 CURVE SMOOTH",
"166 63 OFFCURVE",
"111 83 OFFCURVE",
"72 104 CURVE",
"45 43 LINE",
"97 12 OFFCURVE",
"151 -9 OFFCURVE",
"219 -9 CURVE SMOOTH"
);
}
);
};
layerId = "83692D61-586C-413E-9B5A-1AF652750951";
paths = (
{
closed = 1;
nodes = (
"294 -9 OFFCURVE",
"376 77 OFFCURVE",
"394 166 CURVE SMOOTH",
"436 377 OFFCURVE",
"169 393 OFFCURVE",
"200 550 CURVE SMOOTH",
"210 602 OFFCURVE",
"258 658 OFFCURVE",
"332 658 CURVE SMOOTH",
"372 658 OFFCURVE",
"415 647 OFFCURVE",
"459 624 CURVE",
"496 682 LINE",
"461 703 OFFCURVE",
"402 730 OFFCURVE",
"327 730 CURVE SMOOTH",
"213 730 OFFCURVE",
"137 644 OFFCURVE",
"119 556 CURVE SMOOTH",
"79 356 OFFCURVE",
"345 328 OFFCURVE",
"314 176 CURVE SMOOTH",
"300 107 OFFCURVE",
"242 63 OFFCURVE",
"165 63 CURVE SMOOTH",
"120 63 OFFCURVE",
"69 82 OFFCURVE",
"34 103 CURVE",
"-1 45 LINE",
"46 14 OFFCURVE",
"96 -9 OFFCURVE",
"167 -9 CURVE SMOOTH"
);
}
);
width = 480;
}
);
unicode = 0053;
},
{
glyphname = T;
lastChange = "2019-12-19 14:57:11 +0000";
layers = (
{
anchors = (
{
name = bottom;
position = "{224, 0}";
},
{
name = center;
position = "{296, 360}";
},
{
name = top;
position = "{368, 720}";
}
);
layerId = "83692D61-586C-413E-9B5A-1AF652750951";
paths = (
{
closed = 1;
nodes = (
"264 0 LINE",
"394 648 LINE",
"570 648 LINE",
"584 720 LINE",
"152 720 LINE",
"138 648 LINE",
"314 648 LINE",
"184 0 LINE"
);
}
);
width = 560;
}
);
unicode = 0054;
},
{
glyphname = U;
lastChange = "2019-12-19 14:57:11 +0000";
layers = (
{
anchors = (
{
name = bottom;
position = "{224, 0}";
},
{
name = ogonek;
position = "{450, 10}";
},
{
name = top;
position = "{373, 720}";
},
{
name = topright;
position = "{628, 720}";
}
);
background = {
paths = (
{
closed = 1;
nodes = (
"160 720 LINE",
"80 720 LINE",
"80 80 LINE",
"160 80 LINE"
);
},
{
closed = 1;
nodes = (
"400 80 LINE",
"480 80 LINE",
"480 720 LINE",
"400 720 LINE"
);
},
{
closed = 1;
nodes = (
"160 80 LINE",
"160 0 LINE",
"400 0 LINE",
"400 80 LINE"
);
}
);
};
layerId = "83692D61-586C-413E-9B5A-1AF652750951";
paths = (
{
closed = 1;
nodes = (
"331 -12 OFFCURVE",
"431 52 OFFCURVE",
"461 199 CURVE SMOOTH",
"565 720 LINE",
"491 720 LINE",
"388 205 LINE SMOOTH",
"370 113 OFFCURVE",
"314 62 OFFCURVE",
"233 62 CURVE SMOOTH",
"154 62 OFFCURVE",
"125 105 OFFCURVE",
"142 192 CURVE SMOOTH",
"248 720 LINE",
"168 720 LINE",
"63 196 LINE SMOOTH",
"37 63 OFFCURVE",
"96 -12 OFFCURVE",
"227 -12 CURVE SMOOTH"
);
}
);
width = 560;
}
);
unicode = 0055;
},
{
glyphname = V;
lastChange = "2019-12-19 14:57:11 +0000";
layers = (
{
anchors = (
{
name = bottom;
position = "{224, 0}";
},
{
name = top;
position = "{368, 720}";
}
);
layerId = "83692D61-586C-413E-9B5A-1AF652750951";
paths = (
{
closed = 1;
nodes = (
"250 70 LINE",
"217 720 LINE",
"130 720 LINE",
"181 0 LINE",
"264 0 LINE",
"607 720 LINE",
"525 720 LINE",
"222 70 LINE"
);
}
);
width = 560;
}
);
unicode = 0056;
},
{
glyphname = W;
lastChange = "2019-12-19 14:57:11 +0000";
layers = (
{
anchors = (
{
name = bottom;
position = "{304, 0}";
},
{
name = top;
position = "{448, 720}";
}
);
background = {
paths = (
{
closed = 1;
nodes = (
"120 720 LINE",
"40 720 LINE",
"40 80 LINE",
"120 80 LINE"
);
},
{
closed = 1;
nodes = (
"360 720 LINE",
"280 720 LINE",
"280 80 LINE",
"360 80 LINE"
);
},
{
closed = 1;
nodes = (
"520 80 LINE",
"600 80 LINE",
"600 720 LINE",
"520 720 LINE"
);
},
{
closed = 1;
nodes = (
"120 0 LINE",
"280 0 LINE",
"280 80 LINE",
"120 80 LINE"
);
},
{
closed = 1;
nodes = (
"360 0 LINE",
"520 0 LINE",
"520 80 LINE",
"360 80 LINE"
);
}
);
};
layerId = "83692D61-586C-413E-9B5A-1AF652750951";
paths = (
{
closed = 1;
nodes = (
"458 0 LINE",
"498 720 LINE",
"422 720 LINE",
"382 0 LINE"
);
},
{
closed = 1;
nodes = (
"184 0 LINE",
"232 720 LINE",
"156 720 LINE",
"108 0 LINE"
);
},
{
closed = 1;
nodes = (
"220 0 LINE",
"468 720 LINE",
"398 720 LINE",
"150 0 LINE"
);
},
{
closed = 1;
nodes = (
"500 0 LINE",
"740 720 LINE",
"664 720 LINE",
"424 0 LINE"
);
}
);
width = 720;
}
);
unicode = 0057;
},
{
glyphname = X;
lastChange = "2019-12-19 14:57:11 +0000";
layers = (
{
anchors = (
{
name = bottom;
position = "{204, 0}";
},
{
name = top;
position = "{348, 720}";
}
);
background = {
paths = (
{
closed = 1;
nodes = (
"160 720 LINE",
"80 720 LINE",
"80 480 LINE",
"160 480 LINE"
);
},
{
closed = 1;
nodes = (
"400 480 LINE",
"480 480 LINE",
"480 720 LINE",
"400 720 LINE"
);
},
{
closed = 1;
nodes = (
"160 400 LINE",
"240 400 LINE",
"240 480 LINE",
"160 480 LINE"
);
},
{
closed = 1;
nodes = (
"400 400 LINE",
"400 480 LINE",
"320 480 LINE",
"320 400 LINE"
);
},
{
closed = 1;
nodes = (
"320 320 LINE",
"320 400 LINE",
"240 400 LINE",
"240 320 LINE"
);
},
{
closed = 1;
nodes = (
"240 240 LINE",
"240 320 LINE",
"160 320 LINE",
"160 240 LINE"
);
},
{
closed = 1;
nodes = (
"400 320 LINE",
"320 320 LINE",
"320 240 LINE",
"400 240 LINE"
);
},
{
closed = 1;
nodes = (
"80 0 LINE",
"160 0 LINE",
"160 240 LINE",
"80 240 LINE"
);
},
{
closed = 1;
nodes = (
"400 0 LINE",
"480 0 LINE",
"480 240 LINE",
"400 240 LINE"
);
}
);
};
layerId = "83692D61-586C-413E-9B5A-1AF652750951";
paths = (
{
closed = 1;
nodes = (
"425 0 LINE",
"227 720 LINE",
"140 720 LINE",
"338 0 LINE"
);
},
{
closed = 1;
nodes = (
"67 0 LINE",
"316 390 LINE",
"238 390 LINE",
"-19 0 LINE"
);
},
{
closed = 1;
nodes = (
"321 360 LINE",
"567 720 LINE",
"481 720 LINE",
"243 360 LINE"
);
}
);
width = 520;
}
);
unicode = 0058;
},
{
glyphname = Y;
lastChange = "2019-12-19 14:57:11 +0000";
layers = (
{
anchors = (
{
name = bottom;
position = "{184, 0}";
},
{
name = top;
position = "{333, 720}";
},
{
name = topleft;
position = "{108, 720}";
}
);
background = {
paths = (
{
closed = 1;
nodes = (
"40 720 LINE",
"40 560 LINE",
"120 560 LINE",
"120 720 LINE"
);
},
{
closed = 1;
nodes = (
"360 560 LINE",
"440 560 LINE",
"440 720 LINE",
"360 720 LINE"
);
},
{
closed = 1;
nodes = (
"120 560 LINE",
"120 400 LINE",
"200 400 LINE",
"200 560 LINE"
);
},
{
closed = 1;
nodes = (
"280 400 LINE",
"360 400 LINE",
"360 560 LINE",
"280 560 LINE"
);
},
{
closed = 1;
nodes = (
"200 0 LINE",
"280 0 LINE",
"280 400 LINE",
"200 400 LINE"
);
}
);
};
layerId = "83692D61-586C-413E-9B5A-1AF652750951";
paths = (
{
closed = 1;
nodes = (
"224 0 LINE",
"289 320 LINE",
"561 720 LINE",
"477 720 LINE",
"268 405 LINE",
"191 720 LINE",
"103 720 LINE",
"209 320 LINE",
"144 0 LINE"
);
}
);
width = 480;
}
);
unicode = 0059;
},
{
glyphname = Z;
lastChange = "2019-12-19 14:57:11 +0000";
layers = (
{
anchors = (
{
name = bottom;
position = "{184, 0}";
},
{
name = top;
position = "{328, 720}";
}
);
layerId = "83692D61-586C-413E-9B5A-1AF652750951";
paths = (
{
closed = 1;
nodes = (
"358 0 LINE",
"372 72 LINE",
"109 72 LINE",
"490 658 LINE",
"502 720 LINE",
"154 720 LINE",
"140 648 LINE",
"403 648 LINE",
"22 62 LINE",
"10 0 LINE"
);
}
);
width = 480;
}
);
unicode = 005A;
},
{
color = 3;
export = 0;
glyphname = E.prop;
lastChange = "2019-12-19 14:57:11 +0000";
layers = (
{
layerId = "83692D61-586C-413E-9B5A-1AF652750951";
paths = (
{
closed = 1;
nodes = (
"356 0 LINE",
"370 72 LINE",
"118 72 LINE",
"169 326 LINE",
"357 326 LINE",
"372 398 LINE",
"184 398 LINE",
"234 648 LINE",
"482 648 LINE",
"496 720 LINE",
"168 720 LINE",
"24 0 LINE"
);
}
);
width = 480;
}
);
},
{
color = 9;
export = 0;
glyphname = E.x;
lastChange = "2019-12-19 14:57:11 +0000";
layers = (
{
layerId = "83692D61-586C-413E-9B5A-1AF652750951";
paths = (
{
closed = 1;
nodes = (
"415 0 LINE",
"429 72 LINE",
"130 72 LINE",
"173 286 LINE",
"432 286 LINE",
"447 358 LINE",
"188 358 LINE",
"230 568 LINE",
"525 568 LINE",
"539 640 LINE",
"164 640 LINE",
"36 0 LINE"
);
}
);
width = 560;
},
{
associatedMasterId = "83692D61-586C-413E-9B5A-1AF652750951";
layerId = "E6CE487C-E1FC-470A-BAAF-A504782E6D1F";
name = "Jan 10 18, 17:22";
paths = (
{
closed = 1;
nodes = (
"471 0 LINE",
"471 72 LINE",
"172 72 LINE",
"172 326 LINE",
"431 326 LINE",
"431 398 LINE",
"172 398 LINE",
"172 648 LINE",
"467 648 LINE",
"467 720 LINE",
"92 720 LINE",
"92 0 LINE"
);
}
);
width = 560;
}
);
},
{
glyphname = a;
lastChange = "2019-12-19 14:57:11 +0000";
layers = (
{
anchors = (
{
name = bottom;
position = "{224, 0}";
},
{
name = ogonek;
position = "{410, 0}";
},
{
name = top;
position = "{336, 560}";
}
);
background = {
paths = (
{
closed = 1;
nodes = (
"291 -8 OFFCURVE",
"341 35 OFFCURVE",
"383 77 CURVE SMOOTH",
"400 94 LINE",
"401 0 LINE",
"480 0 LINE",
"480 375 LINE SMOOTH",
"480 498 OFFCURVE",
"423 574 OFFCURVE",
"297 574 CURVE SMOOTH",
"227 574 OFFCURVE",
"153 552 OFFCURVE",
"111 539 CURVE",
"129 475 LINE",
"177 489 OFFCURVE",
"233 502 OFFCURVE",
"281 502 CURVE SMOOTH",
"364 502 OFFCURVE",
"400 460 OFFCURVE",
"400 369 CURVE SMOOTH",
"400 322 LINE",
"366 322 LINE SMOOTH",
"153 322 OFFCURVE",
"76 238 OFFCURVE",
"76 138 CURVE SMOOTH",
"76 56 OFFCURVE",
"128 -8 OFFCURVE",
"220 -8 CURVE SMOOTH"
);
},
{
closed = 1;
nodes = (
"188 64 OFFCURVE",
"160 92 OFFCURVE",
"160 144 CURVE SMOOTH",
"160 198 OFFCURVE",
"207 258 OFFCURVE",
"371 258 CURVE SMOOTH",
"400 258 LINE",
"400 178 LINE",
"362 139 LINE SMOOTH",
"320 96 OFFCURVE",
"280 64 OFFCURVE",
"234 64 CURVE SMOOTH"
);
}
);
};
hints = (
{
horizontal = 1;
origin = "{0, 27}";
target = "{1, 11}";
type = Stem;
},
{
horizontal = 1;
origin = "{1, 5}";
target = "{0, 21}";
type = Stem;
},
{
horizontal = 1;
origin = "{0, 9}";
target = "{0, 16}";
type = Stem;
},
{
horizontal = 1;
origin = "{0, 4}";
target = up;
type = BottomGhost;
},
{
origin = "{0, 24}";
target = "{1, 2}";
type = Stem;
},
{
origin = "{0, 3}";
target = "{0, 5}";
type = Stem;
},
{
horizontal = 1;
origin = "{0, 9}";
target = "{0, 16}";
type = TTStem;
options = 4;
},
{
horizontal = 1;
origin = "{0, 27}";
target = "{1, 11}";
type = TTStem;
options = 4;
},
{
horizontal = 1;
origin = "{0, 5}";
type = Anchor;
},
{
horizontal = 1;
origin = "{0, 9}";
target = "{0, 27}";
other1 = "{1, 5}";
type = Interpolate;
},
{
horizontal = 1;
origin = "{1, 5}";
target = "{0, 21}";
type = TTStem;
options = 4;
}
);
layerId = "83692D61-586C-413E-9B5A-1AF652750951";
paths = (
{
closed = 1;
nodes = (
"222 -8 OFFCURVE",
"280 34 OFFCURVE",
"330 76 CURVE SMOOTH",
"350 95 LINE",
"331 0 LINE",
"410 0 LINE",
"484 372 LINE SMOOTH",
"509 495 OFFCURVE",
"465 574 OFFCURVE",
"336 574 CURVE SMOOTH",
"269 574 OFFCURVE",
"191 553 OFFCURVE",
"146 540 CURVE",
"157 474 LINE",
"207 488 OFFCURVE",
"266 502 OFFCURVE",
"317 502 CURVE SMOOTH",
"397 502 OFFCURVE",
"423 463 OFFCURVE",
"404 372 CURVE SMOOTH",
"394 322 LINE",
"358 322 LINE SMOOTH",
"153 322 OFFCURVE",
"54 241 OFFCURVE",
"34 142 CURVE SMOOTH",
"18 59 OFFCURVE",
"59 -8 OFFCURVE",
"152 -8 CURVE SMOOTH"
);
},
{
closed = 1;
nodes = (
"128 64 OFFCURVE",
"108 89 OFFCURVE",
"117 136 CURVE SMOOTH",
"129 195 OFFCURVE",
"191 258 OFFCURVE",
"355 258 CURVE SMOOTH",
"382 258 LINE",
"365 178 LINE",
"317 141 LINE SMOOTH",
"268 98 OFFCURVE",
"220 64 OFFCURVE",
"171 64 CURVE SMOOTH"
);
}
);
width = 560;
}
);
leftKerningGroup = a;
unicode = 0061;
},
{
glyphname = b;
lastChange = "2019-12-19 14:57:11 +0000";
layers = (
{
anchors = (
{
name = bottom;
position = "{224, 0}";
},
{
name = top;
position = "{384, 800}";
}
);
hints = (
{
horizontal = 1;
origin = "{0, 15}";
target = "{1, 13}";
type = Stem;
},
{
horizontal = 1;
origin = "{0, 5}";
target = "{1, 7}";
type = Stem;
},
{
horizontal = 1;
origin = "{0, 11}";
target = down;
type = TopGhost;
},
{
origin = "{0, 12}";
target = "{1, 2}";
type = Stem;
},
{
origin = "{1, 10}";
target = "{0, 2}";
type = Stem;
},
{
horizontal = 1;
origin = "{0, 5}";
target = "{1, 7}";
type = TTStem;
options = 4;
},
{
horizontal = 1;
origin = "{0, 15}";
target = "{1, 13}";
type = TTStem;
options = 4;
},
{
horizontal = 1;
origin = "{0, 10}";
type = Anchor;
}
);
layerId = "83692D61-586C-413E-9B5A-1AF652750951";
paths = (
{
closed = 1;
nodes = (
"339 -11 OFFCURVE",
"470 98 OFFCURVE",
"513 313 CURVE SMOOTH",
"545 476 OFFCURVE",
"501 568 OFFCURVE",
"390 568 CURVE SMOOTH",
"326 568 OFFCURVE",
"268 532 OFFCURVE",
"215 478 CURVE SMOOTH",
"194 454 LINE",
"264 800 LINE",
"184 800 LINE",
"30 19 LINE",
"78 3 OFFCURVE",
"139 -11 OFFCURVE",
"204 -11 CURVE SMOOTH"
);
},
{
closed = 1;
nodes = (
"167 57 OFFCURVE",
"135 60 OFFCURVE",
"114 65 CURVE",
"178 366 LINE",
"228 412 LINE SMOOTH",
"283 468 OFFCURVE",
"326 496 OFFCURVE",
"374 496 CURVE SMOOTH",
"432 496 OFFCURVE",
"456 450 OFFCURVE",
"430 319 CURVE SMOOTH",
"394 142 OFFCURVE",
"308 57 OFFCURVE",
"192 57 CURVE SMOOTH"
);
}
);
width = 560;
}
);
unicode = 0062;
},
{
color = 9;
glyphname = c;
lastChange = "2019-12-19 14:57:11 +0000";
layers = (
{
anchors = (
{
name = bottom;
position = "{224, 0}";
},
{
name = top;
position = "{336, 560}";
}
);
background = {
paths = (
{
closed = 1;
nodes = (
"460 273 LINE",
"484 446 OFFCURVE",
"417 568 OFFCURVE",
"277 568 CURVE SMOOTH",
"152 568 OFFCURVE",
"60 474 OFFCURVE",
"60 280 CURVE SMOOTH",
"60 72 OFFCURVE",
"160 -10 OFFCURVE",
"298 -10 CURVE SMOOTH",
"356 -10 OFFCURVE",
"407 6 OFFCURVE",
"453 25 CURVE",
"433 90 LINE",
"396 76 OFFCURVE",
"352 62 OFFCURVE",
"303 62 CURVE SMOOTH",
"194 62 OFFCURVE",
"142 134 OFFCURVE",
"142 280 CURVE SMOOTH",
"142 412 OFFCURVE",
"179 498 OFFCURVE",
"273 498 CURVE SMOOTH",
"352 498 OFFCURVE",
"386 433 OFFCURVE",
"384 343 CURVE"
);
}
);
};
hints = (
{
horizontal = 1;
origin = "{0, 3}";
target = "{0, 22}";
type = TTStem;
options = 4;
},
{
horizontal = 1;
origin = "{0, 9}";
target = "{0, 16}";
type = TTStem;
options = 4;
}
);
layerId = "83692D61-586C-413E-9B5A-1AF652750951";
paths = (
{
closed = 1;
nodes = (
"512 512 LINE",
"477 539 OFFCURVE",
"423 568 OFFCURVE",
"343 568 CURVE SMOOTH",
"211 568 OFFCURVE",
"111 477 OFFCURVE",
"73 286 CURVE SMOOTH",
"31 75 OFFCURVE",
"109 -10 OFFCURVE",
"248 -10 CURVE SMOOTH",
"308 -10 OFFCURVE",
"357 4 OFFCURVE",
"406 25 CURVE",
"392 90 LINE",
"354 76 OFFCURVE",
"315 62 OFFCURVE",
"259 62 CURVE SMOOTH",
"162 62 OFFCURVE",
"124 131 OFFCURVE",
"153 274 CURVE SMOOTH",
"180 409 OFFCURVE",
"234 496 OFFCURVE",
"339 496 CURVE SMOOTH",
"398 496 OFFCURVE",
"437 477 OFFCURVE",
"470 454 CURVE"
);
}
);
width = 560;
}
);
unicode = 0063;
},
{
glyphname = d;
lastChange = "2019-12-19 14:57:11 +0000";
layers = (
{
anchors = (
{
name = bottom;
position = "{224, 0}";
},
{
name = center;
position = "{280, 280}";
},
{
name = top;
position = "{384, 800}";
},
{
name = topright;
position = "{596, 560}";
}
);
hints = (
{
horizontal = 1;
origin = "{0, 4}";
type = Anchor;
},
{
horizontal = 1;
origin = "{0, 7}";
type = Anchor;
},
{
horizontal = 1;
origin = "{0, 17}";
target = "{1, 13}";
type = TTStem;
options = 4;
},
{
horizontal = 1;
origin = "{0, 11}";
target = "{1, 5}";
type = TTStem;
options = 4;
}
);
layerId = "83692D61-586C-413E-9B5A-1AF652750951";
paths = (
{
closed = 1;
nodes = (
"234 -8 OFFCURVE",
"292 28 OFFCURVE",
"345 82 CURVE SMOOTH",
"366 106 LINE",
"344 0 LINE",
"424 0 LINE",
"584 800 LINE",
"504 800 LINE",
"454 561 LINE",
"424 566 OFFCURVE",
"391 571 OFFCURVE",
"356 571 CURVE SMOOTH",
"221 571 OFFCURVE",
"90 462 OFFCURVE",
"47 247 CURVE SMOOTH",
"15 84 OFFCURVE",
"59 -8 OFFCURVE",
"170 -8 CURVE SMOOTH"
);
},
{
closed = 1;
nodes = (
"128 64 OFFCURVE",
"104 110 OFFCURVE",
"130 241 CURVE SMOOTH",
"166 418 OFFCURVE",
"252 503 OFFCURVE",
"368 503 CURVE SMOOTH",
"393 503 OFFCURVE",
"425 500 OFFCURVE",
"446 495 CURVE",
"382 194 LINE",
"332 148 LINE SMOOTH",
"277 92 OFFCURVE",
"234 64 OFFCURVE",
"186 64 CURVE SMOOTH"
);
}
);
width = 560;
}
);
unicode = 0064;
},
{
glyphname = e;
lastChange = "2019-12-19 14:57:11 +0000";
layers = (
{
anchors = (
{
name = bottom;
position = "{224, 0}";
},
{
name = ogonek;
position = "{402, 25}";
},
{
name = top;
position = "{331, 560}";
}
);
background = {
paths = (
{
closed = 1;
nodes = (
"411 -10 OFFCURVE",
"506 110 OFFCURVE",
"506 280 CURVE SMOOTH",
"506 444 OFFCURVE",
"437 570 OFFCURVE",
"280 570 CURVE SMOOTH",
"137 570 OFFCURVE",
"54 447 OFFCURVE",
"54 280 CURVE SMOOTH",
"54 103 OFFCURVE",
"137 -10 OFFCURVE",
"280 -10 CURVE SMOOTH"
);
},
{
closed = 1;
nodes = (
"192 60 OFFCURVE",
"136 137 OFFCURVE",
"136 280 CURVE SMOOTH",
"136 424 OFFCURVE",
"183 500 OFFCURVE",
"280 500 CURVE SMOOTH",
"378 500 OFFCURVE",
"424 420 OFFCURVE",
"424 280 CURVE SMOOTH",
"424 138 OFFCURVE",
"370 60 OFFCURVE",
"280 60 CURVE SMOOTH"
);
}
);
};
hints = (
{
horizontal = 1;
origin = "{0, 11}";
target = "{0, 2}";
type = TTStem;
options = 4;
},
{
horizontal = 1;
origin = "{0, 17}";
target = "{0, 24}";
type = TTStem;
options = 4;
},
{
horizontal = 1;
origin = "{0, 11}";
target = "{0, 17}";
other1 = "{0, 8}";
type = Interpolate;
},
{
horizontal = 1;
origin = "{0, 8}";
target = "{0, 5}";
type = TTStem;
options = 4;
}
);
layerId = "83692D61-586C-413E-9B5A-1AF652750951";
paths = (
{
closed = 1;
nodes = (
"168 409 OFFCURVE",
"225 498 OFFCURVE",
"322 498 CURVE SMOOTH",
"398 498 OFFCURVE",
"417 436 OFFCURVE",
"397 346 CURVE",
"137 343 LINE",
"123 273 LINE",
"458 270 LINE",
"517 443 OFFCURVE",
"472 568 OFFCURVE",
"329 568 CURVE SMOOTH",
"207 568 OFFCURVE",
"99 477 OFFCURVE",
"61 286 CURVE SMOOTH",
"19 75 OFFCURVE",
"105 -10 OFFCURVE",
"246 -10 CURVE SMOOTH",
"301 -10 OFFCURVE",
"355 5 OFFCURVE",
"404 24 CURVE",
"392 91 LINE",
"353 77 OFFCURVE",
"306 62 OFFCURVE",
"254 62 CURVE SMOOTH",
"148 62 OFFCURVE",
"112 131 OFFCURVE",
"141 274 CURVE SMOOTH"
);
}
);
width = 560;
}
);
unicode = 0065;
},
{
glyphname = f;
lastChange = "2019-12-19 14:57:11 +0000";
layers = (
{
anchors = (
{
name = bottom;
position = "{224, 0}";
},
{
name = top;
position = "{384, 800}";
}
);
background = {
paths = (
{
closed = 1;
nodes = (
"320 0 LINE",
"320 480 LINE",
"480 480 LINE",
"480 560 LINE",
"320 560 LINE",
"320 720 LINE",
"240 720 LINE",
"240 560 LINE",
"80 560 LINE",
"80 480 LINE",
"240 480 LINE",
"240 0 LINE"
);
},
{
closed = 1;
nodes = (
"480 720 LINE",
"480 800 LINE",
"320 800 LINE",
"320 720 LINE"
);
}
);
};
hints = (
{
horizontal = 1;
origin = "{0, 23}";
type = Anchor;
},
{
horizontal = 1;
origin = "{0, 15}";
target = "{0, 8}";
type = TTStem;
options = 4;
},
{
horizontal = 1;
origin = "{0, 19}";
type = Anchor;
},
{
horizontal = 1;
origin = "{0, 19}";
target = "{0, 4}";
type = Align;
options = 4;
},
{
horizontal = 1;
origin = "{0, 4}";
target = "{0, 1}";
type = TTStem;
options = 4;
},
{
horizontal = 1;
origin = "{0, 1}";
target = "{0, 22}";
type = Align;
options = 4;
}
);
layerId = "83692D61-586C-413E-9B5A-1AF652750951";
paths = (
{
closed = 1;
nodes = (
"258 0 LINE",
"340 408 LINE",
"516 408 LINE",
"530 480 LINE",
"354 480 LINE",
"387 647 LINE SMOOTH",
"398 702 OFFCURVE",
"434 740 OFFCURVE",
"496 740 CURVE SMOOTH",
"519 740 OFFCURVE",
"548 735 OFFCURVE",
"570 727 CURVE",
"596 793 LINE",
"567 803 OFFCURVE",
"533 812 OFFCURVE",
"491 812 CURVE SMOOTH",
"397 812 OFFCURVE",
"329 754 OFFCURVE",
"308 649 CURVE SMOOTH",
"274 480 LINE",
"114 480 LINE",
"100 408 LINE",
"260 408 LINE",
"178 0 LINE"
);
}
);
width = 560;
}
);
unicode = 0066;
},
{
glyphname = g;
lastChange = "2019-12-19 14:57:11 +0000";
layers = (
{
anchors = (
{
name = bottom;
position = "{192, -160}";
},
{
name = top;
position = "{336, 560}";
}
);
background = {
paths = (
{
closed = 1;
nodes = (
"186 311 OFFCURVE",
"156 356 OFFCURVE",
"156 401 CURVE SMOOTH",
"156 454 OFFCURVE",
"196 501 OFFCURVE",
"269 501 CURVE SMOOTH",
"339 501 OFFCURVE",
"377 458 OFFCURVE",
"377 406 CURVE SMOOTH",
"377 355 OFFCURVE",
"340 311 OFFCURVE",
"264 311 CURVE SMOOTH"
);
},
{
closed = 1;
nodes = (
"400 267 OFFCURVE",
"456 326 OFFCURVE",
"456 405 CURVE SMOOTH",
"456 484 OFFCURVE",
"397 571 OFFCURVE",
"269 571 CURVE SMOOTH",
"153 571 OFFCURVE",
"76 495 OFFCURVE",
"76 406 CURVE SMOOTH",
"76 312 OFFCURVE",
"153 256 OFFCURVE",
"243 256 CURVE",
"223 276 LINE",
"164 259 LINE SMOOTH",
"100 240 OFFCURVE",
"75 210 OFFCURVE",
"75 168 CURVE SMOOTH",
"75 111 OFFCURVE",
"122 83 OFFCURVE",
"185 83 CURVE",
"191 74 LINE",
"322 65 LINE SMOOTH",
"383 61 OFFCURVE",
"408 31 OFFCURVE",
"408 -4 CURVE SMOOTH",
"408 -57 OFFCURVE",
"360 -90 OFFCURVE",
"267 -90 CURVE SMOOTH",
"189 -90 OFFCURVE",
"137 -63 OFFCURVE",
"137 -4 CURVE SMOOTH",
"137 36 OFFCURVE",
"161 60 OFFCURVE",
"223 83 CURVE",
"204 122 LINE",
"114 94 OFFCURVE",
"56 53 OFFCURVE",
"56 -18 CURVE SMOOTH",
"56 -100 OFFCURVE",
"135 -160 OFFCURVE",
"264 -160 CURVE SMOOTH",
"420 -160 OFFCURVE",
"490 -87 OFFCURVE",
"490 -4 CURVE SMOOTH",
"490 77 OFFCURVE",
"433 138 OFFCURVE",
"325 145 CURVE SMOOTH",
"193 153 LINE SMOOTH",
"165 155 OFFCURVE",
"154 163 OFFCURVE",
"154 179 CURVE SMOOTH",
"154 196 OFFCURVE",
"165 202 OFFCURVE",
"189 209 CURVE SMOOTH",
"287 236 LINE SMOOTH"
);
},
{
closed = 1;
nodes = (
"396 508 LINE",
"420 557 OFFCURVE",
"440 560 OFFCURVE",
"468 560 CURVE SMOOTH",
"527 560 LINE",
"527 638 LINE",
"511 641 OFFCURVE",
"493 643 OFFCURVE",
"475 643 CURVE SMOOTH",
"428 643 OFFCURVE",
"389 618 OFFCURVE",
"362 523 CURVE"
);
}
);
};
hints = (
{
horizontal = 1;
origin = "{1, 5}";
target = "{0, 5}";
type = TTStem;
options = 4;
},
{
horizontal = 1;
origin = "{1, 40}";
target = "{1, 27}";
type = TTStem;
options = 4;
},
{
horizontal = 1;
origin = "{0, 5}";
target = "{1, 40}";
other1 = "{1, 21}";
type = Interpolate;
options = 4;
},
{
horizontal = 1;
origin = "{0, 5}";
target = "{1, 40}";
other1 = "{1, 54}";
type = Interpolate;
options = 4;
},
{
horizontal = 1;
origin = "{1, 21}";
target = "{1, 46}";
type = TTStem;
options = 4;
},
{
horizontal = 1;
origin = "{1, 54}";
target = "{0, 11}";
type = TTStem;
options = 4;
},
{
horizontal = 1;
origin = "{1, 5}";
target = "{1, 54}";
other1 = "{1, 11, 1, 13}";
type = Interpolate;
options = 4;
},
{
horizontal = 1;
origin = "{1, 21}";
target = "{0, 11}";
other1 = "{1, 19, 1, 37}";
type = Interpolate;
options = 4;
},
{
horizontal = 1;
origin = "{1, 5}";
target = "{1, 54}";
other1 = "{1, 5, 2, 3}";
type = Interpolate;
options = 4;
},
{
horizontal = 1;
origin = "{2, 3}";
target = "{2, 8}";
type = TTStem;
options = 4;
}
);
layerId = "83692D61-586C-413E-9B5A-1AF652750951";
paths = (
{
closed = 1;
nodes = (
"189 311 OFFCURVE",
"171 353 OFFCURVE",
"179 395 CURVE SMOOTH",
"190 451 OFFCURVE",
"243 501 OFFCURVE",
"319 501 CURVE SMOOTH",
"386 501 OFFCURVE",
"413 461 OFFCURVE",
"403 412 CURVE SMOOTH",
"393 358 OFFCURVE",
"343 311 OFFCURVE",
"265 311 CURVE SMOOTH"
);
},
{
closed = 1;
nodes = (
"404 264 OFFCURVE",
"465 323 OFFCURVE",
"480 401 CURVE SMOOTH",
"496 481 OFFCURVE",
"452 571 OFFCURVE",
"322 571 CURVE SMOOTH",
"208 571 OFFCURVE",
"120 498 OFFCURVE",
"102 412 CURVE SMOOTH",
"83 315 OFFCURVE",
"151 256 OFFCURVE",
"241 256 CURVE",
"221 276 LINE",
"157 260 LINE SMOOTH",
"90 241 OFFCURVE",
"62 213 OFFCURVE",
"54 174 CURVE SMOOTH",
"42 114 OFFCURVE",
"85 83 OFFCURVE",
"148 83 CURVE",
"151 74 LINE",
"282 65 LINE SMOOTH",
"342 61 OFFCURVE",
"359 34 OFFCURVE",
"352 0 CURVE SMOOTH",
"341 -56 OFFCURVE",
"283 -90 OFFCURVE",
"187 -90 CURVE SMOOTH",
"112 -90 OFFCURVE",
"67 -68 OFFCURVE",
"79 -10 CURVE SMOOTH",
"88 33 OFFCURVE",
"119 59 OFFCURVE",
"186 82 CURVE",
"169 123 LINE",
"74 95 OFFCURVE",
"11 56 OFFCURVE",
"-2 -12 CURVE SMOOTH",
"-19 -97 OFFCURVE",
"50 -160 OFFCURVE",
"182 -160 CURVE SMOOTH",
"335 -160 OFFCURVE",
"416 -90 OFFCURVE",
"433 -6 CURVE SMOOTH",
"449 74 OFFCURVE",
"402 138 OFFCURVE",
"295 145 CURVE SMOOTH",
"165 153 LINE SMOOTH",
"137 155 OFFCURVE",
"130 160 OFFCURVE",
"133 173 CURVE SMOOTH",
"137 193 OFFCURVE",
"152 205 OFFCURVE",
"190 214 CURVE SMOOTH",
"272 233 LINE SMOOTH"
);
},
{
closed = 1;
nodes = (
"443 505 LINE",
"476 554 OFFCURVE",
"499 560 OFFCURVE",
"527 560 CURVE SMOOTH",
"583 560 LINE",
"596 637 LINE",
"580 640 OFFCURVE",
"563 643 OFFCURVE",
"542 643 CURVE SMOOTH",
"498 643 OFFCURVE",
"456 621 OFFCURVE",
"410 526 CURVE"
);
}
);
width = 560;
}
);
unicode = 0067;
},
{
glyphname = h;
lastChange = "2019-12-19 14:57:11 +0000";
layers = (
{
anchors = (
{
name = bottom;
position = "{224, 0}";
},
{
name = center;
position = "{304, 400}";
},
{
name = top;
position = "{384, 800}";
}
);
hints = (
{
horizontal = 1;
origin = "{0, 17}";
target = "{0, 8}";
type = TTStem;
options = 4;
},
{
horizontal = 1;
origin = "{0, 0}";
type = Anchor;
},
{
horizontal = 1;
origin = "{0, 3}";
type = Anchor;
},
{
horizontal = 1;
origin = "{0, 12}";
type = Anchor;
}
);
layerId = "83692D61-586C-413E-9B5A-1AF652750951";
paths = (
{
closed = 1;
nodes = (
"264 800 LINE",
"184 800 LINE",
"24 0 LINE",
"104 0 LINE",
"179 371 LINE",
"229 412 LINE SMOOTH",
"289 466 OFFCURVE",
"332 494 OFFCURVE",
"379 494 CURVE SMOOTH",
"428 494 OFFCURVE",
"437 466 OFFCURVE",
"426 410 CURVE SMOOTH",
"344 0 LINE",
"424 0 LINE",
"505 407 LINE SMOOTH",
"526 512 OFFCURVE",
"486 568 OFFCURVE",
"394 568 CURVE SMOOTH",
"326 568 OFFCURVE",
"275 529 OFFCURVE",
"215 475 CURVE SMOOTH",
"194 453 LINE"
);
}
);
width = 560;
}
);
unicode = 0068;
},
{
color = 6;
glyphname = i;
lastChange = "2019-12-19 14:57:11 +0000";
layers = (
{
background = {
paths = (
{
closed = 1;
nodes = (
"284 70 LINE",
"284 566 LINE",
"248 566 LINE",
"74 556 LINE",
"74 496 LINE",
"204 496 LINE",
"204 70 LINE",
"64 60 LINE",
"64 0 LINE",
"424 0 LINE",
"424 60 LINE"
);
},
{
closed = 1;
nodes = (
"282 661 OFFCURVE",
"316 695 OFFCURVE",
"316 737 CURVE SMOOTH",
"316 781 OFFCURVE",
"284 814 OFFCURVE",
"240 814 CURVE SMOOTH",
"196 814 OFFCURVE",
"163 780 OFFCURVE",
"163 737 CURVE SMOOTH",
"163 692 OFFCURVE",
"195 661 OFFCURVE",
"238 661 CURVE SMOOTH"
);
}
);
};
components = (
{
name = idotless;
},
{
name = dotaccentcomb;
transform = "{1, 0, 0, 1, -1, 0}";
}
);
layerId = "83692D61-586C-413E-9B5A-1AF652750951";
width = 560;
}
);
unicode = 0069;
},
{
color = 9;
glyphname = idotless;
lastChange = "2019-12-19 14:57:11 +0000";
layers = (
{
anchors = (
{
name = bottom;
position = "{224, 0}";
},
{
name = ogonek;
position = "{428, 0}";
},
{
name = top;
position = "{335, 560}";
}
);
background = {
paths = (
{
closed = 1;
nodes = (
"324 70 LINE",
"324 566 LINE",
"288 566 LINE",
"114 556 LINE",
"114 496 LINE",
"244 496 LINE",
"244 70 LINE",
"104 60 LINE",
"104 0 LINE",
"464 0 LINE",
"464 60 LINE"
);
}
);
};
hints = (
{
horizontal = 1;
origin = "{0, 8}";
target = "{0, 6}";
type = TTStem;
options = 4;
},
{
horizontal = 1;
origin = "{0, 6}";
target = "{0, 0}";
type = Align;
options = 4;
},
{
horizontal = 1;
origin = "{0, 2}";
target = "{0, 5}";
type = TTStem;
options = 4;
}
);
layerId = "83692D61-586C-413E-9B5A-1AF652750951";
paths = (
{
closed = 1;
nodes = (
"282 70 LINE",
"381 566 LINE",
"345 566 LINE",
"149 556 LINE",
"137 496 LINE",
"287 496 LINE",
"202 70 LINE",
"40 60 LINE",
"28 0 LINE",
"428 0 LINE",
"440 60 LINE"
);
}
);
width = 560;
}
);
unicode = 0131;
},
{
glyphname = jdotless;
lastChange = "2019-12-19 14:57:11 +0000";
layers = (
{
anchors = (
{
name = top;
position = "{285, 560}";
}
);
background = {
paths = (
{
closed = 1;
nodes = (
"240 640 LINE",
"320 640 LINE",
"320 800 LINE",
"240 800 LINE"
);
},
{
closed = 1;
nodes = (
"80 560 LINE",
"80 480 LINE",
"240 480 LINE",
"240 -80 LINE",
"320 -80 LINE",
"320 560 LINE"
);
},
{
closed = 1;
nodes = (
"80 -160 LINE",
"240 -160 LINE",
"240 -80 LINE",
"80 -80 LINE"
);
}
);
};
hints = (
{
horizontal = 1;
origin = "{0, 4}";
target = "{0, 7}";
type = TTStem;
options = 4;
},
{
horizontal = 1;
origin = "{0, 18}";
target = "{0, 11}";
type = TTStem;
options = 4;
}
);
layerId = "83692D61-586C-413E-9B5A-1AF652750951";
paths = (
{
closed = 1;
nodes = (
"146 -148 OFFCURVE",
"199 -93 OFFCURVE",
"217 -5 CURVE SMOOTH",
"331 566 LINE",
"295 566 LINE",
"119 556 LINE",
"107 496 LINE",
"237 496 LINE",
"138 -1 LINE SMOOTH",
"127 -53 OFFCURVE",
"96 -78 OFFCURVE",
"46 -78 CURVE SMOOTH",
"26 -78 OFFCURVE",
"-4 -75 OFFCURVE",
"-35 -69 CURVE",
"-51 -132 LINE",
"-26 -139 OFFCURVE",
"14 -148 OFFCURVE",
"56 -148 CURVE SMOOTH"
);
}
);
width = 400;
}
);
unicode = 0237;
},
{
glyphname = k;
lastChange = "2019-12-19 14:57:11 +0000";
layers = (
{
anchors = (
{
name = bottom;
position = "{194, 0}";
},
{
name = top;
position = "{354, 800}";
}
);
background = {
paths = (
{
closed = 1;
nodes = (
"160 800 LINE",
"80 800 LINE",
"80 0 LINE",
"160 0 LINE",
"160 240 LINE",
"240 240 LINE",
"240 320 LINE",
"160 320 LINE"
);
},
{
closed = 1;
nodes = (
"400 560 LINE",
"400 480 LINE",
"480 480 LINE",
"480 560 LINE"
);
},
{
closed = 1;
nodes = (
"320 480 LINE",
"320 400 LINE",
"400 400 LINE",
"400 480 LINE"
);
},
{
closed = 1;
nodes = (
"240 400 LINE",
"240 320 LINE",
"320 320 LINE",
"320 400 LINE"
);
},
{
closed = 1;
nodes = (
"320 240 LINE",
"240 240 LINE",
"240 160 LINE",
"320 160 LINE"
);
},
{
closed = 1;
nodes = (
"400 160 LINE",
"320 160 LINE",
"320 80 LINE",
"400 80 LINE"
);
},
{
closed = 1;
nodes = (
"480 80 LINE",
"400 80 LINE",
"400 0 LINE",
"480 0 LINE"
);
}
);
};
hints = (
{
horizontal = 1;
origin = "{0, 0}";
type = Anchor;
},
{
horizontal = 1;
origin = "{0, 3}";
type = Anchor;
},
{
horizontal = 1;
origin = "{2, 0}";
type = Anchor;
},
{
horizontal = 1;
origin = "{1, 1}";
type = Anchor;
}
);
layerId = "83692D61-586C-413E-9B5A-1AF652750951";
paths = (
{
closed = 1;
nodes = (
"264 800 LINE",
"184 800 LINE",
"24 0 LINE",
"104 0 LINE"
);
},
{
closed = 1;
nodes = (
"515 560 LINE",
"418 560 LINE",
"109 265 LINE",
"191 265 LINE"
);
},
{
closed = 1;
nodes = (
"309 0 LINE",
"413 0 LINE",
"213 320 LINE",
"118 320 LINE"
);
}
);
width = 500;
}
);
unicode = 006B;
},
{
glyphname = l;
lastChange = "2019-12-19 14:57:11 +0000";
layers = (
{
anchors = (
{
name = bottom;
position = "{224, 0}";
},
{
name = center;
position = "{296, 360}";
},
{
name = top;
position = "{384, 800}";
},
{
name = topright;
position = "{644, 800}";
}
);
background = {
paths = (
{
closed = 1;
nodes = (
"320 310 LINE",
"320 806 LINE",
"284 806 LINE",
"90 796 LINE",
"90 736 LINE",
"240 736 LINE",
"240 310 LINE",
"80 300 LINE",
"80 240 LINE",
"480 240 LINE",
"480 300 LINE"
);
}
);
};
hints = (
{
horizontal = 1;
origin = "{0, 10}";
target = "{0, 8}";
type = TTStem;
options = 4;
},
{
horizontal = 1;
origin = "{0, 8}";
target = "{0, 2}";
type = Align;
options = 4;
},
{
horizontal = 1;
origin = "{0, 4}";
target = "{0, 7}";
type = TTStem;
options = 4;
}
);
layerId = "83692D61-586C-413E-9B5A-1AF652750951";
paths = (
{
closed = 1;
nodes = (
"424 0 LINE",
"436 60 LINE",
"278 70 LINE",
"425 806 LINE",
"389 806 LINE",
"193 796 LINE",
"181 736 LINE",
"331 736 LINE",
"198 70 LINE",
"36 60 LINE",
"24 0 LINE"
);
}
);
width = 560;
},
{
associatedMasterId = "83692D61-586C-413E-9B5A-1AF652750951";
layerId = "4947B03B-B76D-4BB1-8A50-C24FC5885830";
name = "Feb 2 18, 11:39";
paths = (
{
closed = 1;
nodes = (
"280 70 LINE",
"280 800 LINE",
"70 790 LINE",
"70 730 LINE",
"200 730 LINE",
"200 70 LINE",
"60 60 LINE",
"60 0 LINE",
"420 0 LINE",
"420 60 LINE"
);
}
);
width = 480;
}
);
unicode = 006C;
},
{
color = 9;
glyphname = m;
lastChange = "2019-12-19 14:57:11 +0000";
layers = (
{
anchors = (
{
name = bottom;
position = "{224, 0}";
},
{
name = top;
position = "{336, 560}";
}
);
background = {
paths = (
{
closed = 1;
nodes = (
"80 560 LINE",
"0 560 LINE",
"0 0 LINE",
"80 0 LINE",
"80 359 LINE",
"106 410 LINE SMOOTH",
"134 465 OFFCURVE",
"158 494 OFFCURVE",
"191 494 CURVE SMOOTH",
"222 494 OFFCURVE",
"240 472 OFFCURVE",
"240 414 CURVE SMOOTH",
"240 0 LINE",
"320 0 LINE",
"320 417 LINE SMOOTH",
"320 515 OFFCURVE",
"283 568 OFFCURVE",
"213 568 CURVE SMOOTH",
"160 568 OFFCURVE",
"124 532 OFFCURVE",
"91 475 CURVE SMOOTH",
"80 456 LINE"
);
},
{
closed = 1;
nodes = (
"346 410 LINE SMOOTH",
"374 465 OFFCURVE",
"398 494 OFFCURVE",
"431 494 CURVE SMOOTH",
"462 494 OFFCURVE",
"480 472 OFFCURVE",
"480 413 CURVE SMOOTH",
"480 0 LINE",
"560 0 LINE",
"560 416 LINE SMOOTH",
"560 515 OFFCURVE",
"523 568 OFFCURVE",
"453 568 CURVE SMOOTH",
"400 568 OFFCURVE",
"362 535 OFFCURVE",
"327 475 CURVE SMOOTH",
"276 386 LINE",
"320 359 LINE"
);
}
);
};
hints = (
{
horizontal = 1;
origin = "{1, 12}";
target = "{1, 3}";
type = TTStem;
options = 4;
},
{
horizontal = 1;
origin = "{0, 12}";
target = "{0, 3}";
type = TTStem;
options = 4;
},
{
horizontal = 1;
origin = "{1, 7}";
type = Anchor;
},
{
horizontal = 1;
origin = "{2, 3}";
type = Anchor;
},
{
horizontal = 1;
origin = "{0, 7}";
type = Anchor;
},
{
horizontal = 1;
origin = "{2, 0}";
type = Anchor;
}
);
layerId = "83692D61-586C-413E-9B5A-1AF652750951";
paths = (
{
closed = 1;
nodes = (
"374 413 LINE SMOOTH",
"409 466 OFFCURVE",
"434 496 OFFCURVE",
"463 496 CURVE SMOOTH",
"484 496 OFFCURVE",
"491 483 OFFCURVE",
"482 438 CURVE SMOOTH",
"394 0 LINE",
"474 0 LINE",
"560 430 LINE SMOOTH",
"579 525 OFFCURVE",
"552 568 OFFCURVE",
"488 568 CURVE SMOOTH",
"443 568 OFFCURVE",
"404 541 OFFCURVE",
"363 482 CURVE SMOOTH",
"297 385 LINE",
"338 365 LINE"
);
},
{
closed = 1;
nodes = (
"163 409 LINE SMOOTH",
"200 465 OFFCURVE",
"224 496 OFFCURVE",
"253 496 CURVE SMOOTH",
"274 496 OFFCURVE",
"281 483 OFFCURVE",
"272 438 CURVE SMOOTH",
"184 0 LINE",
"264 0 LINE",
"350 430 LINE SMOOTH",
"369 525 OFFCURVE",
"342 568 OFFCURVE",
"278 568 CURVE SMOOTH",
"233 568 OFFCURVE",
"195 539 OFFCURVE",
"152 478 CURVE SMOOTH",
"87 381 LINE",
"128 361 LINE"
);
},
{
closed = 1;
nodes = (
"166 560 LINE",
"86 560 LINE",
"-26 0 LINE",
"54 0 LINE"
);
}
);
width = 560;
}
);
unicode = 006D;
},
{
glyphname = n;
lastChange = "2019-12-19 14:57:11 +0000";
layers = (
{
anchors = (
{
name = bottom;
position = "{224, 0}";
},
{
name = top;
position = "{336, 560}";
}
);
background = {
paths = (
{
closed = 1;
nodes = (
"80 560 LINE",
"80 0 LINE",
"160 0 LINE",
"160 400 LINE",
"240 400 LINE",
"240 480 LINE",
"160 480 LINE",
"160 560 LINE"
);
},
{
closed = 1;
nodes = (
"240 560 LINE",
"240 480 LINE",
"400 480 LINE",
"400 560 LINE"
);
},
{
closed = 1;
nodes = (
"400 0 LINE",
"480 0 LINE",
"480 480 LINE",
"400 480 LINE"
);
}
);
};
hints = (
{
horizontal = 1;
origin = "{0, 1}";
type = Anchor;
},
{
horizontal = 1;
origin = "{0, 3}";
type = Anchor;
},
{
horizontal = 1;
origin = "{0, 12}";
type = Anchor;
},
{
horizontal = 1;
origin = "{0, 17}";
target = "{0, 8}";
type = TTStem;
options = 4;
}
);
layerId = "83692D61-586C-413E-9B5A-1AF652750951";
paths = (
{
closed = 1;
nodes = (
"216 560 LINE",
"136 560 LINE",
"24 0 LINE",
"104 0 LINE",
"179 371 LINE",
"229 412 LINE SMOOTH",
"289 466 OFFCURVE",
"332 494 OFFCURVE",
"379 494 CURVE SMOOTH",
"428 494 OFFCURVE",
"437 466 OFFCURVE",
"426 410 CURVE SMOOTH",
"344 0 LINE",
"424 0 LINE",
"505 407 LINE SMOOTH",
"526 512 OFFCURVE",
"486 568 OFFCURVE",
"394 568 CURVE SMOOTH",
"326 568 OFFCURVE",
"275 529 OFFCURVE",
"215 475 CURVE SMOOTH",
"194 453 LINE"
);
}
);
width = 560;
}
);
unicode = 006E;
},
{
glyphname = o;
lastChange = "2019-12-19 14:57:11 +0000";
layers = (
{
anchors = (
{
name = bottom;
position = "{224, 0}";
},
{
name = center;
position = "{280, 280}";
},
{
name = ogonek;
position = "{287, 0}";
},
{
name = top;
position = "{336, 560}";
},
{
name = topright;
position = "{596, 560}";
}
);
background = {
paths = (
{
closed = 1;
nodes = (
"402 562 LINE",
"158 562 LINE",
"158 482 LINE",
"78 482 LINE",
"78 78 LINE",
"158 78 LINE",
"158 -2 LINE",
"402 -2 LINE",
"402 78 LINE",
"482 78 LINE",
"482 482 LINE",
"402 482 LINE"
);
},
{
closed = 1;
nodes = (
"398 82 LINE",
"162 82 LINE",
"162 478 LINE",
"398 478 LINE"
);
}
);
};
hints = (
{
horizontal = 1;
origin = "{0, 11}";
target = "{1, 11}";
type = Stem;
},
{
horizontal = 1;
origin = "{0, 5}";
target = "{1, 5}";
type = Stem;
},
{
origin = "{0, 8}";
target = "{1, 2}";
type = Stem;
},
{
origin = "{1, 8}";
target = "{0, 2}";
type = Stem;
},
{
horizontal = 1;
origin = "{0, 11}";
target = "{1, 11}";
type = TTStem;
options = 4;
},
{
horizontal = 1;
origin = "{0, 5}";
target = "{1, 5}";
type = TTStem;
options = 4;
}
);
layerId = "83692D61-586C-413E-9B5A-1AF652750951";
paths = (
{
closed = 1;
nodes = (
"356 -10 OFFCURVE",
"471 107 OFFCURVE",
"505 274 CURVE SMOOTH",
"538 441 OFFCURVE",
"492 570 OFFCURVE",
"332 570 CURVE SMOOTH",
"192 570 OFFCURVE",
"88 450 OFFCURVE",
"55 286 CURVE SMOOTH",
"19 106 OFFCURVE",
"82 -10 OFFCURVE",
"228 -10 CURVE SMOOTH"
);
},
{
closed = 1;
nodes = (
"145 60 OFFCURVE",
"107 134 OFFCURVE",
"135 274 CURVE SMOOTH",
"164 421 OFFCURVE",
"230 500 OFFCURVE",
"330 500 CURVE SMOOTH",
"425 500 OFFCURVE",
"453 423 OFFCURVE",
"425 286 CURVE SMOOTH",
"396 141 OFFCURVE",
"323 60 OFFCURVE",
"230 60 CURVE SMOOTH"
);
}
);
width = 560;
}
);
unicode = 006F;
},
{
glyphname = p;
lastChange = "2019-12-19 14:57:11 +0000";
layers = (
{
anchors = (
{
name = bottom;
position = "{224, 0}";
},
{
name = top;
position = "{336, 560}";
}
);
hints = (
{
horizontal = 1;
origin = "{0, 12}";
target = up;
type = BottomGhost;
},
{
horizontal = 1;
origin = "{0, 17}";
target = "{1, 13}";
type = Stem;
},
{
horizontal = 1;
origin = "{0, 5}";
target = "{1, 7}";
type = Stem;
},
{
horizontal = 1;
origin = "{0, 14}";
target = down;
type = TopGhost;
},
{
horizontal = 1;
origin = "{0, 11}";
target = down;
type = TopGhost;
},
{
origin = "{0, 12}";
target = "{0, 13}";
type = Stem;
},
{
origin = "{1, 10}";
target = "{0, 2}";
type = Stem;
},
{
horizontal = 1;
origin = "{0, 17}";
target = "{1, 13}";
type = TTStem;
options = 4;
},
{
horizontal = 1;
origin = "{0, 5}";
target = "{1, 7}";
type = TTStem;
options = 4;
},
{
horizontal = 1;
origin = "{0, 12}";
type = Anchor;
},
{
horizontal = 1;
origin = "{0, 11}";
type = Anchor;
}
);
layerId = "83692D61-586C-413E-9B5A-1AF652750951";
paths = (
{
closed = 1;
nodes = (
"339 -11 OFFCURVE",
"470 98 OFFCURVE",
"513 313 CURVE SMOOTH",
"545 476 OFFCURVE",
"501 568 OFFCURVE",
"390 568 CURVE SMOOTH",
"326 568 OFFCURVE",
"268 532 OFFCURVE",
"215 478 CURVE SMOOTH",
"194 454 LINE",
"216 560 LINE",
"136 560 LINE",
"-8 -160 LINE",
"72 -160 LINE",
"106 -1 LINE",
"136 -6 OFFCURVE",
"169 -11 OFFCURVE",
"204 -11 CURVE SMOOTH"
);
},
{
closed = 1;
nodes = (
"167 57 OFFCURVE",
"135 60 OFFCURVE",
"114 65 CURVE",
"178 366 LINE",
"228 412 LINE SMOOTH",
"283 468 OFFCURVE",
"326 496 OFFCURVE",
"374 496 CURVE SMOOTH",
"432 496 OFFCURVE",
"456 450 OFFCURVE",
"430 319 CURVE SMOOTH",
"394 142 OFFCURVE",
"308 57 OFFCURVE",
"192 57 CURVE SMOOTH"
);
}
);
width = 560;
}
);
unicode = 0070;
},
{
glyphname = q;
lastChange = "2019-12-19 14:57:11 +0000";
layers = (
{
anchors = (
{
name = bottom;
position = "{224, 0}";
},
{
name = top;
position = "{336, 560}";
}
);
hints = (
{
horizontal = 1;
origin = "{0, 15}";
target = "{1, 13}";
type = TTStem;
options = 4;
},
{
horizontal = 1;
origin = "{0, 5}";
target = "{1, 7}";
type = TTStem;
options = 4;
},
{
horizontal = 1;
origin = "{0, 10}";
type = Anchor;
}
);
layerId = "83692D61-586C-413E-9B5A-1AF652750951";
paths = (
{
closed = 1;
nodes = (
"221 571 OFFCURVE",
"90 462 OFFCURVE",
"47 247 CURVE SMOOTH",
"15 84 OFFCURVE",
"59 -8 OFFCURVE",
"170 -8 CURVE SMOOTH",
"234 -8 OFFCURVE",
"292 28 OFFCURVE",
"345 82 CURVE SMOOTH",
"366 106 LINE",
"312 -160 LINE",
"392 -160 LINE",
"530 541 LINE",
"482 557 OFFCURVE",
"421 571 OFFCURVE",
"356 571 CURVE SMOOTH"
);
},
{
closed = 1;
nodes = (
"393 503 OFFCURVE",
"425 500 OFFCURVE",
"446 495 CURVE",
"382 194 LINE",
"332 148 LINE SMOOTH",
"277 92 OFFCURVE",
"234 64 OFFCURVE",
"186 64 CURVE SMOOTH",
"128 64 OFFCURVE",
"104 110 OFFCURVE",
"130 241 CURVE SMOOTH",
"166 418 OFFCURVE",
"252 503 OFFCURVE",
"368 503 CURVE SMOOTH"
);
}
);
width = 560;
}
);
unicode = 0071;
},
{
glyphname = r;
lastChange = "2019-12-19 14:57:11 +0000";
layers = (
{
anchors = (
{
name = bottom;
position = "{184, 0}";
},
{
name = top;
position = "{296, 560}";
}
);
background = {
paths = (
{
closed = 1;
nodes = (
"80 560 LINE",
"80 480 LINE",
"160 480 LINE",
"160 80 LINE",
"80 80 LINE",
"80 0 LINE",
"400 0 LINE",
"400 80 LINE",
"240 80 LINE",
"240 400 LINE",
"320 400 LINE",
"320 480 LINE",
"240 480 LINE",
"240 560 LINE"
);
},
{
closed = 1;
nodes = (
"320 560 LINE",
"320 480 LINE",
"480 480 LINE",
"480 560 LINE"
);
}
);
};
hints = (
{
horizontal = 1;
origin = "{0, 5}";
type = Anchor;
},
{
horizontal = 1;
origin = "{0, 7}";
type = Anchor;
},
{
horizontal = 1;
origin = "{0, 20}";
target = "{0, 13}";
type = TTStem;
options = 4;
}
);
layerId = "83692D61-586C-413E-9B5A-1AF652750951";
paths = (
{
closed = 1;
nodes = (
"322 568 OFFCURVE",
"265 521 OFFCURVE",
"211 461 CURVE SMOOTH",
"190 435 LINE",
"216 560 LINE",
"136 560 LINE",
"122 490 LINE",
"24 0 LINE",
"104 0 LINE",
"174 347 LINE",
"220 390 LINE SMOOTH",
"276 449 OFFCURVE",
"324 490 OFFCURVE",
"389 490 CURVE SMOOTH",
"407 490 OFFCURVE",
"428 487 OFFCURVE",
"441 484 CURVE",
"465 561 LINE",
"449 564 OFFCURVE",
"428 568 OFFCURVE",
"401 568 CURVE SMOOTH"
);
}
);
width = 480;
},
{
associatedMasterId = "83692D61-586C-413E-9B5A-1AF652750951";
background = {
paths = (
{
closed = 1;
nodes = (
"80 560 LINE",
"80 480 LINE",
"160 480 LINE",
"160 80 LINE",
"80 80 LINE",
"80 0 LINE",
"400 0 LINE",
"400 80 LINE",
"240 80 LINE",
"240 400 LINE",
"320 400 LINE",
"320 480 LINE",
"240 480 LINE",
"240 560 LINE"
);
},
{
closed = 1;
nodes = (
"320 560 LINE",
"320 480 LINE",
"480 480 LINE",
"480 560 LINE"
);
}
);
};
layerId = "C7F7534A-3A19-41A2-981C-0EF916393203";
name = "Jan 4 18, 12:10";
paths = (
{
closed = 1;
nodes = (
"292 568 OFFCURVE",
"243 518 OFFCURVE",
"201 458 CURVE SMOOTH",
"185 435 LINE",
"185 560 LINE",
"45 560 LINE",
"45 500 LINE",
"105 490 LINE",
"105 70 LINE",
"45 60 LINE",
"45 0 LINE",
"325 0 LINE",
"325 60 LINE",
"185 70 LINE",
"185 347 LINE",
"220 393 LINE SMOOTH",
"265 452 OFFCURVE",
"304 490 OFFCURVE",
"366 490 CURVE SMOOTH",
"387 490 OFFCURVE",
"409 486 OFFCURVE",
"423 483 CURVE",
"436 562 LINE",
"420 565 OFFCURVE",
"398 568 OFFCURVE",
"374 568 CURVE SMOOTH"
);
}
);
width = 480;
}
);
rightKerningGroup = r;
unicode = 0072;
},
{
glyphname = s;
lastChange = "2019-12-19 14:57:11 +0000";
layers = (
{
anchors = (
{
name = bottom;
position = "{184, 0}";
},
{
name = top;
position = "{296, 560}";
}
);
background = {
paths = (
{
closed = 1;
nodes = (
"160 560 LINE",
"160 480 LINE",
"400 480 LINE",
"400 560 LINE"
);
},
{
closed = 1;
nodes = (
"80 320 LINE",
"160 320 LINE",
"160 480 LINE",
"80 480 LINE"
);
},
{
closed = 1;
nodes = (
"480 480 LINE",
"400 480 LINE",
"400 400 LINE",
"480 400 LINE"
);
},
{
closed = 1;
nodes = (
"400 240 LINE",
"400 320 LINE",
"160 320 LINE",
"160 240 LINE"
);
},
{
closed = 1;
nodes = (
"480 80 LINE",
"480 240 LINE",
"400 240 LINE",
"400 80 LINE"
);
},
{
closed = 1;
nodes = (
"80 80 LINE",
"160 80 LINE",
"160 160 LINE",
"80 160 LINE"
);
},
{
closed = 1;
nodes = (
"160 80 LINE",
"160 0 LINE",
"400 0 LINE",
"400 80 LINE"
);
}
);
};
hints = (
{
horizontal = 1;
origin = "{0, 31}";
target = "{0, 24}";
type = Stem;
},
{
horizontal = 1;
origin = "{0, 15}";
target = "{0, 8}";
type = Stem;
},
{
origin = "{0, 28}";
target = "{0, 5}";
type = Stem;
},
{
origin = "{0, 21}";
target = "{0, 2}";
type = Stem;
},
{
horizontal = 1;
origin = "{0, 31}";
target = "{0, 24}";
type = TTStem;
options = 4;
},
{
horizontal = 1;
origin = "{0, 15}";
target = "{0, 8}";
type = TTStem;
options = 4;
},
{
horizontal = 1;
origin = "{0, 31}";
target = "{0, 8}";
other1 = "{0, 21, 0}";
type = Interpolate;
options = 4;
},
{
horizontal = 1;
origin = "{0, 24}";
target = "{0, 15}";
other1 = "{0, 5, 0}";
type = Interpolate;
options = 4;
}
);
layerId = "83692D61-586C-413E-9B5A-1AF652750951";
paths = (
{
closed = 1;
nodes = (
"293 -9 OFFCURVE",
"368 64 OFFCURVE",
"384 147 CURVE SMOOTH",
"426 357 OFFCURVE",
"145 296 OFFCURVE",
"170 421 CURVE SMOOTH",
"179 467 OFFCURVE",
"220 502 OFFCURVE",
"300 502 CURVE SMOOTH",
"343 502 OFFCURVE",
"387 490 OFFCURVE",
"418 478 CURVE",
"445 541 LINE",
"412 556 OFFCURVE",
"359 574 OFFCURVE",
"299 574 CURVE SMOOTH",
"179 574 OFFCURVE",
"105 504 OFFCURVE",
"89 427 CURVE SMOOTH",
"50 230 OFFCURVE",
"331 291 OFFCURVE",
"304 154 CURVE SMOOTH",
"292 97 OFFCURVE",
"246 63 OFFCURVE",
"173 63 CURVE SMOOTH",
"123 63 OFFCURVE",
"74 75 OFFCURVE",
"37 89 CURVE",
"12 29 LINE",
"53 8 OFFCURVE",
"110 -9 OFFCURVE",
"175 -9 CURVE SMOOTH"
);
}
);
width = 480;
}
);
unicode = 0073;
},
{
glyphname = germandbls;
lastChange = "2019-12-19 14:57:11 +0000";
layers = (
{
anchors = (
{
name = bottom;
position = "{224, 0}";
},
{
name = top;
position = "{384, 800}";
}
);
background = {
paths = (
{
closed = 1;
nodes = (
"160 720 LINE",
"160 640 LINE",
"320 640 LINE",
"320 720 LINE"
);
},
{
closed = 1;
nodes = (
"80 0 LINE",
"160 0 LINE",
"160 640 LINE",
"80 640 LINE"
);
},
{
closed = 1;
nodes = (
"400 640 LINE",
"320 640 LINE",
"320 400 LINE",
"400 400 LINE"
);
},
{
closed = 1;
nodes = (
"240 320 LINE",
"320 320 LINE",
"320 400 LINE",
"240 400 LINE"
);
},
{
closed = 1;
nodes = (
"320 240 LINE",
"400 240 LINE",
"400 320 LINE",
"320 320 LINE"
);
},
{
closed = 1;
nodes = (
"400 80 LINE",
"480 80 LINE",
"480 240 LINE",
"400 240 LINE"
);
},
{
closed = 1;
nodes = (
"240 0 LINE",
"400 0 LINE",
"400 80 LINE",
"240 80 LINE"
);
}
);
};
hints = (
{
horizontal = 1;
origin = "{0, 39}";
target = up;
type = BottomGhost;
},
{
horizontal = 1;
origin = "{0, 35}";
target = "{0, 4}";
type = Stem;
},
{
horizontal = 1;
origin = "{0, 23}";
target = "{0, 16}";
type = Stem;
},
{
origin = "{0, 39}";
target = "{0, 0}";
type = Stem;
},
{
origin = "{0, 10}";
target = "{0, 29}";
type = Stem;
},
{
origin = "{0, 7}";
target = "{0, 32}";
type = Stem;
},
{
origin = "{0, 13}";
target = "{0, 26}";
type = Stem;
},
{
horizontal = 1;
origin = "{0, 35}";
target = "{0, 4}";
type = TTStem;
options = 4;
},
{
horizontal = 1;
origin = "{0, 23}";
target = "{0, 16}";
type = TTStem;
options = 4;
},
{
horizontal = 1;
origin = "{0, 39}";
type = Anchor;
},
{
horizontal = 1;
origin = "{0, 4}";
target = "{0, 23}";
other1 = "{0, 13, 0}";
type = Interpolate;
options = 4;
},
{
horizontal = 1;
origin = "{0, 4}";
target = "{0, 23}";
other1 = "{0, 32, 0}";
type = Interpolate;
options = 4;
},
{
horizontal = 1;
origin = "{0, 35}";
target = "{0, 16}";
other1 = "{0, 10, 0}";
type = Interpolate;
options = 4;
},
{
horizontal = 1;
origin = "{0, 35}";
target = "{0, 16}";
other1 = "{0, 29, 0}";
type = Interpolate;
options = 4;
}
);
layerId = "83692D61-586C-413E-9B5A-1AF652750951";
paths = (
{
closed = 1;
nodes = (
"104 0 LINE",
"226 610 LINE SMOOTH",
"243 693 OFFCURVE",
"289 740 OFFCURVE",
"358 740 CURVE SMOOTH",
"426 740 OFFCURVE",
"445 698 OFFCURVE",
"431 630 CURVE SMOOTH",
"404 496 OFFCURVE",
"282 490 OFFCURVE",
"261 387 CURVE SMOOTH",
"230 229 OFFCURVE",
"433 269 OFFCURVE",
"410 157 CURVE SMOOTH",
"400 107 OFFCURVE",
"353 58 OFFCURVE",
"277 58 CURVE SMOOTH",
"251 58 OFFCURVE",
"230 63 OFFCURVE",
"205 73 CURVE",
"178 19 LINE",
"210 3 OFFCURVE",
"241 -10 OFFCURVE",
"288 -10 CURVE SMOOTH",
"398 -10 OFFCURVE",
"475 67 OFFCURVE",
"490 142 CURVE SMOOTH",
"524 308 OFFCURVE",
"323 296 OFFCURVE",
"339 375 CURVE SMOOTH",
"352 442 OFFCURVE",
"487 499 OFFCURVE",
"512 627 CURVE SMOOTH",
"535 742 OFFCURVE",
"475 810 OFFCURVE",
"363 810 CURVE SMOOTH",
"257 810 OFFCURVE",
"173 743 OFFCURVE",
"147 615 CURVE SMOOTH",
"24 0 LINE"
);
}
);
width = 560;
},
{
anchors = (
{
name = bottom;
position = "{280, 0}";
},
{
name = top;
position = "{280, 560}";
}
);
associatedMasterId = "83692D61-586C-413E-9B5A-1AF652750951";
background = {
paths = (
{
closed = 1;
nodes = (
"160 720 LINE",
"160 640 LINE",
"320 640 LINE",
"320 720 LINE"
);
},
{
closed = 1;
nodes = (
"80 0 LINE",
"160 0 LINE",
"160 640 LINE",
"80 640 LINE"
);
},
{
closed = 1;
nodes = (
"400 640 LINE",
"320 640 LINE",
"320 400 LINE",
"400 400 LINE"
);
},
{
closed = 1;
nodes = (
"240 320 LINE",
"320 320 LINE",
"320 400 LINE",
"240 400 LINE"
);
},
{
closed = 1;
nodes = (
"320 240 LINE",
"400 240 LINE",
"400 320 LINE",
"320 320 LINE"
);
},
{
closed = 1;
nodes = (
"400 80 LINE",
"480 80 LINE",
"480 240 LINE",
"400 240 LINE"
);
},
{
closed = 1;
nodes = (
"240 0 LINE",
"400 0 LINE",
"400 80 LINE",
"240 80 LINE"
);
}
);
};
layerId = "3B98D931-674E-46C7-8A98-BD5F9F9D3E00";
name = "May 23 18, 14:38";
paths = (
{
closed = 1;
nodes = (
"160 0 LINE",
"160 613 LINE SMOOTH",
"160 696 OFFCURVE",
"194 740 OFFCURVE",
"260 740 CURVE SMOOTH",
"332 740 OFFCURVE",
"361 684 OFFCURVE",
"361 621 CURVE SMOOTH",
"361 524 OFFCURVE",
"301 469 OFFCURVE",
"240 402 CURVE",
"348 345 OFFCURVE",
"435 292 OFFCURVE",
"435 179 CURVE SMOOTH",
"435 104 OFFCURVE",
"400 58 OFFCURVE",
"327 58 CURVE SMOOTH",
"298 58 OFFCURVE",
"276 64 OFFCURVE",
"249 74 CURVE",
"228 18 LINE",
"263 2 OFFCURVE",
"296 -10 OFFCURVE",
"340 -10 CURVE SMOOTH",
"453 -10 OFFCURVE",
"518 70 OFFCURVE",
"518 174 CURVE SMOOTH",
"518 311 OFFCURVE",
"413 383 OFFCURVE",
"339 418 CURVE",
"384 458 OFFCURVE",
"443 523 OFFCURVE",
"443 625 CURVE SMOOTH",
"443 736 OFFCURVE",
"365 810 OFFCURVE",
"263 810 CURVE SMOOTH",
"154 810 OFFCURVE",
"80 740 OFFCURVE",
"80 612 CURVE SMOOTH",
"80 0 LINE"
);
}
);
width = 560;
}
);
unicode = 00DF;
},
{
glyphname = t;
lastChange = "2019-12-19 14:57:11 +0000";
layers = (
{
anchors = (
{
name = bottom;
position = "{184, 0}";
},
{
name = center;
position = "{240, 280}";
},
{
name = top;
position = "{266, 712}";
},
{
name = topright;
position = "{516, 560}";
}
);
hints = (
{
horizontal = 1;
origin = "{0, 16}";
type = Anchor;
},
{
horizontal = 1;
origin = "{0, 23}";
target = "{0, 6}";
type = TTStem;
options = 4;
},
{
horizontal = 1;
origin = "{0, 13}";
target = "{0, 10}";
type = TTStem;
options = 4;
},
{
horizontal = 1;
origin = "{0, 16}";
target = "{0, 13}";
type = Align;
options = 4;
},
{
horizontal = 1;
origin = "{0, 10}";
target = "{0, 19}";
type = Align;
options = 4;
}
);
layerId = "83692D61-586C-413E-9B5A-1AF652750951";
paths = (
{
closed = 1;
nodes = (
"284 -10 OFFCURVE",
"329 0 OFFCURVE",
"366 11 CURVE",
"360 79 LINE",
"328 71 OFFCURVE",
"294 64 OFFCURVE",
"262 64 CURVE SMOOTH",
"199 64 OFFCURVE",
"182 88 OFFCURVE",
"194 150 CURVE SMOOTH",
"262 488 LINE",
"454 488 LINE",
"468 560 LINE",
"276 560 LINE",
"306 712 LINE",
"226 712 LINE",
"196 560 LINE",
"76 560 LINE",
"62 488 LINE",
"182 488 LINE",
"114 151 LINE SMOOTH",
"92 42 OFFCURVE",
"140 -10 OFFCURVE",
"240 -10 CURVE SMOOTH"
);
}
);
width = 480;
}
);
unicode = 0074;
},
{
glyphname = u;
lastChange = "2019-12-19 14:57:11 +0000";
layers = (
{
anchors = (
{
name = bottom;
position = "{224, 0}";
},
{
name = ogonek;
position = "{424, 0}";
},
{
name = top;
position = "{336, 560}";
},
{
name = topright;
position = "{536, 560}";
}
);
hints = (
{
horizontal = 1;
origin = "{0, 16}";
type = Anchor;
},
{
horizontal = 1;
origin = "{0, 7}";
type = Anchor;
},
{
horizontal = 1;
origin = "{0, 4}";
type = Anchor;
},
{
horizontal = 1;
origin = "{0, 21}";
target = "{0, 12}";
type = TTStem;
options = 4;
}
);
layerId = "83692D61-586C-413E-9B5A-1AF652750951";
paths = (
{
closed = 1;
nodes = (
"234 -8 OFFCURVE",
"285 31 OFFCURVE",
"345 85 CURVE SMOOTH",
"366 107 LINE",
"344 0 LINE",
"424 0 LINE",
"536 560 LINE",
"456 560 LINE",
"381 189 LINE",
"331 148 LINE SMOOTH",
"271 94 OFFCURVE",
"228 66 OFFCURVE",
"181 66 CURVE SMOOTH",
"132 66 OFFCURVE",
"123 94 OFFCURVE",
"134 150 CURVE SMOOTH",
"216 560 LINE",
"136 560 LINE",
"55 153 LINE SMOOTH",
"34 48 OFFCURVE",
"74 -8 OFFCURVE",
"166 -8 CURVE SMOOTH"
);
}
);
width = 560;
}
);
unicode = 0075;
},
{
glyphname = v;
lastChange = "2019-12-19 14:57:11 +0000";
layers = (
{
anchors = (
{
name = bottom;
position = "{224, 0}";
},
{
name = top;
position = "{336, 560}";
}
);
hints = (
{
horizontal = 1;
origin = "{0, 1}";
type = Anchor;
},
{
horizontal = 1;
origin = "{0, 6}";
type = Anchor;
},
{
horizontal = 1;
origin = "{0, 3}";
type = Anchor;
},
{
horizontal = 1;
origin = "{0, 3}";
target = "{0, 1, 0, 7}";
type = Align;
options = 4;
}
);
layerId = "83692D61-586C-413E-9B5A-1AF652750951";
paths = (
{
closed = 1;
nodes = (
"243 70 LINE",
"185 560 LINE",
"100 560 LINE",
"175 0 LINE",
"258 0 LINE",
"561 560 LINE",
"481 560 LINE",
"217 70 LINE"
);
}
);
width = 560;
}
);
unicode = 0076;
},
{
glyphname = w;
lastChange = "2019-12-19 14:57:11 +0000";
layers = (
{
anchors = (
{
name = bottom;
position = "{304, 0}";
},
{
name = top;
position = "{416, 560}";
}
);
background = {
paths = (
{
closed = 1;
nodes = (
"640 80 LINE",
"640 560 LINE",
"560 560 LINE",
"560 80 LINE"
);
},
{
closed = 1;
nodes = (
"320 0 LINE",
"320 80 LINE",
"160 80 LINE",
"160 0 LINE"
);
},
{
closed = 1;
nodes = (
"160 80 LINE",
"160 560 LINE",
"80 560 LINE",
"80 80 LINE"
);
},
{
closed = 1;
nodes = (
"560 0 LINE",
"560 80 LINE",
"400 80 LINE",
"400 0 LINE"
);
},
{
closed = 1;
nodes = (
"400 80 LINE",
"400 560 LINE",
"320 560 LINE",
"320 80 LINE"
);
}
);
};
hints = (
{
horizontal = 1;
origin = "{0, 1}";
type = Anchor;
},
{
horizontal = 1;
origin = "{0, 6}";
type = Anchor;
},
{
horizontal = 1;
origin = "{1, 6}";
type = Anchor;
},
{
horizontal = 1;
origin = "{0, 3}";
type = Anchor;
},
{
horizontal = 1;
origin = "{1, 3}";
type = Anchor;
},
{
horizontal = 1;
origin = "{0, 3}";
target = "{0, 1, 0, 7}";
type = Align;
options = 4;
},
{
horizontal = 1;
origin = "{0, 1, 0, 7}";
target = "{1, 1, 1, 7}";
type = Align;
options = 4;
},
{
horizontal = 1;
origin = "{0, 6}";
target = "{0, 5, 1, 3}";
type = Align;
options = 4;
}
);
layerId = "83692D61-586C-413E-9B5A-1AF652750951";
paths = (
{
closed = 1;
nodes = (
"187 70 LINE",
"159 560 LINE",
"74 560 LINE",
"119 0 LINE",
"202 0 LINE",
"453 560 LINE",
"375 560 LINE",
"161 70 LINE"
);
},
{
closed = 1;
nodes = (
"480 70 LINE",
"462 560 LINE",
"385 560 LINE",
"412 0 LINE",
"495 0 LINE",
"760 560 LINE",
"680 560 LINE",
"454 70 LINE"
);
}
);
width = 720;
}
);
unicode = 0077;
},
{
glyphname = x;
lastChange = "2019-12-19 14:57:11 +0000";
layers = (
{
anchors = (
{
name = bottom;
position = "{224, 0}";
},
{
name = top;
position = "{336, 560}";
}
);
background = {
paths = (
{
closed = 1;
nodes = (
"80 560 LINE",
"80 400 LINE",
"160 400 LINE",
"160 560 LINE"
);
},
{
closed = 1;
nodes = (
"400 400 LINE",
"480 400 LINE",
"480 560 LINE",
"400 560 LINE"
);
},
{
closed = 1;
nodes = (
"160 320 LINE",
"240 320 LINE",
"240 400 LINE",
"160 400 LINE"
);
},
{
closed = 1;
nodes = (
"400 320 LINE",
"400 400 LINE",
"320 400 LINE",
"320 320 LINE"
);
},
{
closed = 1;
nodes = (
"320 240 LINE",
"320 320 LINE",
"240 320 LINE",
"240 240 LINE"
);
},
{
closed = 1;
nodes = (
"240 160 LINE",
"240 240 LINE",
"160 240 LINE",
"160 160 LINE"
);
},
{
closed = 1;
nodes = (
"400 240 LINE",
"320 240 LINE",
"320 160 LINE",
"400 160 LINE"
);
},
{
closed = 1;
nodes = (
"80 0 LINE",
"160 0 LINE",
"160 160 LINE",
"80 160 LINE"
);
},
{
closed = 1;
nodes = (
"480 0 LINE",
"480 160 LINE",
"400 160 LINE",
"400 0 LINE"
);
}
);
};
hints = (
{
horizontal = 1;
origin = "{0, 2}";
type = Anchor;
},
{
horizontal = 1;
origin = "{2, 2}";
type = Anchor;
},
{
horizontal = 1;
origin = "{0, 0}";
type = Anchor;
},
{
horizontal = 1;
origin = "{1, 2}";
type = Anchor;
},
{
horizontal = 1;
origin = "{0, 2}";
target = "{1, 2}";
other1 = "{0, 0, 1, 3}";
type = Interpolate;
options = 4;
},
{
horizontal = 1;
origin = "{0, 2}";
target = "{1, 2}";
other1 = "{0, 2, 2, 3}";
type = Interpolate;
options = 4;
}
);
layerId = "83692D61-586C-413E-9B5A-1AF652750951";
paths = (
{
closed = 1;
nodes = (
"354 0 LINE",
"444 0 LINE",
"211 560 LINE",
"121 560 LINE"
);
},
{
closed = 1;
nodes = (
"250 308 LINE",
"4 0 LINE",
"90 0 LINE",
"286 251 LINE"
);
},
{
closed = 1;
nodes = (
"305 251 LINE",
"554 560 LINE",
"468 560 LINE",
"270 308 LINE"
);
}
);
width = 560;
}
);
unicode = 0078;
},
{
glyphname = y;
lastChange = "2019-12-19 14:57:11 +0000";
layers = (
{
anchors = (
{
name = bottom;
position = "{224, 0}";
},
{
name = top;
position = "{336, 560}";
}
);
background = {
paths = (
{
closed = 1;
nodes = (
"160 560 LINE",
"80 560 LINE",
"80 320 LINE",
"160 320 LINE"
);
},
{
closed = 1;
nodes = (
"400 320 LINE",
"480 320 LINE",
"480 560 LINE",
"400 560 LINE"
);
},
{
closed = 1;
nodes = (
"240 320 LINE",
"160 320 LINE",
"160 80 LINE",
"240 80 LINE"
);
},
{
closed = 1;
nodes = (
"320 80 LINE",
"400 80 LINE",
"400 320 LINE",
"320 320 LINE"
);
},
{
closed = 1;
nodes = (
"240 -80 LINE",
"320 -80 LINE",
"320 80 LINE",
"240 80 LINE"
);
},
{
closed = 1;
nodes = (
"80 -160 LINE",
"240 -160 LINE",
"240 -80 LINE",
"80 -80 LINE"
);
}
);
};
hints = (
{
horizontal = 1;
origin = "{0, 1}";
type = Anchor;
},
{
horizontal = 1;
origin = "{0, 18}";
type = Anchor;
},
{
horizontal = 1;
origin = "{0, 13}";
target = "{0, 8}";
type = TTStem;
options = 4;
}
);
layerId = "83692D61-586C-413E-9B5A-1AF652750951";
paths = (
{
closed = 1;
nodes = (
"241 70 LINE",
"185 560 LINE",
"100 560 LINE",
"177 -18 LINE",
"179 0 LINE",
"161 -30 LINE SMOOTH",
"138 -74 OFFCURVE",
"113 -90 OFFCURVE",
"69 -90 CURVE SMOOTH",
"6 -90 LINE",
"-3 -149 LINE",
"18 -154 OFFCURVE",
"47 -160 OFFCURVE",
"76 -160 CURVE SMOOTH",
"142 -160 OFFCURVE",
"181 -144 OFFCURVE",
"229 -56 CURVE SMOOTH",
"561 560 LINE",
"481 560 LINE",
"217 70 LINE"
);
}
);
width = 560;
}
);
unicode = 0079;
},
{
glyphname = z;
lastChange = "2019-12-19 14:57:11 +0000";
layers = (
{
anchors = (
{
name = bottom;
position = "{184, 0}";
},
{
name = top;
position = "{296, 560}";
}
);
background = {
components = (
{
name = s;
}
);
};
hints = (
{
horizontal = 1;
origin = "{0, 11}";
target = "{0, 2, 0, 4}";
type = TTStem;
options = 4;
},
{
horizontal = 1;
origin = "{0, 5}";
target = "{0, 8, 0, 10}";
type = TTStem;
options = 4;
},
{
horizontal = 1;
origin = "{0, 8, 0, 10}";
target = "{0, 4}";
type = Align;
options = 4;
},
{
horizontal = 1;
origin = "{0, 2, 0, 4}";
target = "{0, 10}";
type = Align;
options = 4;
}
);
layerId = "83692D61-586C-413E-9B5A-1AF652750951";
paths = (
{
closed = 1;
nodes = (
"362 0 LINE",
"376 72 LINE",
"84 72 LINE",
"108 60 LINE",
"459 500 LINE",
"470 560 LINE",
"124 560 LINE",
"110 488 LINE",
"417 488 LINE",
"369 500 LINE",
"17 60 LINE",
"6 0 LINE"
);
}
);
width = 480;
}
);
unicode = 007A;
},
{
color = 3;
export = 0;
glyphname = c.prop;
lastChange = "2019-12-19 14:57:11 +0000";
layers = (
{
anchors = (
{
name = bottom;
position = "{194, 0}";
},
{
name = top;
position = "{306, 560}";
}
);
background = {
paths = (
{
closed = 1;
nodes = (
"460 273 LINE",
"484 446 OFFCURVE",
"417 568 OFFCURVE",
"277 568 CURVE SMOOTH",
"152 568 OFFCURVE",
"60 474 OFFCURVE",
"60 280 CURVE SMOOTH",
"60 72 OFFCURVE",
"160 -10 OFFCURVE",
"298 -10 CURVE SMOOTH",
"356 -10 OFFCURVE",
"407 6 OFFCURVE",
"453 25 CURVE",
"433 90 LINE",
"396 76 OFFCURVE",
"352 62 OFFCURVE",
"303 62 CURVE SMOOTH",
"194 62 OFFCURVE",
"142 134 OFFCURVE",
"142 280 CURVE SMOOTH",
"142 412 OFFCURVE",
"179 498 OFFCURVE",
"273 498 CURVE SMOOTH",
"352 498 OFFCURVE",
"386 433 OFFCURVE",
"384 343 CURVE"
);
}
);
};
hints = (
{
horizontal = 1;
origin = "{0, 3}";
target = "{0, 22}";
type = TTStem;
options = 4;
},
{
horizontal = 1;
origin = "{0, 9}";
target = "{0, 16}";
type = TTStem;
options = 4;
}
);
layerId = "83692D61-586C-413E-9B5A-1AF652750951";
paths = (
{
closed = 1;
nodes = (
"484 512 LINE",
"449 539 OFFCURVE",
"395 568 OFFCURVE",
"323 568 CURVE SMOOTH",
"200 568 OFFCURVE",
"99 477 OFFCURVE",
"61 286 CURVE SMOOTH",
"19 75 OFFCURVE",
"97 -10 OFFCURVE",
"228 -10 CURVE SMOOTH",
"280 -10 OFFCURVE",
"329 4 OFFCURVE",
"378 25 CURVE",
"364 90 LINE",
"326 76 OFFCURVE",
"287 62 OFFCURVE",
"239 62 CURVE SMOOTH",
"142 62 OFFCURVE",
"112 131 OFFCURVE",
"141 274 CURVE SMOOTH",
"168 409 OFFCURVE",
"220 496 OFFCURVE",
"319 496 CURVE SMOOTH",
"370 496 OFFCURVE",
"409 477 OFFCURVE",
"442 454 CURVE"
);
}
);
width = 500;
}
);
},
{
color = 3;
export = 0;
glyphname = idotless.prop;
lastChange = "2019-12-19 14:57:11 +0000";
layers = (
{
anchors = (
{
name = bottom;
position = "{184, 0}";
},
{
name = ogonek;
position = "{368, 0}";
},
{
name = top;
position = "{295, 560}";
}
);
background = {
paths = (
{
closed = 1;
nodes = (
"282 661 OFFCURVE",
"316 695 OFFCURVE",
"316 737 CURVE SMOOTH",
"316 781 OFFCURVE",
"284 814 OFFCURVE",
"240 814 CURVE SMOOTH",
"196 814 OFFCURVE",
"163 780 OFFCURVE",
"163 737 CURVE SMOOTH",
"163 692 OFFCURVE",
"195 661 OFFCURVE",
"238 661 CURVE SMOOTH"
);
}
);
};
hints = (
{
horizontal = 1;
origin = "{0, 8}";
target = "{0, 6}";
type = TTStem;
options = 4;
},
{
horizontal = 1;
origin = "{0, 6}";
target = "{0, 0}";
type = Align;
options = 4;
},
{
horizontal = 1;
origin = "{0, 2}";
target = "{0, 5}";
type = TTStem;
options = 4;
}
);
layerId = "83692D61-586C-413E-9B5A-1AF652750951";
paths = (
{
closed = 1;
nodes = (
"242 70 LINE",
"341 566 LINE",
"305 566 LINE",
"129 556 LINE",
"117 496 LINE",
"247 496 LINE",
"162 70 LINE",
"20 60 LINE",
"8 0 LINE",
"368 0 LINE",
"380 60 LINE"
);
}
);
width = 480;
}
);
},
{
color = 3;
export = 0;
glyphname = m.prop;
lastChange = "2019-12-19 14:57:11 +0000";
layers = (
{
anchors = (
{
name = bottom;
position = "{304, 0}";
},
{
name = top;
position = "{416, 560}";
}
);
background = {
paths = (
{
closed = 1;
nodes = (
"427 414 LINE SMOOTH",
"460 468 OFFCURVE",
"484 494 OFFCURVE",
"514 494 CURVE SMOOTH",
"548 494 OFFCURVE",
"560 463 OFFCURVE",
"560 407 CURVE SMOOTH",
"560 0 LINE",
"640 0 LINE",
"640 410 LINE SMOOTH",
"640 515 OFFCURVE",
"602 568 OFFCURVE",
"533 568 CURVE SMOOTH",
"478 568 OFFCURVE",
"444 527 OFFCURVE",
"405 473 CURVE SMOOTH",
"362 414 LINE",
"400 371 LINE"
);
}
);
};
hints = (
{
horizontal = 1;
origin = "{0, 17}";
target = "{0, 8}";
type = TTStem;
options = 4;
},
{
horizontal = 1;
origin = "{1, 12}";
target = "{1, 3}";
type = TTStem;
options = 4;
},
{
horizontal = 1;
origin = "{0, 3}";
type = Anchor;
},
{
horizontal = 1;
origin = "{0, 12}";
type = Anchor;
},
{
horizontal = 1;
origin = "{1, 7}";
type = Anchor;
},
{
horizontal = 1;
origin = "{0, 0}";
type = Anchor;
}
);
layerId = "83692D61-586C-413E-9B5A-1AF652750951";
paths = (
{
closed = 1;
nodes = (
"216 560 LINE",
"136 560 LINE",
"24 0 LINE",
"104 0 LINE",
"177 359 LINE",
"214 407 LINE SMOOTH",
"252 462 OFFCURVE",
"284 494 OFFCURVE",
"319 494 CURVE SMOOTH",
"348 494 OFFCURVE",
"359 475 OFFCURVE",
"347 417 CURVE SMOOTH",
"264 0 LINE",
"344 0 LINE",
"427 414 LINE SMOOTH",
"446 512 OFFCURVE",
"418 568 OFFCURVE",
"345 568 CURVE SMOOTH",
"295 568 OFFCURVE",
"254 535 OFFCURVE",
"209 478 CURVE SMOOTH",
"194 456 LINE"
);
},
{
closed = 1;
nodes = (
"454 407 LINE SMOOTH",
"492 462 OFFCURVE",
"524 494 OFFCURVE",
"559 494 CURVE SMOOTH",
"588 494 OFFCURVE",
"599 475 OFFCURVE",
"587 416 CURVE SMOOTH",
"504 0 LINE",
"584 0 LINE",
"667 413 LINE SMOOTH",
"686 512 OFFCURVE",
"658 568 OFFCURVE",
"585 568 CURVE SMOOTH",
"535 568 OFFCURVE",
"492 538 OFFCURVE",
"445 478 CURVE SMOOTH",
"377 386 LINE",
"417 359 LINE"
);
}
);
width = 720;
}
);
},
{
color = 3;
export = 0;
glyphname = x.prop;
lastChange = "2019-12-19 14:57:11 +0000";
layers = (
{
background = {
paths = (
{
closed = 1;
nodes = (
"80 560 LINE",
"80 400 LINE",
"160 400 LINE",
"160 560 LINE"
);
},
{
closed = 1;
nodes = (
"400 400 LINE",
"480 400 LINE",
"480 560 LINE",
"400 560 LINE"
);
},
{
closed = 1;
nodes = (
"160 320 LINE",
"240 320 LINE",
"240 400 LINE",
"160 400 LINE"
);
},
{
closed = 1;
nodes = (
"400 320 LINE",
"400 400 LINE",
"320 400 LINE",
"320 320 LINE"
);
},
{
closed = 1;
nodes = (
"320 240 LINE",
"320 320 LINE",
"240 320 LINE",
"240 240 LINE"
);
},
{
closed = 1;
nodes = (
"240 160 LINE",
"240 240 LINE",
"160 240 LINE",
"160 160 LINE"
);
},
{
closed = 1;
nodes = (
"400 240 LINE",
"320 240 LINE",
"320 160 LINE",
"400 160 LINE"
);
},
{
closed = 1;
nodes = (
"80 0 LINE",
"160 0 LINE",
"160 160 LINE",
"80 160 LINE"
);
},
{
closed = 1;
nodes = (
"480 0 LINE",
"480 160 LINE",
"400 160 LINE",
"400 0 LINE"
);
}
);
};
components = (
{
alignment = -1;
name = x;
transform = "{1, 0, 0, 1, -20, 0}";
}
);
layerId = "83692D61-586C-413E-9B5A-1AF652750951";
width = 520;
}
);
},
{
glyphname = zero;
lastChange = "2019-12-19 14:57:11 +0000";
layers = (
{
background = {
paths = (
{
closed = 1;
nodes = (
"241 240 LINE",
"321 240 LINE",
"321 400 LINE",
"241 400 LINE"
);
}
);
};
hints = (
{
horizontal = 1;
origin = "{0, 5}";
target = "{1, 5}";
type = TTStem;
options = 4;
},
{
horizontal = 1;
origin = "{0, 11}";
target = "{1, 11}";
type = TTStem;
options = 4;
}
);
layerId = "83692D61-586C-413E-9B5A-1AF652750951";
paths = (
{
closed = 1;
nodes = (
"356 -10 OFFCURVE",
"475 124 OFFCURVE",
"513 314 CURVE SMOOTH",
"554 518 OFFCURVE",
"506 650 OFFCURVE",
"348 650 CURVE SMOOTH",
"208 650 OFFCURVE",
"101 513 OFFCURVE",
"63 326 CURVE SMOOTH",
"22 122 OFFCURVE",
"82 -10 OFFCURVE",
"228 -10 CURVE SMOOTH"
);
},
{
closed = 1;
nodes = (
"146 60 OFFCURVE",
"112 148 OFFCURVE",
"145 314 CURVE SMOOTH",
"179 487 OFFCURVE",
"247 580 OFFCURVE",
"346 580 CURVE SMOOTH",
"441 580 OFFCURVE",
"465 497 OFFCURVE",
"431 326 CURVE SMOOTH",
"397 155 OFFCURVE",
"322 60 OFFCURVE",
"230 60 CURVE SMOOTH"
);
}
);
width = 560;
}
);
unicode = 0030;
},
{
glyphname = one;
lastChange = "2019-12-19 14:57:11 +0000";
layers = (
{
hints = (
{
horizontal = 1;
origin = "{0, 8}";
target = "{0, 6}";
type = TTStem;
options = 4;
},
{
horizontal = 1;
origin = "{0, 6}";
target = "{0, 0}";
type = Align;
options = 4;
},
{
horizontal = 1;
origin = "{0, 2}";
target = "{0, 5}";
type = Align;
options = 4;
}
);
layerId = "83692D61-586C-413E-9B5A-1AF652750951";
paths = (
{
closed = 1;
nodes = (
"290 70 LINE",
"406 652 LINE",
"358 652 LINE",
"142 589 LINE",
"144 521 LINE",
"310 567 LINE",
"210 70 LINE",
"48 60 LINE",
"36 0 LINE",
"436 0 LINE",
"448 60 LINE"
);
}
);
width = 560;
}
);
unicode = 0031;
},
{
glyphname = two;
lastChange = "2019-12-19 14:57:11 +0000";
layers = (
{
background = {
paths = (
{
closed = 1;
nodes = (
"478 0 LINE",
"478 80 LINE",
"146 80 LINE",
"178 71 LINE",
"414 246 OFFCURVE",
"464 345 OFFCURVE",
"464 453 CURVE SMOOTH",
"464 575 OFFCURVE",
"391 652 OFFCURVE",
"268 652 CURVE SMOOTH",
"187 652 OFFCURVE",
"126 618 OFFCURVE",
"69 570 CURVE",
"109 514 LINE",
"147 543 OFFCURVE",
"203 580 OFFCURVE",
"262 580 CURVE SMOOTH",
"333 580 OFFCURVE",
"380 539 OFFCURVE",
"380 448 CURVE SMOOTH",
"380 338 OFFCURVE",
"295 235 OFFCURVE",
"78 71 CURVE",
"78 0 LINE"
);
}
);
};
hints = (
{
horizontal = 1;
origin = "{0, 23}";
target = "{0, 2, 0, 6}";
type = TTStem;
options = 4;
},
{
horizontal = 1;
origin = "{0, 2, 0, 6}";
target = "{0, 22}";
type = Align;
options = 4;
},
{
horizontal = 1;
origin = "{0, 9}";
target = "{0, 16}";
type = TTStem;
options = 4;
}
);
layerId = "83692D61-586C-413E-9B5A-1AF652750951";
paths = (
{
closed = 1;
nodes = (
"422 0 LINE",
"436 72 LINE",
"103 72 LINE",
"65 29 LINE",
"378 203 OFFCURVE",
"476 332 OFFCURVE",
"499 446 CURVE SMOOTH",
"524 568 OFFCURVE",
"463 652 OFFCURVE",
"334 652 CURVE SMOOTH",
"259 652 OFFCURVE",
"192 620 OFFCURVE",
"125 572 CURVE",
"159 512 LINE",
"201 541 OFFCURVE",
"266 580 OFFCURVE",
"328 580 CURVE SMOOTH",
"400 580 OFFCURVE",
"431 536 OFFCURVE",
"414 452 CURVE SMOOTH",
"391 333 OFFCURVE",
"284 237 OFFCURVE",
"34 73 CURVE",
"22 0 LINE"
);
}
);
width = 560;
}
);
unicode = 0032;
},
{
glyphname = three;
lastChange = "2019-12-19 14:57:11 +0000";
layers = (
{
background = {
paths = (
{
closed = 1;
nodes = (
"400 560 LINE",
"400 640 LINE",
"160 640 LINE",
"160 560 LINE"
);
},
{
closed = 1;
nodes = (
"320 -160 LINE",
"320 -80 LINE",
"80 -80 LINE",
"80 -160 LINE"
);
},
{
closed = 1;
nodes = (
"400 -80 LINE",
"400 0 LINE",
"320 0 LINE",
"320 -80 LINE"
);
},
{
closed = 1;
nodes = (
"320 240 LINE",
"320 320 LINE",
"160 320 LINE",
"160 240 LINE"
);
},
{
closed = 1;
nodes = (
"480 0 LINE",
"480 160 LINE",
"400 160 LINE",
"400 0 LINE"
);
},
{
closed = 1;
nodes = (
"400 160 LINE",
"400 240 LINE",
"320 240 LINE",
"320 160 LINE"
);
},
{
closed = 1;
nodes = (
"160 480 LINE",
"160 560 LINE",
"80 560 LINE",
"80 480 LINE"
);
},
{
closed = 1;
nodes = (
"400 320 LINE",
"400 400 LINE",
"320 400 LINE",
"320 320 LINE"
);
},
{
closed = 1;
nodes = (
"480 400 LINE",
"480 560 LINE",
"400 560 LINE",
"400 400 LINE"
);
}
);
};
hints = (
{
horizontal = 1;
origin = "{0, 37}";
target = "{0, 36}";
type = TTStem;
options = 4;
},
{
horizontal = 1;
origin = "{0, 14}";
target = "{0, 21}";
type = TTStem;
options = 4;
},
{
horizontal = 1;
origin = "{0, 37}";
target = "{0, 14}";
other1 = "{0, 30}";
type = Interpolate;
},
{
horizontal = 1;
origin = "{0, 30}";
target = "{0, 27}";
type = TTStem;
options = 4;
},
{
horizontal = 1;
origin = "{0, 30}";
target = "{0, 27}";
other1 = "{0, 5, 0, 11}";
type = Interpolate;
options = 4;
}
);
layerId = "83692D61-586C-413E-9B5A-1AF652750951";
paths = (
{
closed = 1;
nodes = (
"275 -135 OFFCURVE",
"415 -31 OFFCURVE",
"441 102 CURVE SMOOTH",
"464 213 OFFCURVE",
"399 296 OFFCURVE",
"203 296 CURVE SMOOTH",
"161 296 LINE",
"156 268 LINE",
"173 268 LINE SMOOTH",
"363 268 OFFCURVE",
"476 360 OFFCURVE",
"499 475 CURVE SMOOTH",
"519 575 OFFCURVE",
"457 652 OFFCURVE",
"339 652 CURVE SMOOTH",
"237 652 OFFCURVE",
"162 595 OFFCURVE",
"104 537 CURVE",
"146 488 LINE",
"194 532 OFFCURVE",
"255 582 OFFCURVE",
"329 582 CURVE SMOOTH",
"397 582 OFFCURVE",
"426 538 OFFCURVE",
"412 472 CURVE SMOOTH",
"398 398 OFFCURVE",
"337 312 OFFCURVE",
"177 312 CURVE SMOOTH",
"154 312 LINE",
"140 240 LINE",
"198 240 LINE SMOOTH",
"334 240 OFFCURVE",
"372 184 OFFCURVE",
"357 112 CURVE SMOOTH",
"334 -5 OFFCURVE",
"217 -72 OFFCURVE",
"-9 -105 CURVE",
"-6 -170 LINE"
);
}
);
width = 560;
},
{
associatedMasterId = "83692D61-586C-413E-9B5A-1AF652750951";
background = {
paths = (
{
closed = 1;
nodes = (
"400 560 LINE",
"400 640 LINE",
"160 640 LINE",
"160 560 LINE"
);
},
{
closed = 1;
nodes = (
"320 -160 LINE",
"320 -80 LINE",
"80 -80 LINE",
"80 -160 LINE"
);
},
{
closed = 1;
nodes = (
"400 -80 LINE",
"400 0 LINE",
"320 0 LINE",
"320 -80 LINE"
);
},
{
closed = 1;
nodes = (
"320 240 LINE",
"320 320 LINE",
"160 320 LINE",
"160 240 LINE"
);
},
{
closed = 1;
nodes = (
"480 0 LINE",
"480 160 LINE",
"400 160 LINE",
"400 0 LINE"
);
},
{
closed = 1;
nodes = (
"400 160 LINE",
"400 240 LINE",
"320 240 LINE",
"320 160 LINE"
);
},
{
closed = 1;
nodes = (
"160 480 LINE",
"160 560 LINE",
"80 560 LINE",
"80 480 LINE"
);
},
{
closed = 1;
nodes = (
"400 320 LINE",
"400 400 LINE",
"320 400 LINE",
"320 320 LINE"
);
},
{
closed = 1;
nodes = (
"480 400 LINE",
"480 560 LINE",
"400 560 LINE",
"400 400 LINE"
);
}
);
};
layerId = "F76A24FC-8BAD-4C26-88A9-A9F19A1ECB8E";
name = "Jan 24 18, 17:35";
paths = (
{
closed = 1;
nodes = (
"369 -174 OFFCURVE",
"483 -85 OFFCURVE",
"483 69 CURVE SMOOTH",
"483 198 OFFCURVE",
"400 296 OFFCURVE",
"183 296 CURVE SMOOTH",
"174 296 LINE",
"174 265 LINE",
"185 265 LINE SMOOTH",
"382 265 OFFCURVE",
"466 359 OFFCURVE",
"466 466 CURVE SMOOTH",
"466 571 OFFCURVE",
"391 652 OFFCURVE",
"265 652 CURVE SMOOTH",
"187 652 OFFCURVE",
"126 618 OFFCURVE",
"69 570 CURVE",
"109 514 LINE",
"147 543 OFFCURVE",
"203 580 OFFCURVE",
"262 580 CURVE SMOOTH",
"337 580 OFFCURVE",
"380 533 OFFCURVE",
"380 466 CURVE SMOOTH",
"380 393 OFFCURVE",
"336 306 OFFCURVE",
"160 312 CURVE",
"160 240 LINE",
"337 246 OFFCURVE",
"397 172 OFFCURVE",
"397 72 CURVE SMOOTH",
"397 -38 OFFCURVE",
"331 -102 OFFCURVE",
"199 -102 CURVE SMOOTH",
"162 -102 OFFCURVE",
"118 -95 OFFCURVE",
"86 -88 CURVE",
"73 -155 LINE",
"108 -165 OFFCURVE",
"154 -174 OFFCURVE",
"215 -174 CURVE SMOOTH"
);
}
);
width = 560;
}
);
unicode = 0033;
},
{
glyphname = four;
lastChange = "2019-12-19 14:57:11 +0000";
layers = (
{
background = {
paths = (
{
closed = 1;
nodes = (
"320 640 LINE",
"240 640 LINE",
"240 480 LINE",
"320 480 LINE"
);
},
{
closed = 1;
nodes = (
"240 480 LINE",
"160 480 LINE",
"160 320 LINE",
"240 320 LINE"
);
},
{
closed = 1;
nodes = (
"400 320 LINE",
"320 320 LINE",
"320 80 LINE",
"80 80 LINE",
"80 160 LINE",
"0 160 LINE",
"0 0 LINE",
"320 0 LINE",
"320 -160 LINE",
"400 -160 LINE",
"400 0 LINE",
"480 0 LINE",
"480 80 LINE",
"400 80 LINE"
);
},
{
closed = 1;
nodes = (
"160 320 LINE",
"80 320 LINE",
"80 160 LINE",
"160 160 LINE"
);
}
);
};
hints = (
{
horizontal = 1;
origin = "{0, 14}";
type = Anchor;
},
{
horizontal = 1;
origin = "{0, 14}";
target = "{0, 1}";
type = Align;
options = 4;
},
{
horizontal = 1;
origin = "{0, 1}";
target = "{0, 4}";
type = TTStem;
options = 4;
},
{
horizontal = 1;
origin = "{0, 4}";
target = "{0, 7}";
type = Align;
options = 4;
},
{
horizontal = 1;
origin = "{0, 7}";
target = "{0, 12}";
type = Align;
options = 4;
},
{
horizontal = 1;
origin = "{0, 10}";
type = Anchor;
},
{
horizontal = 1;
origin = "{0, 6}";
type = Anchor;
}
);
layerId = "83692D61-586C-413E-9B5A-1AF652750951";
paths = (
{
closed = 1;
nodes = (
"352 -80 LINE",
"384 80 LINE",
"464 80 LINE",
"478 150 LINE",
"398 150 LINE",
"443 375 LINE",
"363 375 LINE",
"318 150 LINE",
"98 150 LINE",
"93 131 LINE",
"426 640 LINE",
"342 640 LINE",
"13 131 LINE",
"4 80 LINE",
"304 80 LINE",
"272 -80 LINE"
);
}
);
width = 560;
},
{
associatedMasterId = "83692D61-586C-413E-9B5A-1AF652750951";
background = {
paths = (
{
closed = 1;
nodes = (
"320 640 LINE",
"240 640 LINE",
"240 480 LINE",
"320 480 LINE"
);
},
{
closed = 1;
nodes = (
"240 480 LINE",
"160 480 LINE",
"160 320 LINE",
"240 320 LINE"
);
},
{
closed = 1;
nodes = (
"400 320 LINE",
"320 320 LINE",
"320 80 LINE",
"80 80 LINE",
"80 160 LINE",
"0 160 LINE",
"0 0 LINE",
"320 0 LINE",
"320 -160 LINE",
"400 -160 LINE",
"400 0 LINE",
"480 0 LINE",
"480 80 LINE",
"400 80 LINE"
);
},
{
closed = 1;
nodes = (
"160 320 LINE",
"80 320 LINE",
"80 160 LINE",
"160 160 LINE"
);
}
);
};
layerId = "DB0E6B6D-FE3A-4164-B69C-01AEC4AE1550";
name = "Dec 26 17, 15:06";
paths = (
{
closed = 1;
nodes = (
"424 -160 LINE",
"424 0 LINE",
"504 0 LINE",
"504 70 LINE",
"424 70 LINE",
"424 295 LINE",
"344 295 LINE",
"344 70 LINE",
"124 70 LINE",
"122 51 LINE",
"389 640 LINE",
"307 640 LINE",
"44 51 LINE",
"44 0 LINE",
"344 0 LINE",
"344 -160 LINE"
);
}
);
width = 560;
}
);
unicode = 0034;
},
{
glyphname = five;
lastChange = "2019-12-19 14:57:11 +0000";
layers = (
{
background = {
paths = (
{
closed = 1;
nodes = (
"361 -135 OFFCURVE",
"483 -28 OFFCURVE",
"483 108 CURVE SMOOTH",
"483 233 OFFCURVE",
"405 354 OFFCURVE",
"209 336 CURVE SMOOTH",
"171 333 OFFCURVE",
"132 329 OFFCURVE",
"94 326 CURVE",
"174 326 LINE",
"174 568 LINE",
"460 568 LINE",
"460 640 LINE",
"94 640 LINE",
"94 254 LINE",
"132 257 OFFCURVE",
"171 261 OFFCURVE",
"209 264 CURVE SMOOTH",
"344 277 OFFCURVE",
"397 188 OFFCURVE",
"397 106 CURVE SMOOTH",
"397 -8 OFFCURVE",
"296 -72 OFFCURVE",
"77 -105 CURVE",
"87 -170 LINE"
);
}
);
};
hints = (
{
horizontal = 1;
origin = "{0, 13}";
target = "{0, 10}";
type = TTStem;
options = 4;
},
{
horizontal = 1;
origin = "{0, 24}";
target = "{0, 23}";
type = TTStem;
options = 4;
},
{
horizontal = 1;
origin = "{0, 13}";
target = "{0, 24}";
other1 = "{0, 17}";
type = Interpolate;
},
{
horizontal = 1;
origin = "{0, 17}";
target = "{0, 5}";
type = TTStem;
options = 4;
}
);
layerId = "83692D61-586C-413E-9B5A-1AF652750951";
paths = (
{
closed = 1;
nodes = (
"273 -135 OFFCURVE",
"412 -35 OFFCURVE",
"442 116 CURVE SMOOTH",
"466 235 OFFCURVE",
"410 337 OFFCURVE",
"237 337 CURVE SMOOTH",
"198 337 OFFCURVE",
"139 331 OFFCURVE",
"93 326 CURVE",
"175 326 LINE",
"224 568 LINE",
"502 568 LINE",
"516 640 LINE",
"158 640 LINE",
"84 256 LINE",
"122 261 OFFCURVE",
"163 266 OFFCURVE",
"217 266 CURVE SMOOTH",
"336 266 OFFCURVE",
"372 196 OFFCURVE",
"358 124 CURVE SMOOTH",
"331 -9 OFFCURVE",
"215 -72 OFFCURVE",
"-11 -105 CURVE",
"-8 -170 LINE"
);
}
);
width = 560;
}
);
unicode = 0035;
},
{
glyphname = six;
lastChange = "2019-12-19 14:57:11 +0000";
layers = (
{
background = {
paths = (
{
closed = 1;
nodes = (
"402 -12 OFFCURVE",
"490 85 OFFCURVE",
"490 228 CURVE SMOOTH",
"490 387 OFFCURVE",
"415 475 OFFCURVE",
"310 475 CURVE SMOOTH",
"206 475 OFFCURVE",
"147 401 OFFCURVE",
"95 335 CURVE",
"130 304 LINE",
"177 363 OFFCURVE",
"231 403 OFFCURVE",
"289 403 CURVE SMOOTH",
"355 403 OFFCURVE",
"402 354 OFFCURVE",
"402 228 CURVE SMOOTH",
"402 121 OFFCURVE",
"363 60 OFFCURVE",
"283 60 CURVE SMOOTH",
"209 60 OFFCURVE",
"155 133 OFFCURVE",
"155 317 CURVE SMOOTH",
"155 548 OFFCURVE",
"231 620 OFFCURVE",
"428 665 CURVE",
"416 730 LINE",
"167 685 OFFCURVE",
"67 556 OFFCURVE",
"67 310 CURVE SMOOTH",
"67 97 OFFCURVE",
"155 -12 OFFCURVE",
"283 -12 CURVE SMOOTH"
);
}
);
};
color = -1;
hints = (
{
horizontal = 1;
origin = "{0, 31}";
target = "{0, 18}";
type = TTStem;
options = 4;
},
{
horizontal = 1;
origin = "{0, 25}";
target = "{0, 24}";
type = TTStem;
options = 4;
},
{
horizontal = 1;
origin = "{0, 31}";
target = "{0, 25}";
other1 = "{0, 12}";
type = Interpolate;
},
{
horizontal = 1;
origin = "{0, 12}";
target = "{0, 5}";
type = TTStem;
options = 4;
}
);
layerId = "83692D61-586C-413E-9B5A-1AF652750951";
paths = (
{
closed = 1;
nodes = (
"350 -12 OFFCURVE",
"461 93 OFFCURVE",
"489 235 CURVE SMOOTH",
"519 383 OFFCURVE",
"455 475 OFFCURVE",
"343 475 CURVE SMOOTH",
"240 475 OFFCURVE",
"168 403 OFFCURVE",
"103 337 CURVE",
"135 302 LINE",
"193 361 OFFCURVE",
"256 403 OFFCURVE",
"319 403 CURVE SMOOTH",
"386 403 OFFCURVE",
"425 355 OFFCURVE",
"404 248 CURVE SMOOTH",
"381 134 OFFCURVE",
"321 60 OFFCURVE",
"235 60 CURVE SMOOTH",
"155 60 OFFCURVE",
"119 138 OFFCURVE",
"153 311 CURVE SMOOTH",
"198 537 OFFCURVE",
"296 619 OFFCURVE",
"506 664 CURVE",
"501 731 LINE",
"239 686 OFFCURVE",
"113 551 OFFCURVE",
"66 316 CURVE SMOOTH",
"25 108 OFFCURVE",
"93 -12 OFFCURVE",
"232 -12 CURVE SMOOTH"
);
}
);
width = 560;
}
);
unicode = 0036;
},
{
glyphname = seven;
lastChange = "2019-12-19 14:57:11 +0000";
layers = (
{
background = {
paths = (
{
closed = 1;
nodes = (
"80 640 LINE",
"80 560 LINE",
"400 560 LINE",
"400 400 LINE",
"480 400 LINE",
"480 640 LINE"
);
},
{
closed = 1;
nodes = (
"320 240 LINE",
"400 240 LINE",
"400 400 LINE",
"320 400 LINE"
);
},
{
closed = 1;
nodes = (
"240 80 LINE",
"320 80 LINE",
"320 240 LINE",
"240 240 LINE"
);
},
{
closed = 1;
nodes = (
"160 -160 LINE",
"240 -160 LINE",
"240 80 LINE",
"160 80 LINE"
);
}
);
};
hints = (
{
horizontal = 1;
origin = "{0, 4}";
target = "{0, 7}";
type = TTStem;
options = 4;
},
{
horizontal = 1;
origin = "{0, 0}";
type = Anchor;
},
{
horizontal = 1;
origin = "{0, 7}";
target = "{0, 3}";
type = Align;
options = 4;
}
);
layerId = "83692D61-586C-413E-9B5A-1AF652750951";
paths = (
{
closed = 1;
nodes = (
"152 -163 LINE",
"245 133 OFFCURVE",
"359 324 OFFCURVE",
"539 567 CURVE",
"552 640 LINE",
"152 640 LINE",
"136 560 LINE",
"448 563 LINE",
"306 366 OFFCURVE",
"177 175 OFFCURVE",
"72 -157 CURVE"
);
}
);
width = 560;
}
);
unicode = 0037;
},
{
glyphname = eight;
lastChange = "2019-12-19 14:57:11 +0000";
layers = (
{
background = {
paths = (
{
closed = 1;
nodes = (
"400 640 LINE",
"400 720 LINE",
"160 720 LINE",
"160 640 LINE"
);
},
{
closed = 1;
nodes = (
"80 640 LINE",
"80 480 LINE",
"160 480 LINE",
"160 640 LINE"
);
},
{
closed = 1;
nodes = (
"400 480 LINE",
"480 480 LINE",
"480 640 LINE",
"400 640 LINE"
);
},
{
closed = 1;
nodes = (
"160 400 LINE",
"240 400 LINE",
"240 480 LINE",
"160 480 LINE"
);
},
{
closed = 1;
nodes = (
"400 400 LINE",
"400 480 LINE",
"320 480 LINE",
"320 400 LINE"
);
},
{
closed = 1;
nodes = (
"320 320 LINE",
"320 400 LINE",
"240 400 LINE",
"240 320 LINE"
);
},
{
closed = 1;
nodes = (
"160 320 LINE",
"160 240 LINE",
"240 240 LINE",
"240 320 LINE"
);
},
{
closed = 1;
nodes = (
"400 320 LINE",
"320 320 LINE",
"320 240 LINE",
"400 240 LINE"
);
},
{
closed = 1;
nodes = (
"80 240 LINE",
"80 80 LINE",
"160 80 LINE",
"160 240 LINE"
);
},
{
closed = 1;
nodes = (
"480 80 LINE",
"480 240 LINE",
"400 240 LINE",
"400 80 LINE"
);
},
{
closed = 1;
nodes = (
"160 80 LINE",
"160 0 LINE",
"400 0 LINE",
"400 80 LINE"
);
}
);
};
hints = (
{
horizontal = 1;
origin = "{0, 45}";
target = "{0, 6}";
type = TTStem;
options = 4;
},
{
horizontal = 1;
origin = "{0, 19}";
target = "{0, 32}";
type = TTStem;
options = 4;
},
{
horizontal = 1;
origin = "{0, 6}";
target = "{0, 19}";
other1 = "{0, 29, 0, 39}";
type = Interpolate;
options = 4;
},
{
horizontal = 1;
origin = "{0, 45}";
target = "{0, 32}";
other1 = "{0, 3, 0, 13}";
type = Interpolate;
options = 4;
},
{
horizontal = 1;
origin = "{0, 29, 0, 39}";
target = "{0, 3, 0, 13}";
other1 = "{0, 13, 0, 51}";
type = Interpolate;
options = 4;
},
{
horizontal = 1;
origin = "{0, 29, 0, 39}";
target = "{0, 3, 0, 13}";
other1 = "{0, 25, 0, 39}";
type = Interpolate;
options = 4;
}
);
layerId = "83692D61-586C-413E-9B5A-1AF652750951";
paths = (
{
closed = 1;
nodes = (
"312 394 LINE",
"382 444 OFFCURVE",
"438 480 OFFCURVE",
"451 547 CURVE SMOOTH",
"462 600 OFFCURVE",
"435 659 OFFCURVE",
"348 659 CURVE SMOOTH",
"275 659 OFFCURVE",
"228 623 OFFCURVE",
"217 570 CURVE SMOOTH",
"208 523 OFFCURVE",
"224 499 OFFCURVE",
"258 468 CURVE SMOOTH",
"413 326 LINE SMOOTH",
"479 264 OFFCURVE",
"492 220 OFFCURVE",
"482 168 CURVE SMOOTH",
"464 78 OFFCURVE",
"363 -10 OFFCURVE",
"214 -10 CURVE SMOOTH",
"60 -10 OFFCURVE",
"9 64 OFFCURVE",
"28 158 CURVE SMOOTH",
"50 270 OFFCURVE",
"154 334 OFFCURVE",
"251 384 CURVE",
"289 337 LINE",
"184 287 OFFCURVE",
"128 241 OFFCURVE",
"114 172 CURVE SMOOTH",
"105 125 OFFCURVE",
"134 62 OFFCURVE",
"240 62 CURVE SMOOTH",
"329 62 OFFCURVE",
"384 100 OFFCURVE",
"395 155 CURVE SMOOTH",
"403 193 OFFCURVE",
"392 217 OFFCURVE",
"345 261 CURVE SMOOTH",
"188 405 LINE SMOOTH",
"144 446 OFFCURVE",
"116 483 OFFCURVE",
"130 554 CURVE SMOOTH",
"149 651 OFFCURVE",
"249 730 OFFCURVE",
"376 730 CURVE SMOOTH",
"493 730 OFFCURVE",
"558 658 OFFCURVE",
"538 559 CURVE SMOOTH",
"519 466 OFFCURVE",
"443 417 OFFCURVE",
"347 352 CURVE"
);
}
);
width = 560;
}
);
unicode = 0038;
},
{
glyphname = nine;
lastChange = "2019-12-19 14:57:11 +0000";
layers = (
{
background = {
paths = (
{
closed = 1;
nodes = (
"377 -118 OFFCURVE",
"485 21 OFFCURVE",
"485 302 CURVE SMOOTH",
"485 539 OFFCURVE",
"410 649 OFFCURVE",
"269 649 CURVE SMOOTH",
"149 649 OFFCURVE",
"62 547 OFFCURVE",
"62 399 CURVE SMOOTH",
"62 225 OFFCURVE",
"158 162 OFFCURVE",
"248 162 CURVE SMOOTH",
"344 162 OFFCURVE",
"405 230 OFFCURVE",
"458 296 CURVE",
"422 333 LINE",
"375 274 OFFCURVE",
"321 234 OFFCURVE",
"263 234 CURVE SMOOTH",
"197 234 OFFCURVE",
"150 283 OFFCURVE",
"150 395 CURVE SMOOTH",
"150 509 OFFCURVE",
"193 577 OFFCURVE",
"269 577 CURVE SMOOTH",
"352 577 OFFCURVE",
"397 496 OFFCURVE",
"397 319 CURVE SMOOTH",
"397 34 OFFCURVE",
"308 -49 OFFCURVE",
"124 -101 CURVE",
"138 -166 LINE"
);
}
);
};
color = -1;
hints = (
{
horizontal = 1;
origin = "{0, 5}";
target = "{0, 24}";
type = TTStem;
options = 4;
},
{
horizontal = 1;
origin = "{0, 31}";
target = "{0, 30}";
type = TTStem;
options = 4;
},
{
horizontal = 1;
origin = "{0, 5}";
target = "{0, 31}";
other1 = "{0, 11}";
type = Interpolate;
},
{
horizontal = 1;
origin = "{0, 11}";
target = "{0, 18}";
type = TTStem;
options = 4;
}
);
layerId = "83692D61-586C-413E-9B5A-1AF652750951";
paths = (
{
closed = 1;
nodes = (
"304 -119 OFFCURVE",
"440 26 OFFCURVE",
"494 296 CURVE SMOOTH",
"541 528 OFFCURVE",
"481 649 OFFCURVE",
"335 649 CURVE SMOOTH",
"210 649 OFFCURVE",
"105 546 OFFCURVE",
"77 407 CURVE SMOOTH",
"43 233 OFFCURVE",
"132 162 OFFCURVE",
"228 162 CURVE SMOOTH",
"323 162 OFFCURVE",
"396 228 OFFCURVE",
"462 294 CURVE",
"430 335 LINE",
"373 276 OFFCURVE",
"309 234 OFFCURVE",
"248 234 CURVE SMOOTH",
"179 234 OFFCURVE",
"141 285 OFFCURVE",
"163 393 CURVE SMOOTH",
"184 501 OFFCURVE",
"249 577 OFFCURVE",
"332 577 CURVE SMOOTH",
"416 577 OFFCURVE",
"445 491 OFFCURVE",
"412 325 CURVE SMOOTH",
"356 45 OFFCURVE",
"244 -48 OFFCURVE",
"45 -100 CURVE",
"52 -167 LINE"
);
}
);
width = 560;
}
);
unicode = 0039;
},
{
glyphname = zero.zero;
lastChange = "2019-12-19 14:57:11 +0000";
layers = (
{
hints = (
{
horizontal = 1;
origin = "{0, 11}";
target = "{1, 11}";
type = TTStem;
options = 4;
},
{
horizontal = 1;
origin = "{0, 5}";
target = "{1, 5}";
type = TTStem;
options = 4;
},
{
horizontal = 1;
origin = "{0, 11}";
target = "{0, 5}";
other1 = "{2, 11}";
type = Interpolate;
},
{
horizontal = 1;
origin = "{2, 11}";
target = "{2, 5}";
type = TTStem;
stem = -1;
options = 4;
}
);
layerId = "83692D61-586C-413E-9B5A-1AF652750951";
paths = (
{
closed = 1;
nodes = (
"356 -10 OFFCURVE",
"475 124 OFFCURVE",
"513 314 CURVE SMOOTH",
"554 518 OFFCURVE",
"506 650 OFFCURVE",
"348 650 CURVE SMOOTH",
"208 650 OFFCURVE",
"101 513 OFFCURVE",
"63 326 CURVE SMOOTH",
"22 122 OFFCURVE",
"82 -10 OFFCURVE",
"228 -10 CURVE SMOOTH"
);
},
{
closed = 1;
nodes = (
"146 60 OFFCURVE",
"112 148 OFFCURVE",
"145 314 CURVE SMOOTH",
"179 487 OFFCURVE",
"247 580 OFFCURVE",
"346 580 CURVE SMOOTH",
"441 580 OFFCURVE",
"465 497 OFFCURVE",
"431 326 CURVE SMOOTH",
"397 155 OFFCURVE",
"322 60 OFFCURVE",
"230 60 CURVE SMOOTH"
);
},
{
closed = 1;
nodes = (
"312 260 OFFCURVE",
"339 283 OFFCURVE",
"345 314 CURVE SMOOTH",
"352 349 OFFCURVE",
"330 379 OFFCURVE",
"293 379 CURVE SMOOTH",
"261 379 OFFCURVE",
"235 356 OFFCURVE",
"229 326 CURVE SMOOTH",
"222 288 OFFCURVE",
"244 260 OFFCURVE",
"281 260 CURVE SMOOTH"
);
}
);
width = 560;
}
);
},
{
glyphname = period;
lastChange = "2019-12-19 14:57:11 +0000";
layers = (
{
hints = (
{
horizontal = 1;
origin = "{0, 11}";
target = "{0, 5}";
type = TTStem;
stem = -1;
options = 4;
}
);
layerId = "83692D61-586C-413E-9B5A-1AF652750951";
paths = (
{
closed = 1;
nodes = (
"275 -12 OFFCURVE",
"321 26 OFFCURVE",
"331 73 CURVE SMOOTH",
"342 128 OFFCURVE",
"309 172 OFFCURVE",
"253 172 CURVE SMOOTH",
"205 172 OFFCURVE",
"159 133 OFFCURVE",
"149 85 CURVE SMOOTH",
"138 31 OFFCURVE",
"171 -12 OFFCURVE",
"227 -12 CURVE SMOOTH"
);
}
);
width = 560;
},
{
associatedMasterId = "83692D61-586C-413E-9B5A-1AF652750951";
layerId = "32AC2FFF-2820-41ED-B603-ABB1E8D703E9";
name = "Feb 5 18, 12:15";
paths = (
{
closed = 1;
nodes = (
"326 -16 OFFCURVE",
"357 27 OFFCURVE",
"357 84 CURVE SMOOTH",
"357 140 OFFCURVE",
"326 183 OFFCURVE",
"280 183 CURVE SMOOTH",
"234 183 OFFCURVE",
"203 140 OFFCURVE",
"203 84 CURVE SMOOTH",
"203 27 OFFCURVE",
"234 -16 OFFCURVE",
"280 -16 CURVE SMOOTH"
);
}
);
visible = 1;
width = 560;
}
);
leftKerningGroup = period;
rightKerningGroup = period;
unicode = 002E;
},
{
glyphname = comma;
lastChange = "2019-12-19 14:57:11 +0000";
layers = (
{
background = {
components = (
{
name = period;
}
);
};
hints = (
{
horizontal = 1;
origin = "{0, 1}";
type = Anchor;
},
{
horizontal = 1;
origin = "{0, 3}";
type = Anchor;
}
);
layerId = "83692D61-586C-413E-9B5A-1AF652750951";
paths = (
{
closed = 1;
nodes = (
"354 160 LINE",
"207 160 LINE",
"70 -160 LINE",
"139 -160 LINE"
);
}
);
width = 560;
}
);
leftKerningGroup = period;
rightKerningGroup = period;
unicode = 002C;
},
{
glyphname = ellipsis;
lastChange = "2019-12-19 14:57:11 +0000";
layers = (
{
background = {
paths = (
{
closed = 1;
nodes = (
"480 0 LINE",
"480 160 LINE",
"400 160 LINE",
"400 0 LINE"
);
},
{
closed = 1;
nodes = (
"160 0 LINE",
"160 160 LINE",
"80 160 LINE",
"80 0 LINE"
);
},
{
closed = 1;
nodes = (
"320 0 LINE",
"320 160 LINE",
"240 160 LINE",
"240 0 LINE"
);
}
);
};
hints = (
{
horizontal = 1;
origin = "{0, 11}";
type = Anchor;
},
{
horizontal = 1;
origin = "{1, 11}";
type = Anchor;
},
{
horizontal = 1;
origin = "{2, 11}";
type = Anchor;
},
{
horizontal = 1;
origin = "{2, 11}";
target = "{2, 5}";
type = TTStem;
options = 4;
},
{
horizontal = 1;
origin = "{2, 5}";
target = "{1, 5}";
type = Align;
options = 4;
},
{
horizontal = 1;
origin = "{1, 5}";
target = "{0, 5}";
type = Align;
options = 4;
}
);
layerId = "83692D61-586C-413E-9B5A-1AF652750951";
paths = (
{
closed = 1;
nodes = (
"97 -12 OFFCURVE",
"123 8 OFFCURVE",
"129 38 CURVE SMOOTH",
"136 74 OFFCURVE",
"114 100 OFFCURVE",
"78 100 CURVE SMOOTH",
"48 100 OFFCURVE",
"23 80 OFFCURVE",
"17 50 CURVE SMOOTH",
"10 14 OFFCURVE",
"31 -12 OFFCURVE",
"67 -12 CURVE SMOOTH"
);
},
{
closed = 1;
nodes = (
"257 -12 OFFCURVE",
"283 8 OFFCURVE",
"289 38 CURVE SMOOTH",
"296 74 OFFCURVE",
"274 100 OFFCURVE",
"238 100 CURVE SMOOTH",
"208 100 OFFCURVE",
"183 80 OFFCURVE",
"177 50 CURVE SMOOTH",
"170 14 OFFCURVE",
"191 -12 OFFCURVE",
"227 -12 CURVE SMOOTH"
);
},
{
closed = 1;
nodes = (
"417 -12 OFFCURVE",
"443 8 OFFCURVE",
"449 38 CURVE SMOOTH",
"456 74 OFFCURVE",
"434 100 OFFCURVE",
"398 100 CURVE SMOOTH",
"368 100 OFFCURVE",
"343 80 OFFCURVE",
"337 50 CURVE SMOOTH",
"330 14 OFFCURVE",
"351 -12 OFFCURVE",
"387 -12 CURVE SMOOTH"
);
}
);
width = 560;
},
{
associatedMasterId = "83692D61-586C-413E-9B5A-1AF652750951";
background = {
paths = (
{
closed = 1;
nodes = (
"480 0 LINE",
"480 160 LINE",
"400 160 LINE",
"400 0 LINE"
);
},
{
closed = 1;
nodes = (
"160 0 LINE",
"160 160 LINE",
"80 160 LINE",
"80 0 LINE"
);
},
{
closed = 1;
nodes = (
"320 0 LINE",
"320 160 LINE",
"240 160 LINE",
"240 0 LINE"
);
}
);
};
layerId = "4F57C0E9-0768-4C67-8A6E-A840AB21D8AF";
name = "Feb 5 18, 13:24";
paths = (
{
closed = 1;
nodes = (
"171 -12 OFFCURVE",
"212 29 OFFCURVE",
"212 79 CURVE SMOOTH",
"212 131 OFFCURVE",
"173 172 OFFCURVE",
"120 172 CURVE SMOOTH",
"69 172 OFFCURVE",
"28 130 OFFCURVE",
"28 79 CURVE SMOOTH",
"28 28 OFFCURVE",
"67 -12 OFFCURVE",
"120 -12 CURVE SMOOTH"
);
},
{
closed = 1;
nodes = (
"171 -12 OFFCURVE",
"212 29 OFFCURVE",
"212 79 CURVE SMOOTH",
"212 131 OFFCURVE",
"173 172 OFFCURVE",
"120 172 CURVE SMOOTH",
"69 172 OFFCURVE",
"28 130 OFFCURVE",
"28 79 CURVE SMOOTH",
"28 28 OFFCURVE",
"67 -12 OFFCURVE",
"120 -12 CURVE SMOOTH"
);
},
{
closed = 1;
nodes = (
"331 -12 OFFCURVE",
"372 29 OFFCURVE",
"372 79 CURVE SMOOTH",
"372 131 OFFCURVE",
"333 172 OFFCURVE",
"280 172 CURVE SMOOTH",
"229 172 OFFCURVE",
"188 130 OFFCURVE",
"188 79 CURVE SMOOTH",
"188 28 OFFCURVE",
"227 -12 OFFCURVE",
"280 -12 CURVE SMOOTH"
);
},
{
closed = 1;
nodes = (
"331 -12 OFFCURVE",
"372 29 OFFCURVE",
"372 79 CURVE SMOOTH",
"372 131 OFFCURVE",
"333 172 OFFCURVE",
"280 172 CURVE SMOOTH",
"229 172 OFFCURVE",
"188 130 OFFCURVE",
"188 79 CURVE SMOOTH",
"188 28 OFFCURVE",
"227 -12 OFFCURVE",
"280 -12 CURVE SMOOTH"
);
},
{
closed = 1;
nodes = (
"491 -12 OFFCURVE",
"532 29 OFFCURVE",
"532 79 CURVE SMOOTH",
"532 131 OFFCURVE",
"493 172 OFFCURVE",
"440 172 CURVE SMOOTH",
"389 172 OFFCURVE",
"348 130 OFFCURVE",
"348 79 CURVE SMOOTH",
"348 28 OFFCURVE",
"387 -12 OFFCURVE",
"440 -12 CURVE SMOOTH"
);
},
{
closed = 1;
nodes = (
"491 -12 OFFCURVE",
"532 29 OFFCURVE",
"532 79 CURVE SMOOTH",
"532 131 OFFCURVE",
"493 172 OFFCURVE",
"440 172 CURVE SMOOTH",
"389 172 OFFCURVE",
"348 130 OFFCURVE",
"348 79 CURVE SMOOTH",
"348 28 OFFCURVE",
"387 -12 OFFCURVE",
"440 -12 CURVE SMOOTH"
);
}
);
width = 560;
}
);
unicode = 2026;
},
{
color = 7;
glyphname = exclam;
lastChange = "2019-12-19 14:57:11 +0000";
layers = (
{
background = {
paths = (
{
closed = 1;
nodes = (
"320 240 LINE",
"320 720 LINE",
"240 720 LINE",
"240 240 LINE"
);
},
{
closed = 1;
nodes = (
"320 0 LINE",
"320 160 LINE",
"240 160 LINE",
"240 0 LINE"
);
}
);
};
components = (
{
name = period;
}
);
layerId = "83692D61-586C-413E-9B5A-1AF652750951";
paths = (
{
closed = 1;
nodes = (
"307 280 LINE",
"436 720 LINE",
"300 720 LINE",
"253 280 LINE"
);
}
);
width = 560;
},
{
associatedMasterId = "83692D61-586C-413E-9B5A-1AF652750951";
background = {
paths = (
{
closed = 1;
nodes = (
"320 240 LINE",
"320 720 LINE",
"240 720 LINE",
"240 240 LINE"
);
},
{
closed = 1;
nodes = (
"320 0 LINE",
"320 160 LINE",
"240 160 LINE",
"240 0 LINE"
);
}
);
};
components = (
{
name = period;
}
);
layerId = "6DA340A7-505F-4AF4-A2AA-65095B002187";
name = "Jun 14 18, 18:44";
paths = (
{
closed = 1;
nodes = (
"307 280 LINE",
"348 800 LINE",
"212 800 LINE",
"253 280 LINE"
);
}
);
width = 560;
}
);
unicode = 0021;
},
{
color = 7;
glyphname = question;
lastChange = "2019-12-19 14:57:11 +0000";
layers = (
{
background = {
paths = (
{
closed = 1;
nodes = (
"80 720 LINE",
"80 640 LINE",
"400 640 LINE",
"400 720 LINE"
);
},
{
closed = 1;
nodes = (
"400 400 LINE",
"480 400 LINE",
"480 640 LINE",
"400 640 LINE"
);
},
{
closed = 1;
nodes = (
"400 320 LINE",
"400 400 LINE",
"320 400 LINE",
"320 320 LINE"
);
},
{
closed = 1;
nodes = (
"320 240 LINE",
"320 320 LINE",
"240 320 LINE",
"240 240 LINE"
);
},
{
closed = 1;
nodes = (
"240 0 LINE",
"320 0 LINE",
"320 160 LINE",
"240 160 LINE"
);
}
);
};
color = -1;
components = (
{
name = period;
}
);
layerId = "83692D61-586C-413E-9B5A-1AF652750951";
paths = (
{
closed = 1;
nodes = (
"409 315 OFFCURVE",
"511 406 OFFCURVE",
"533 516 CURVE SMOOTH",
"559 645 OFFCURVE",
"483 730 OFFCURVE",
"336 730 CURVE SMOOTH",
"273 730 OFFCURVE",
"204 710 OFFCURVE",
"152 689 CURVE",
"164 630 LINE",
"202 642 OFFCURVE",
"268 658 OFFCURVE",
"319 658 CURVE SMOOTH",
"420 658 OFFCURVE",
"461 607 OFFCURVE",
"444 521 CURVE SMOOTH",
"427 433 OFFCURVE",
"358 370 OFFCURVE",
"243 292 CURVE",
"280 238 LINE"
);
}
);
width = 560;
}
);
unicode = 003F;
},
{
glyphname = periodcentered;
lastChange = "2019-12-19 14:57:11 +0000";
layers = (
{
background = {
paths = (
{
closed = 1;
nodes = (
"320 240 LINE",
"320 400 LINE",
"240 400 LINE",
"240 240 LINE"
);
}
);
};
hints = (
{
horizontal = 1;
origin = "{0, 11}";
type = Anchor;
},
{
horizontal = 1;
origin = "{0, 11}";
target = "{0, 5}";
type = TTStem;
stem = -1;
options = 4;
}
);
layerId = "83692D61-586C-413E-9B5A-1AF652750951";
paths = (
{
closed = 1;
nodes = (
"313 264 OFFCURVE",
"338 284 OFFCURVE",
"344 314 CURVE SMOOTH",
"351 350 OFFCURVE",
"329 376 OFFCURVE",
"294 376 CURVE SMOOTH",
"263 376 OFFCURVE",
"238 356 OFFCURVE",
"232 326 CURVE SMOOTH",
"225 290 OFFCURVE",
"247 264 OFFCURVE",
"282 264 CURVE SMOOTH"
);
}
);
width = 560;
}
);
unicode = 00B7;
},
{
color = 7;
glyphname = asterisk;
lastChange = "2019-12-19 14:57:11 +0000";
layers = (
{
background = {
paths = (
{
closed = 1;
nodes = (
"243 266 LINE",
"521 356 LINE",
"496 432 LINE",
"218 342 LINE"
);
},
{
closed = 1;
nodes = (
"265 273 LINE",
"394 94 LINE",
"460 143 LINE",
"329 320 LINE"
);
},
{
closed = 1;
nodes = (
"318 320 LINE",
"320 560 LINE",
"240 560 LINE",
"242 320 LINE"
);
},
{
closed = 1;
nodes = (
"230 316 LINE",
"104 142 LINE",
"166 96 LINE",
"292 271 LINE"
);
},
{
closed = 1;
nodes = (
"64 432 LINE",
"39 356 LINE",
"274 280 LINE",
"299 356 LINE"
);
}
);
};
components = (
{
name = _part.asterisk;
transform = "{1, 0, 0, 1, 13, 66}";
},
{
name = _part.asterisk;
transform = "{0.30902, -0.95106, 0.95106, 0.30902, 32, 526}";
},
{
name = _part.asterisk;
transform = "{0.30902, 0.95106, -0.95106, 0.30902, 459, -7}";
},
{
name = _part.asterisk;
transform = "{-0.80902, 0.58779, -0.58779, -0.80902, 753, 408}";
},
{
name = _part.asterisk;
transform = "{-0.80902, -0.58779, 0.58779, -0.80902, 489, 737}";
}
);
layerId = "83692D61-586C-413E-9B5A-1AF652750951";
width = 560;
}
);
unicode = 002A;
},
{
glyphname = numbersign;
lastChange = "2019-12-19 14:57:11 +0000";
layers = (
{
hints = (
{
horizontal = 1;
origin = "{0, 0}";
type = Anchor;
},
{
horizontal = 1;
origin = "{0, 0}";
target = "{0, 3}";
type = Align;
options = 4;
},
{
horizontal = 1;
origin = "{0, 17}";
type = Anchor;
},
{
horizontal = 1;
origin = "{0, 17}";
target = "{0, 14}";
type = Align;
options = 4;
},
{
horizontal = 1;
origin = "{0, 0}";
target = "{0, 17}";
other1 = "{0, 1}";
type = Interpolate;
},
{
horizontal = 1;
origin = "{0, 1}";
target = "{0, 5}";
type = Align;
options = 4;
},
{
horizontal = 1;
origin = "{0, 5}";
target = "{0, 26}";
type = Align;
options = 4;
},
{
horizontal = 1;
origin = "{0, 26}";
target = "{0, 23}";
type = TTStem;
options = 4;
},
{
horizontal = 1;
origin = "{0, 23}";
target = "{1, 3}";
type = Align;
options = 4;
},
{
horizontal = 1;
origin = "{1, 3}";
target = "{0, 8}";
type = Align;
options = 4;
},
{
horizontal = 1;
origin = "{0, 0}";
target = "{0, 17}";
other1 = "{0, 19}";
type = Interpolate;
},
{
horizontal = 1;
origin = "{0, 19}";
target = "{0, 16}";
type = Align;
options = 4;
},
{
horizontal = 1;
origin = "{0, 16}";
target = "{0, 12}";
type = Align;
options = 4;
},
{
horizontal = 1;
origin = "{0, 12}";
target = "{0, 9}";
type = TTStem;
options = 4;
},
{
horizontal = 1;
origin = "{0, 9}";
target = "{1, 1}";
type = Align;
options = 4;
},
{
horizontal = 1;
origin = "{1, 1}";
target = "{0, 22}";
type = Align;
options = 4;
}
);
layerId = "83692D61-586C-413E-9B5A-1AF652750951";
paths = (
{
closed = 1;
nodes = (
"158 -20 LINE",
"203 206 LINE",
"327 206 LINE",
"282 -20 LINE",
"358 -20 LINE",
"403 206 LINE",
"505 206 LINE",
"519 276 LINE",
"417 276 LINE",
"453 456 LINE",
"555 456 LINE",
"569 526 LINE",
"467 526 LINE",
"510 740 LINE",
"434 740 LINE",
"391 526 LINE",
"267 526 LINE",
"310 740 LINE",
"234 740 LINE",
"191 526 LINE",
"89 526 LINE",
"75 456 LINE",
"177 456 LINE",
"141 276 LINE",
"39 276 LINE",
"25 206 LINE",
"127 206 LINE",
"82 -20 LINE"
);
},
{
closed = 1;
nodes = (
"253 456 LINE",
"377 456 LINE",
"341 276 LINE",
"217 276 LINE"
);
}
);
width = 560;
}
);
unicode = 0023;
},
{
glyphname = slash;
lastChange = "2019-12-19 14:57:11 +0000";
layers = (
{
hints = (
{
horizontal = 1;
origin = "{0, 0}";
type = Anchor;
},
{
horizontal = 1;
origin = "{0, 2}";
type = Anchor;
}
);
layerId = "83692D61-586C-413E-9B5A-1AF652750951";
paths = (
{
closed = 1;
nodes = (
"71 -160 LINE",
"585 800 LINE",
"507 800 LINE",
"-7 -160 LINE"
);
}
);
width = 560;
}
);
unicode = 002F;
},
{
glyphname = backslash;
lastChange = "2019-12-19 14:57:11 +0000";
layers = (
{
hints = (
{
horizontal = 1;
origin = "{0, 1}";
type = Anchor;
},
{
horizontal = 1;
origin = "{0, 3}";
type = Anchor;
}
);
layerId = "83692D61-586C-413E-9B5A-1AF652750951";
paths = (
{
closed = 1;
nodes = (
"394 -160 LINE",
"265 800 LINE",
"182 800 LINE",
"312 -160 LINE"
);
}
);
width = 560;
},
{
associatedMasterId = "83692D61-586C-413E-9B5A-1AF652750951";
layerId = "D1782013-A2CC-4C52-A25F-86B78A6BE938";
name = "Jan 4 18, 16:13";
paths = (
{
closed = 1;
nodes = (
"483 -80 LINE",
"163 720 LINE",
"77 720 LINE",
"397 -80 LINE"
);
}
);
width = 560;
}
);
unicode = 005C;
},
{
color = 7;
glyphname = parenleft;
lastChange = "2019-12-19 14:57:11 +0000";
layers = (
{
background = {
paths = (
{
closed = 1;
nodes = (
"480 800 LINE",
"320 800 LINE",
"320 720 LINE",
"480 720 LINE"
);
},
{
closed = 1;
nodes = (
"320 720 LINE",
"240 720 LINE",
"240 560 LINE",
"320 560 LINE"
);
},
{
closed = 1;
nodes = (
"240 560 LINE",
"160 560 LINE",
"160 80 LINE",
"240 80 LINE"
);
},
{
closed = 1;
nodes = (
"320 -80 LINE",
"320 80 LINE",
"240 80 LINE",
"240 -80 LINE"
);
},
{
closed = 1;
nodes = (
"480 -160 LINE",
"480 -80 LINE",
"320 -80 LINE",
"320 -160 LINE"
);
}
);
};
components = (
{
name = _part.paren;
},
{
name = _part.paren;
transform = "{1, 0, 0, -1, 128, 640}";
}
);
layerId = "83692D61-586C-413E-9B5A-1AF652750951";
width = 560;
}
);
unicode = 0028;
},
{
glyphname = bracketleft;
lastChange = "2019-12-19 14:57:11 +0000";
layers = (
{
hints = (
{
horizontal = 1;
origin = "{0, 7}";
target = "{0, 2}";
type = TTStem;
options = 4;
},
{
horizontal = 1;
origin = "{0, 6}";
target = "{0, 3}";
type = TTStem;
options = 4;
}
);
layerId = "83692D61-586C-413E-9B5A-1AF652750951";
paths = (
{
closed = 1;
nodes = (
"392 -160 LINE",
"406 -90 LINE",
"166 -90 LINE",
"330 730 LINE",
"570 730 LINE",
"584 800 LINE",
"264 800 LINE",
"72 -160 LINE"
);
}
);
width = 560;
}
);
unicode = 005B;
},
{
glyphname = bracketright;
lastChange = "2019-12-19 14:57:11 +0000";
layers = (
{
hints = (
{
horizontal = 1;
origin = "{0, 1}";
target = "{0, 4}";
type = TTStem;
options = 4;
},
{
horizontal = 1;
origin = "{0, 0}";
target = "{0, 5}";
type = TTStem;
options = 4;
}
);
layerId = "83692D61-586C-413E-9B5A-1AF652750951";
paths = (
{
closed = 1;
nodes = (
"312 -160 LINE",
"504 800 LINE",
"184 800 LINE",
"170 730 LINE",
"410 730 LINE",
"246 -90 LINE",
"6 -90 LINE",
"-8 -160 LINE"
);
}
);
width = 560;
}
);
unicode = 005D;
},
{
glyphname = hyphen;
lastChange = "2019-12-19 14:57:11 +0000";
layers = (
{
hints = (
{
horizontal = 1;
origin = "{0, 3}";
type = Anchor;
},
{
horizontal = 1;
origin = "{0, 3}";
target = "{0, 2}";
type = TTStem;
options = 4;
}
);
layerId = "83692D61-586C-413E-9B5A-1AF652750951";
paths = (
{
closed = 1;
nodes = (
"488 320 LINE",
"502 390 LINE",
"102 390 LINE",
"88 320 LINE"
);
}
);
width = 560;
}
);
unicode = 002D;
},
{
glyphname = endash;
lastChange = "2019-12-19 14:57:11 +0000";
layers = (
{
hints = (
{
horizontal = 1;
origin = "{0, 3}";
type = Anchor;
},
{
horizontal = 1;
origin = "{0, 3}";
target = "{0, 2}";
type = TTStem;
options = 4;
}
);
layerId = "83692D61-586C-413E-9B5A-1AF652750951";
paths = (
{
closed = 1;
nodes = (
"568 320 LINE",
"582 390 LINE",
"22 390 LINE",
"8 320 LINE"
);
}
);
width = 560;
}
);
unicode = 2013;
},
{
glyphname = emdash;
lastChange = "2019-12-19 14:57:11 +0000";
layers = (
{
hints = (
{
horizontal = 1;
origin = "{0, 1}";
type = Anchor;
},
{
horizontal = 1;
origin = "{0, 1}";
target = "{0, 0}";
type = TTStem;
options = 4;
}
);
layerId = "83692D61-586C-413E-9B5A-1AF652750951";
paths = (
{
closed = 1;
nodes = (
"22 390 LINE",
"8 320 LINE",
"568 320 LINE",
"582 390 LINE"
);
}
);
width = 560;
}
);
unicode = 2014;
},
{
glyphname = underscore;
lastChange = "2019-12-19 14:57:11 +0000";
layers = (
{
hints = (
{
horizontal = 1;
origin = "{0, 1}";
type = Anchor;
},
{
horizontal = 1;
origin = "{0, 1}";
target = "{0, 0}";
type = TTStem;
options = 4;
}
);
layerId = "83692D61-586C-413E-9B5A-1AF652750951";
paths = (
{
closed = 1;
nodes = (
"38 72 LINE",
"24 0 LINE",
"424 0 LINE",
"438 72 LINE"
);
}
);
width = 560;
}
);
unicode = 005F;
},
{
glyphname = quoteright;
lastChange = "2019-12-19 14:57:11 +0000";
layers = (
{
background = {
paths = (
{
closed = 1;
nodes = (
"237 731 OFFCURVE",
"205 695 OFFCURVE",
"205 650 CURVE SMOOTH",
"205 597 OFFCURVE",
"242 568 OFFCURVE",
"302 564 CURVE",
"287 514 OFFCURVE",
"227 474 OFFCURVE",
"126 456 CURVE",
"139 394 LINE",
"299 418 OFFCURVE",
"383 494 OFFCURVE",
"383 611 CURVE SMOOTH",
"383 692 OFFCURVE",
"339 731 OFFCURVE",
"287 731 CURVE SMOOTH"
);
}
);
};
hints = (
{
horizontal = 1;
origin = "{0, 18}";
type = Anchor;
},
{
horizontal = 1;
origin = "{0, 12}";
type = Anchor;
},
{
horizontal = 1;
origin = "{0, 12}";
target = "{0, 11}";
type = TTStem;
options = 4;
}
);
layerId = "83692D61-586C-413E-9B5A-1AF652750951";
paths = (
{
closed = 1;
nodes = (
"324 731 OFFCURVE",
"289 698 OFFCURVE",
"280 653 CURVE SMOOTH",
"273 620 OFFCURVE",
"285 591 OFFCURVE",
"316 579 CURVE SMOOTH",
"331 569 OFFCURVE",
"338 560 OFFCURVE",
"336 550 CURVE SMOOTH",
"329 514 OFFCURVE",
"264 477 OFFCURVE",
"159 457 CURVE",
"165 394 LINE",
"329 418 OFFCURVE",
"425 491 OFFCURVE",
"448 605 CURVE SMOOTH",
"465 689 OFFCURVE",
"426 731 OFFCURVE",
"372 731 CURVE SMOOTH"
);
}
);
width = 560;
},
{
associatedMasterId = "83692D61-586C-413E-9B5A-1AF652750951";
background = {
paths = (
{
closed = 1;
nodes = (
"400 480 LINE",
"400 720 LINE",
"240 720 LINE",
"240 560 LINE",
"320 560 LINE",
"320 480 LINE"
);
},
{
closed = 1;
nodes = (
"320 400 LINE",
"320 480 LINE",
"160 480 LINE",
"160 400 LINE"
);
}
);
};
layerId = "5BA9B940-4A38-47DF-8D31-B576CD5004BD";
name = "Jan 26 18, 11:59";
paths = (
{
closed = 1;
nodes = (
"299 418 OFFCURVE",
"383 494 OFFCURVE",
"383 611 CURVE SMOOTH",
"383 692 OFFCURVE",
"339 731 OFFCURVE",
"287 731 CURVE SMOOTH",
"237 731 OFFCURVE",
"205 695 OFFCURVE",
"205 650 CURVE SMOOTH",
"205 593 OFFCURVE",
"248 564 OFFCURVE",
"317 564 CURVE SMOOTH",
"343 564 LINE",
"306 632 LINE",
"306 590 LINE SMOOTH",
"306 528 OFFCURVE",
"244 477 OFFCURVE",
"126 456 CURVE",
"139 394 LINE"
);
}
);
width = 560;
}
);
unicode = 2019;
},
{
glyphname = quotesingle;
lastChange = "2019-12-19 14:57:11 +0000";
layers = (
{
hints = (
{
horizontal = 1;
origin = "{0, 2}";
type = Anchor;
},
{
horizontal = 1;
origin = "{0, 3}";
type = Anchor;
}
);
layerId = "83692D61-586C-413E-9B5A-1AF652750951";
paths = (
{
closed = 1;
nodes = (
"336 400 LINE",
"434 720 LINE",
"302 720 LINE",
"272 400 LINE"
);
}
);
width = 560;
}
);
unicode = 0027;
},
{
color = 3;
glyphname = exclam_equal.liga;
lastChange = "2019-12-19 14:57:11 +0000";
layers = (
{
components = (
{
name = slash;
transform = "{1, 0, 0, 1, 257, 0}";
}
);
layerId = "83692D61-586C-413E-9B5A-1AF652750951";
paths = (
{
closed = 1;
nodes = (
"1105 404 LINE",
"1119 476 LINE",
"79 476 LINE",
"65 404 LINE"
);
},
{
closed = 1;
nodes = (
"1073 244 LINE",
"1087 316 LINE",
"47 316 LINE",
"33 244 LINE"
);
}
);
width = 1120;
}
);
},
{
glyphname = dollar;
lastChange = "2019-12-19 14:57:11 +0000";
layers = (
{
background = {
paths = (
{
closed = 1;
nodes = (
"320 880 LINE",
"240 880 LINE",
"240 720 LINE",
"160 720 LINE",
"160 640 LINE",
"400 640 LINE",
"400 720 LINE",
"320 720 LINE"
);
},
{
closed = 1;
nodes = (
"80 480 LINE",
"160 480 LINE",
"160 640 LINE",
"80 640 LINE"
);
},
{
closed = 1;
nodes = (
"480 640 LINE",
"400 640 LINE",
"400 560 LINE",
"480 560 LINE"
);
},
{
closed = 1;
nodes = (
"240 480 LINE",
"160 480 LINE",
"160 400 LINE",
"240 400 LINE"
);
},
{
closed = 1;
nodes = (
"320 400 LINE",
"240 400 LINE",
"240 320 LINE",
"320 320 LINE"
);
},
{
closed = 1;
nodes = (
"400 320 LINE",
"320 320 LINE",
"320 240 LINE",
"400 240 LINE"
);
},
{
closed = 1;
nodes = (
"480 80 LINE",
"480 240 LINE",
"400 240 LINE",
"400 80 LINE"
);
},
{
closed = 1;
nodes = (
"80 80 LINE",
"160 80 LINE",
"160 160 LINE",
"80 160 LINE"
);
},
{
closed = 1;
nodes = (
"160 80 LINE",
"160 0 LINE",
"240 0 LINE",
"240 -160 LINE",
"320 -160 LINE",
"320 0 LINE",
"400 0 LINE",
"400 80 LINE"
);
}
);
};
hints = (
{
horizontal = 1;
origin = "{0, 31, 1, 3}";
target = "{0, 24}";
type = TTStem;
options = 4;
},
{
horizontal = 1;
origin = "{0, 15, 2, 1}";
target = "{0, 8}";
type = TTStem;
options = 4;
}
);
layerId = "83692D61-586C-413E-9B5A-1AF652750951";
paths = (
{
closed = 1;
nodes = (
"335 -9 OFFCURVE",
"417 77 OFFCURVE",
"435 166 CURVE SMOOTH",
"477 377 OFFCURVE",
"210 393 OFFCURVE",
"241 550 CURVE SMOOTH",
"251 602 OFFCURVE",
"299 658 OFFCURVE",
"373 658 CURVE SMOOTH",
"413 658 OFFCURVE",
"456 647 OFFCURVE",
"500 624 CURVE",
"537 682 LINE",
"502 703 OFFCURVE",
"443 730 OFFCURVE",
"368 730 CURVE SMOOTH",
"254 730 OFFCURVE",
"178 644 OFFCURVE",
"160 556 CURVE SMOOTH",
"120 356 OFFCURVE",
"386 328 OFFCURVE",
"355 176 CURVE SMOOTH",
"341 107 OFFCURVE",
"283 63 OFFCURVE",
"206 63 CURVE SMOOTH",
"161 63 OFFCURVE",
"110 82 OFFCURVE",
"75 103 CURVE",
"40 45 LINE",
"87 14 OFFCURVE",
"137 -9 OFFCURVE",
"208 -9 CURVE SMOOTH"
);
},
{
closed = 1;
nodes = (
"224 -160 LINE",
"256 0 LINE",
"176 0 LINE",
"144 -160 LINE"
);
},
{
closed = 1;
nodes = (
"412 720 LINE",
"444 880 LINE",
"364 880 LINE",
"332 720 LINE"
);
}
);
width = 560;
}
);
unicode = 0024;
},
{
glyphname = plus;
lastChange = "2019-12-19 14:57:11 +0000";
layers = (
{
hints = (
{
horizontal = 1;
origin = "{0, 10}";
type = Anchor;
},
{
horizontal = 1;
origin = "{0, 10}";
target = "{0, 1}";
type = Align;
options = 4;
},
{
horizontal = 1;
origin = "{0, 1}";
target = "{0, 4}";
type = TTStem;
options = 4;
},
{
horizontal = 1;
origin = "{0, 4}";
target = "{0, 7}";
type = Align;
options = 4;
},
{
horizontal = 1;
origin = "{0, 7}";
target = "{0, 6}";
type = TTStem;
stem = -1;
},
{
horizontal = 1;
origin = "{0, 10}";
target = "{0, 11}";
type = TTStem;
stem = -1;
}
);
layerId = "83692D61-586C-413E-9B5A-1AF652750951";
paths = (
{
closed = 1;
nodes = (
"284 100 LINE",
"329 324 LINE",
"549 324 LINE",
"563 396 LINE",
"343 396 LINE",
"388 620 LINE",
"308 620 LINE",
"263 396 LINE",
"43 396 LINE",
"29 324 LINE",
"249 324 LINE",
"204 100 LINE"
);
}
);
width = 560;
}
);
unicode = 002B;
},
{
glyphname = minus;
lastChange = "2019-12-19 14:57:11 +0000";
layers = (
{
hints = (
{
horizontal = 1;
origin = "{0, 3}";
type = Anchor;
},
{
horizontal = 1;
origin = "{0, 3}";
target = "{0, 2}";
type = TTStem;
options = 4;
}
);
layerId = "83692D61-586C-413E-9B5A-1AF652750951";
paths = (
{
closed = 1;
nodes = (
"549 324 LINE",
"563 396 LINE",
"43 396 LINE",
"29 324 LINE"
);
}
);
width = 560;
}
);
unicode = 2212;
},
{
glyphname = equal;
lastChange = "2019-12-19 14:57:11 +0000";
layers = (
{
hints = (
{
horizontal = 1;
origin = "{1, 2}";
type = Anchor;
},
{
horizontal = 1;
origin = "{1, 2}";
target = "{0, 3}";
type = TTStem;
stem = -1;
options = 4;
},
{
horizontal = 1;
origin = "{0, 3}";
target = "{0, 2}";
type = TTStem;
options = 4;
},
{
horizontal = 1;
origin = "{1, 2}";
target = "{1, 3}";
type = TTStem;
options = 4;
}
);
layerId = "83692D61-586C-413E-9B5A-1AF652750951";
paths = (
{
closed = 1;
nodes = (
"565 404 LINE",
"579 476 LINE",
"59 476 LINE",
"45 404 LINE"
);
},
{
closed = 1;
nodes = (
"533 244 LINE",
"547 316 LINE",
"27 316 LINE",
"13 244 LINE"
);
}
);
width = 560;
}
);
unicode = 003D;
},
{
glyphname = greater;
lastChange = "2019-12-19 14:57:11 +0000";
layers = (
{
background = {
components = (
{
name = pixel;
transform = "{1, 0, 0, 1, 160, 560}";
},
{
name = pixel;
transform = "{1, 0, 0, 1, 160, 80}";
},
{
name = pixel;
transform = "{1, 0, 0, 1, 240, 160}";
},
{
name = pixel;
transform = "{1, 0, 0, 1, 320, 240}";
},
{
name = pixel;
transform = "{1, 0, 0, 1, 400, 320}";
},
{
name = pixel;
transform = "{1, 0, 0, 1, 320, 400}";
},
{
name = pixel;
transform = "{1, 0, 0, 1, 240, 480}";
}
);
};
layerId = "83692D61-586C-413E-9B5A-1AF652750951";
paths = (
{
closed = 1;
nodes = (
"18 -36 LINE",
"509 342 LINE",
"499 379 LINE",
"455 379 LINE",
"35 58 LINE"
);
},
{
closed = 1;
nodes = (
"447 330 LINE",
"510 342 LINE",
"516 379 LINE",
"175 757 LINE",
"155 651 LINE"
);
}
);
width = 560;
}
);
unicode = 003E;
},
{
glyphname = asciitilde;
lastChange = "2019-12-19 14:57:11 +0000";
layers = (
{
background = {
paths = (
{
closed = 1;
nodes = (
"80 240 LINE",
"72 362 OFFCURVE",
"101 402 OFFCURVE",
"160 402 CURVE SMOOTH",
"243 402 OFFCURVE",
"251 242 OFFCURVE",
"400 242 CURVE SMOOTH",
"497 242 OFFCURVE",
"565 309 OFFCURVE",
"560 480 CURVE",
"488 480 LINE",
"493 356 OFFCURVE",
"457 318 OFFCURVE",
"400 318 CURVE SMOOTH",
"313 318 OFFCURVE",
"303 478 OFFCURVE",
"160 478 CURVE SMOOTH",
"62 478 OFFCURVE",
"0 411 OFFCURVE",
"8 240 CURVE"
);
}
);
};
hints = (
{
horizontal = 1;
origin = "{0, 6}";
type = Anchor;
},
{
horizontal = 1;
origin = "{0, 6}";
target = "{0, 13}";
type = TTStem;
options = 4;
},
{
horizontal = 1;
origin = "{0, 6}";
target = "{0, 3}";
type = TTStem;
stem = -1;
},
{
horizontal = 1;
origin = "{0, 3}";
target = "{0, 16}";
type = TTStem;
options = 4;
},
{
horizontal = 1;
origin = "{0, 16}";
target = "{0, 10}";
type = Align;
},
{
horizontal = 1;
origin = "{0, 6}";
target = "{0, 0}";
type = Align;
}
);
layerId = "83692D61-586C-413E-9B5A-1AF652750951";
paths = (
{
closed = 1;
nodes = (
"74 241 LINE",
"92 363 OFFCURVE",
"129 404 OFFCURVE",
"184 404 CURVE SMOOTH",
"269 404 OFFCURVE",
"246 242 OFFCURVE",
"394 242 CURVE SMOOTH",
"492 242 OFFCURVE",
"565 302 OFFCURVE",
"592 473 CURVE",
"520 479 LINE",
"499 355 OFFCURVE",
"459 316 OFFCURVE",
"408 316 CURVE SMOOTH",
"321 316 OFFCURVE",
"347 478 OFFCURVE",
"198 478 CURVE SMOOTH",
"99 478 OFFCURVE",
"28 418 OFFCURVE",
"2 247 CURVE"
);
}
);
width = 560;
}
);
unicode = 007E;
},
{
glyphname = asciicircum;
lastChange = "2019-12-19 14:57:11 +0000";
layers = (
{
hints = (
{
horizontal = 1;
origin = "{0, 6}";
type = Anchor;
},
{
horizontal = 1;
origin = "{0, 6}";
target = "{0, 3}";
type = Align;
options = 4;
},
{
horizontal = 1;
origin = "{0, 0}";
type = Anchor;
},
{
horizontal = 1;
origin = "{0, 0}";
target = "{0, 4, 0, 6}";
type = Align;
options = 4;
}
);
layerId = "83692D61-586C-413E-9B5A-1AF652750951";
paths = (
{
closed = 1;
nodes = (
"315 640 LINE",
"395 640 LINE",
"459 160 LINE",
"373 160 LINE",
"323 600 LINE",
"359 600 LINE",
"133 160 LINE",
"59 160 LINE"
);
}
);
width = 560;
}
);
unicode = 005E;
},
{
color = 7;
glyphname = percent;
lastChange = "2019-12-19 14:57:11 +0000";
layers = (
{
background = {
components = (
{
name = pixel;
transform = "{1, 0, 0, 1, 0, 80}";
},
{
name = pixel;
transform = "{1, 0, 0, 1, 80, 160}";
},
{
name = pixel;
transform = "{1, 0, 0, 1, 160, 240}";
},
{
name = pixel;
transform = "{1, 0, 0, 1, 240, 320}";
},
{
name = pixel;
transform = "{1, 0, 0, 1, 320, 400}";
},
{
name = pixel;
transform = "{1, 0, 0, 1, 400, 480}";
},
{
name = pixel;
transform = "{1, 0, 0, 1, 480, 560}";
},
{
name = pixel;
transform = "{1, 0, 0, 1, 160, 560}";
},
{
name = pixel;
transform = "{1, 0, 0, 1, 80, 640}";
},
{
name = pixel;
transform = "{1, 0, 0, 1, 0, 560}";
},
{
name = pixel;
transform = "{1, 0, 0, 1, 320, 80}";
},
{
name = pixel;
transform = "{1, 0, 0, 1, 400, 0}";
},
{
name = pixel;
transform = "{1, 0, 0, 1, 480, 80}";
},
{
name = pixel;
transform = "{1, 0, 0, 1, 0, 480}";
},
{
name = pixel;
transform = "{1, 0, 0, 1, 80, 400}";
},
{
name = pixel;
transform = "{1, 0, 0, 1, 160, 480}";
},
{
name = pixel;
transform = "{1, 0, 0, 1, 320, 160}";
},
{
name = pixel;
transform = "{1, 0, 0, 1, 400, 240}";
},
{
name = pixel;
transform = "{1, 0, 0, 1, 480, 160}";
}
);
};
components = (
{
name = _part.percent;
transform = "{1, 0, 0, 1, 300, 0}";
},
{
name = _part.percent;
transform = "{1, 0, 0, 1, 104, 419}";
}
);
layerId = "83692D61-586C-413E-9B5A-1AF652750951";
paths = (
{
closed = 1;
nodes = (
"55 80 LINE",
"623 640 LINE",
"537 640 LINE",
"-31 80 LINE"
);
}
);
width = 560;
}
);
unicode = 0025;
},
{
glyphname = at;
lastChange = "2019-12-19 14:57:11 +0000";
layers = (
{
background = {
components = (
{
name = pixel;
transform = "{1, 0, 0, 1, 160, 560}";
},
{
name = pixel;
transform = "{1, 0, 0, 1, 240, 560}";
},
{
name = pixel;
transform = "{1, 0, 0, 1, 320, 560}";
},
{
name = pixel;
transform = "{1, 0, 0, 1, 80, 480}";
},
{
name = pixel;
transform = "{1, 0, 0, 1, 400, 480}";
},
{
name = pixel;
transform = "{1, 0, 0, 1, 400, 400}";
},
{
name = pixel;
transform = "{1, 0, 0, 1, 400, 240}";
},
{
name = pixel;
transform = "{1, 0, 0, 1, 400, 320}";
},
{
name = pixel;
transform = "{1, 0, 0, 1, 240, 320}";
},
{
name = pixel;
transform = "{1, 0, 0, 1, 80, 400}";
},
{
name = pixel;
transform = "{1, 0, 0, 1, 80, 320}";
},
{
name = pixel;
transform = "{1, 0, 0, 1, 80, 240}";
},
{
name = pixel;
transform = "{1, 0, 0, 1, 80, 160}";
},
{
name = pixel;
transform = "{1, 0, 0, 1, 80, 80}";
},
{
name = pixel;
transform = "{1, 0, 0, 1, 80, 0}";
},
{
name = pixel;
transform = "{1, 0, 0, 1, 160, -80}";
},
{
name = pixel;
transform = "{1, 0, 0, 1, 240, -80}";
},
{
name = pixel;
transform = "{1, 0, 0, 1, 320, -80}";
},
{
name = pixel;
transform = "{1, 0, 0, 1, 240, 240}";
},
{
name = pixel;
transform = "{1, 0, 0, 1, 240, 160}";
},
{
name = pixel;
transform = "{1, 0, 0, 1, 400, 160}";
},
{
name = pixel;
transform = "{1, 0, 0, 1, 400, -80}";
},
{
name = pixel;
transform = "{1, 0, 0, 1, 240, 80}";
},
{
name = pixel;
transform = "{1, 0, 0, 1, 320, 80}";
},
{
name = pixel;
transform = "{1, 0, 0, 1, 400, 80}";
},
{
name = pixel;
transform = "{1, 0, 0, 1, 320, 320}";
}
);
};
hints = (
{
horizontal = 1;
origin = "{0, 45}";
target = "{0, 12}";
type = TTStem;
options = 4;
},
{
horizontal = 1;
origin = "{0, 51}";
target = "{0, 6}";
type = TTStem;
options = 4;
},
{
horizontal = 1;
origin = "{0, 38}";
target = "{0, 19}";
type = TTStem;
options = 4;
},
{
horizontal = 1;
origin = "{0, 32}";
target = "{0, 25}";
type = TTStem;
options = 4;
}
);
layerId = "83692D61-586C-413E-9B5A-1AF652750951";
paths = (
{
closed = 1;
nodes = (
"301 -91 OFFCURVE",
"348 -83 OFFCURVE",
"398 -71 CURVE",
"395 -5 LINE",
"351 -14 OFFCURVE",
"305 -21 OFFCURVE",
"264 -21 CURVE SMOOTH",
"149 -21 OFFCURVE",
"104 50 OFFCURVE",
"146 259 CURVE SMOOTH",
"196 511 OFFCURVE",
"263 581 OFFCURVE",
"351 581 CURVE SMOOTH",
"424 581 OFFCURVE",
"453 547 OFFCURVE",
"436 459 CURVE SMOOTH",
"384 212 LINE",
"371 210 OFFCURVE",
"358 208 OFFCURVE",
"345 208 CURVE SMOOTH",
"309 208 OFFCURVE",
"298 216 OFFCURVE",
"310 274 CURVE SMOOTH",
"322 334 OFFCURVE",
"343 352 OFFCURVE",
"388 352 CURVE SMOOTH",
"408 352 OFFCURVE",
"432 350 OFFCURVE",
"458 348 CURVE",
"466 414 LINE",
"443 417 OFFCURVE",
"412 420 OFFCURVE",
"378 420 CURVE SMOOTH",
"292 420 OFFCURVE",
"249 368 OFFCURVE",
"232 286 CURVE SMOOTH",
"211 181 OFFCURVE",
"248 140 OFFCURVE",
"338 140 CURVE SMOOTH",
"374 140 OFFCURVE",
"420 147 OFFCURVE",
"458 158 CURVE",
"514 448 LINE SMOOTH",
"537 564 OFFCURVE",
"496 651 OFFCURVE",
"358 651 CURVE SMOOTH",
"217 651 OFFCURVE",
"121 533 OFFCURVE",
"68 271 CURVE SMOOTH",
"15 7 OFFCURVE",
"103 -91 OFFCURVE",
"257 -91 CURVE SMOOTH"
);
}
);
width = 560;
}
);
unicode = 0040;
},
{
color = 0;
glyphname = ampersand;
lastChange = "2019-12-19 14:57:11 +0000";
layers = (
{
background = {
paths = (
{
closed = 1;
nodes = (
"400 400 LINE",
"400 640 LINE",
"320 640 LINE",
"320 400 LINE"
);
},
{
closed = 1;
nodes = (
"320 0 LINE",
"320 80 LINE",
"160 80 LINE",
"160 0 LINE"
);
},
{
closed = 1;
nodes = (
"160 80 LINE",
"160 320 LINE",
"80 320 LINE",
"80 80 LINE"
);
},
{
closed = 1;
nodes = (
"240 320 LINE",
"240 400 LINE",
"160 400 LINE",
"160 320 LINE"
);
},
{
closed = 1;
nodes = (
"320 240 LINE",
"320 320 LINE",
"240 320 LINE",
"240 240 LINE"
);
},
{
closed = 1;
nodes = (
"400 160 LINE",
"400 240 LINE",
"320 240 LINE",
"320 160 LINE"
);
},
{
closed = 1;
nodes = (
"480 80 LINE",
"480 160 LINE",
"400 160 LINE",
"400 80 LINE"
);
},
{
closed = 1;
nodes = (
"560 0 LINE",
"560 80 LINE",
"480 80 LINE",
"480 0 LINE"
);
},
{
closed = 1;
nodes = (
"160 400 LINE",
"160 640 LINE",
"80 640 LINE",
"80 400 LINE"
);
},
{
closed = 1;
nodes = (
"480 240 LINE",
"480 320 LINE",
"400 320 LINE",
"400 240 LINE"
);
},
{
closed = 1;
nodes = (
"560 320 LINE",
"560 400 LINE",
"480 400 LINE",
"480 320 LINE"
);
},
{
closed = 1;
nodes = (
"320 640 LINE",
"320 720 LINE",
"160 720 LINE",
"160 640 LINE"
);
}
);
};
layerId = "83692D61-586C-413E-9B5A-1AF652750951";
paths = (
{
closed = 1;
nodes = (
"531 0 LINE",
"280 297 LINE SMOOTH",
"206 387 OFFCURVE",
"189 464 OFFCURVE",
"204 538 CURVE SMOOTH",
"217 607 OFFCURVE",
"265 650 OFFCURVE",
"320 650 CURVE SMOOTH",
"363 650 OFFCURVE",
"388 619 OFFCURVE",
"374 552 CURVE SMOOTH",
"362 488 OFFCURVE",
"319 423 OFFCURVE",
"267 360 CURVE",
"314 324 LINE",
"392 400 OFFCURVE",
"443 474 OFFCURVE",
"457 546 CURVE SMOOTH",
"478 648 OFFCURVE",
"433 720 OFFCURVE",
"326 720 CURVE SMOOTH",
"237 720 OFFCURVE",
"147 656 OFFCURVE",
"125 545 CURVE SMOOTH",
"103 435 OFFCURVE",
"137 354 OFFCURVE",
"224 247 CURVE SMOOTH",
"425 0 LINE"
);
},
{
closed = 1;
nodes = (
"242 -9 OFFCURVE",
"278 -1 OFFCURVE",
"302 9 CURVE",
"294 74 LINE",
"269 68 OFFCURVE",
"244 63 OFFCURVE",
"218 63 CURVE SMOOTH",
"144 63 OFFCURVE",
"114 117 OFFCURVE",
"138 237 CURVE SMOOTH",
"143 261 OFFCURVE",
"150 283 OFFCURVE",
"156 304 CURVE",
"88 329 LINE",
"77 308 OFFCURVE",
"64 267 OFFCURVE",
"58 234 CURVE SMOOTH",
"24 66 OFFCURVE",
"94 -9 OFFCURVE",
"211 -9 CURVE SMOOTH"
);
},
{
closed = 1;
nodes = (
"449 240 LINE",
"586 400 LINE",
"499 400 LINE",
"362 240 LINE"
);
}
);
width = 560;
},
{
associatedMasterId = "83692D61-586C-413E-9B5A-1AF652750951";
background = {
paths = (
{
closed = 1;
nodes = (
"400 400 LINE",
"400 640 LINE",
"320 640 LINE",
"320 400 LINE"
);
},
{
closed = 1;
nodes = (
"320 0 LINE",
"320 80 LINE",
"160 80 LINE",
"160 0 LINE"
);
},
{
closed = 1;
nodes = (
"160 80 LINE",
"160 320 LINE",
"80 320 LINE",
"80 80 LINE"
);
},
{
closed = 1;
nodes = (
"240 320 LINE",
"240 400 LINE",
"160 400 LINE",
"160 320 LINE"
);
},
{
closed = 1;
nodes = (
"320 240 LINE",
"320 320 LINE",
"240 320 LINE",
"240 240 LINE"
);
},
{
closed = 1;
nodes = (
"400 160 LINE",
"400 240 LINE",
"320 240 LINE",
"320 160 LINE"
);
},
{
closed = 1;
nodes = (
"480 80 LINE",
"480 160 LINE",
"400 160 LINE",
"400 80 LINE"
);
},
{
closed = 1;
nodes = (
"560 0 LINE",
"560 80 LINE",
"480 80 LINE",
"480 0 LINE"
);
},
{
closed = 1;
nodes = (
"160 400 LINE",
"160 640 LINE",
"80 640 LINE",
"80 400 LINE"
);
},
{
closed = 1;
nodes = (
"480 240 LINE",
"480 320 LINE",
"400 320 LINE",
"400 240 LINE"
);
},
{
closed = 1;
nodes = (
"560 320 LINE",
"560 400 LINE",
"480 400 LINE",
"480 320 LINE"
);
},
{
closed = 1;
nodes = (
"320 640 LINE",
"320 720 LINE",
"160 720 LINE",
"160 640 LINE"
);
}
);
};
layerId = "344DF66D-6917-4E54-A369-84072C6A01F4";
name = "May 11 18, 18:03";
paths = (
{
closed = 1;
nodes = (
"558 72 LINE",
"433 153 OFFCURVE",
"337 234 OFFCURVE",
"273 299 CURVE SMOOTH",
"176 399 OFFCURVE",
"152 467 OFFCURVE",
"152 544 CURVE SMOOTH",
"152 610 OFFCURVE",
"188 650 OFFCURVE",
"240 650 CURVE SMOOTH",
"294 650 OFFCURVE",
"320 620 OFFCURVE",
"320 560 CURVE SMOOTH",
"320 400 LINE",
"400 400 LINE",
"400 560 LINE SMOOTH",
"400 665 OFFCURVE",
"342 720 OFFCURVE",
"240 720 CURVE SMOOTH",
"152 720 OFFCURVE",
"72 655 OFFCURVE",
"72 539 CURVE SMOOTH",
"72 432 OFFCURVE",
"115 354 OFFCURVE",
"222 245 CURVE SMOOTH",
"292 173 OFFCURVE",
"394 92 OFFCURVE",
"516 5 CURVE"
);
},
{
closed = 1;
nodes = (
"297 -9 OFFCURVE",
"332 0 OFFCURVE",
"354 10 CURVE",
"339 73 LINE",
"314 67 OFFCURVE",
"290 63 OFFCURVE",
"267 63 CURVE SMOOTH",
"190 63 OFFCURVE",
"147 120 OFFCURVE",
"147 243 CURVE SMOOTH",
"147 264 OFFCURVE",
"149 286 OFFCURVE",
"151 307 CURVE",
"79 326 LINE",
"72 305 OFFCURVE",
"67 264 OFFCURVE",
"67 228 CURVE SMOOTH",
"67 63 OFFCURVE",
"149 -9 OFFCURVE",
"263 -9 CURVE SMOOTH"
);
},
{
closed = 1;
nodes = (
"456 240 LINE",
"561 400 LINE",
"476 400 LINE",
"371 240 LINE"
);
}
);
width = 560;
}
);
unicode = 0026;
},
{
glyphname = bar;
lastChange = "2019-12-19 14:57:11 +0000";
layers = (
{
background = {
paths = (
{
closed = 1;
nodes = (
"158 -160 LINE",
"480 800 LINE",
"404 800 LINE",
"82 -160 LINE"
);
}
);
};
hints = (
{
horizontal = 1;
origin = "{0, 2}";
type = Anchor;
},
{
horizontal = 1;
origin = "{0, 3}";
type = Anchor;
}
);
layerId = "83692D61-586C-413E-9B5A-1AF652750951";
paths = (
{
closed = 1;
nodes = (
"232 -160 LINE",
"424 800 LINE",
"344 800 LINE",
"152 -160 LINE"
);
}
);
width = 560;
}
);
unicode = 007C;
},
{
glyphname = dieresiscomb;
lastChange = "2019-12-19 14:57:11 +0000";
layers = (
{
anchors = (
{
name = _top;
position = "{336, 560}";
},
{
name = top;
position = "{384, 800}";
}
);
background = {
paths = (
{
closed = 1;
nodes = (
"400 640 LINE",
"400 800 LINE",
"320 800 LINE",
"320 640 LINE"
);
},
{
closed = 1;
nodes = (
"160 640 LINE",
"160 800 LINE",
"80 800 LINE",
"80 640 LINE"
);
}
);
};
hints = (
{
horizontal = 1;
origin = "{0, 11}";
type = Anchor;
},
{
horizontal = 1;
origin = "{0, 11}";
target = "{1, 11}";
type = Align;
options = 4;
},
{
horizontal = 1;
origin = "{1, 11}";
target = "{1, 5}";
type = TTStem;
stem = -1;
},
{
horizontal = 1;
origin = "{1, 5}";
target = "{0, 5}";
type = Align;
options = 4;
}
);
layerId = "83692D61-586C-413E-9B5A-1AF652750951";
paths = (
{
closed = 1;
nodes = (
"299 669 OFFCURVE",
"329 696 OFFCURVE",
"336 731 CURVE",
"345 773 OFFCURVE",
"321 806 OFFCURVE",
"280 806 CURVE",
"243 806 OFFCURVE",
"214 779 OFFCURVE",
"207 743 CURVE",
"198 700 OFFCURVE",
"222 669 OFFCURVE",
"262 669 CURVE"
);
},
{
closed = 1;
nodes = (
"500 669 OFFCURVE",
"529 696 OFFCURVE",
"536 732 CURVE",
"545 775 OFFCURVE",
"521 806 OFFCURVE",
"480 806 CURVE",
"443 806 OFFCURVE",
"414 779 OFFCURVE",
"407 743 CURVE",
"398 700 OFFCURVE",
"422 669 OFFCURVE",
"462 669 CURVE"
);
}
);
width = 560;
}
);
unicode = 0308;
},
{
glyphname = dotaccentcomb;
lastChange = "2019-12-19 14:57:11 +0000";
layers = (
{
anchors = (
{
name = _top;
position = "{336, 560}";
},
{
name = top;
position = "{384, 800}";
}
);
hints = (
{
horizontal = 1;
origin = "{0, 11}";
type = Anchor;
},
{
horizontal = 1;
origin = "{0, 11}";
target = "{0, 5}";
type = TTStem;
stem = -1;
}
);
layerId = "83692D61-586C-413E-9B5A-1AF652750951";
paths = (
{
closed = 1;
nodes = (
"402 661 OFFCURVE",
"439 692 OFFCURVE",
"447 731 CURVE SMOOTH",
"457 778 OFFCURVE",
"429 814 OFFCURVE",
"382 814 CURVE SMOOTH",
"341 814 OFFCURVE",
"305 783 OFFCURVE",
"297 743 CURVE SMOOTH",
"287 695 OFFCURVE",
"315 661 OFFCURVE",
"361 661 CURVE SMOOTH"
);
}
);
width = 560;
}
);
unicode = 0307;
},
{
glyphname = gravecomb;
lastChange = "2019-12-19 14:57:11 +0000";
layers = (
{
anchors = (
{
name = _top;
position = "{336, 560}";
},
{
name = top;
position = "{384, 800}";
}
);
hints = (
{
horizontal = 1;
origin = "{0, 2}";
type = Anchor;
},
{
horizontal = 1;
origin = "{0, 2}";
target = "{0, 0}";
type = TTStem;
stem = -1;
}
);
layerId = "83692D61-586C-413E-9B5A-1AF652750951";
paths = (
{
closed = 1;
nodes = (
"369 869 LINE",
"234 869 LINE",
"331 660 LINE",
"404 660 LINE"
);
}
);
width = 560;
}
);
unicode = 0300;
},
{
glyphname = acutecomb;
lastChange = "2019-12-19 14:57:11 +0000";
layers = (
{
anchors = (
{
name = _top;
position = "{336, 560}";
},
{
name = top;
position = "{384, 800}";
}
);
hints = (
{
horizontal = 1;
origin = "{0, 0}";
type = Anchor;
},
{
horizontal = 1;
origin = "{0, 0}";
target = "{0, 2}";
type = TTStem;
stem = -1;
}
);
layerId = "83692D61-586C-413E-9B5A-1AF652750951";
paths = (
{
closed = 1;
nodes = (
"383 660 LINE",
"564 869 LINE",
"425 869 LINE",
"306 660 LINE"
);
}
);
width = 560;
}
);
unicode = 0301;
},
{
glyphname = circumflexcomb;
lastChange = "2019-12-19 14:57:11 +0000";
layers = (
{
anchors = (
{
name = _top;
position = "{336, 560}";
},
{
name = top;
position = "{384, 800}";
}
);
layerId = "83692D61-586C-413E-9B5A-1AF652750951";
paths = (
{
closed = 1;
nodes = (
"265 660 LINE",
"462 869 LINE",
"323 869 LINE",
"188 660 LINE"
);
},
{
closed = 1;
nodes = (
"471 869 LINE",
"336 869 LINE",
"449 660 LINE",
"522 660 LINE"
);
}
);
width = 560;
}
);
unicode = 0302;
},
{
glyphname = tildecomb;
lastChange = "2019-12-19 14:57:11 +0000";
layers = (
{
anchors = (
{
name = _top;
position = "{336, 560}";
},
{
name = top;
position = "{384, 800}";
}
);
layerId = "83692D61-586C-413E-9B5A-1AF652750951";
paths = (
{
closed = 1;
nodes = (
"257 657 LINE",
"269 724 OFFCURVE",
"284 748 OFFCURVE",
"310 748 CURVE SMOOTH",
"345 748 OFFCURVE",
"339 658 OFFCURVE",
"431 658 CURVE SMOOTH",
"497 658 OFFCURVE",
"543 700 OFFCURVE",
"560 821 CURVE",
"489 827 LINE",
"477 758 OFFCURVE",
"458 736 OFFCURVE",
"436 736 CURVE SMOOTH",
"399 736 OFFCURVE",
"406 826 OFFCURVE",
"317 826 CURVE SMOOTH",
"252 826 OFFCURVE",
"204 784 OFFCURVE",
"187 663 CURVE"
);
}
);
width = 560;
}
);
unicode = 0303;
},
{
glyphname = acute;
lastChange = "2019-12-19 14:57:11 +0000";
layers = (
{
layerId = "83692D61-586C-413E-9B5A-1AF652750951";
paths = (
{
closed = 1;
nodes = (
"490 720 LINE",
"343 720 LINE",
"206 400 LINE",
"275 400 LINE"
);
}
);
width = 560;
}
);
unicode = 00B4;
},
{
glyphname = grave;
lastChange = "2019-12-19 14:57:11 +0000";
layers = (
{
layerId = "83692D61-586C-413E-9B5A-1AF652750951";
paths = (
{
closed = 1;
nodes = (
"424 400 LINE",
"415 720 LINE",
"272 720 LINE",
"359 400 LINE"
);
}
);
width = 560;
}
);
unicode = 0060;
},
{
glyphname = dieresiscomb.case;
lastChange = "2019-12-19 14:57:11 +0000";
layers = (
{
anchors = (
{
name = _top;
position = "{368, 720}";
},
{
name = top;
position = "{408, 920}";
}
);
background = {
paths = (
{
closed = 1;
nodes = (
"400 640 LINE",
"400 800 LINE",
"320 800 LINE",
"320 640 LINE"
);
},
{
closed = 1;
nodes = (
"160 640 LINE",
"160 800 LINE",
"80 800 LINE",
"80 640 LINE"
);
}
);
};
layerId = "83692D61-586C-413E-9B5A-1AF652750951";
paths = (
{
closed = 1;
nodes = (
"323 789 OFFCURVE",
"353 816 OFFCURVE",
"360 851 CURVE SMOOTH",
"369 893 OFFCURVE",
"345 926 OFFCURVE",
"304 926 CURVE SMOOTH",
"267 926 OFFCURVE",
"238 899 OFFCURVE",
"231 863 CURVE SMOOTH",
"222 820 OFFCURVE",
"246 789 OFFCURVE",
"286 789 CURVE SMOOTH"
);
},
{
closed = 1;
nodes = (
"524 789 OFFCURVE",
"553 816 OFFCURVE",
"560 852 CURVE SMOOTH",
"569 895 OFFCURVE",
"545 926 OFFCURVE",
"504 926 CURVE SMOOTH",
"467 926 OFFCURVE",
"438 899 OFFCURVE",
"431 863 CURVE SMOOTH",
"422 820 OFFCURVE",
"446 789 OFFCURVE",
"486 789 CURVE SMOOTH"
);
}
);
width = 560;
}
);
},
{
glyphname = gravecomb.case;
lastChange = "2019-12-19 14:57:11 +0000";
layers = (
{
anchors = (
{
name = _top;
position = "{368, 720}";
},
{
name = top;
position = "{416, 960}";
}
);
layerId = "83692D61-586C-413E-9B5A-1AF652750951";
paths = (
{
closed = 1;
nodes = (
"393 989 LINE",
"258 989 LINE",
"355 780 LINE",
"428 780 LINE"
);
}
);
width = 560;
}
);
},
{
glyphname = acutecomb.case;
lastChange = "2019-12-19 14:57:11 +0000";
layers = (
{
anchors = (
{
name = _top;
position = "{368, 720}";
},
{
name = top;
position = "{416, 960}";
}
);
layerId = "83692D61-586C-413E-9B5A-1AF652750951";
paths = (
{
closed = 1;
nodes = (
"407 780 LINE",
"588 989 LINE",
"449 989 LINE",
"330 780 LINE"
);
}
);
width = 560;
}
);
},
{
glyphname = circumflexcomb.case;
lastChange = "2019-12-19 14:57:11 +0000";
layers = (
{
anchors = (
{
name = _top;
position = "{368, 720}";
},
{
name = top;
position = "{416, 960}";
}
);
layerId = "83692D61-586C-413E-9B5A-1AF652750951";
paths = (
{
closed = 1;
nodes = (
"289 780 LINE",
"486 989 LINE",
"347 989 LINE",
"212 780 LINE"
);
},
{
closed = 1;
nodes = (
"495 989 LINE",
"360 989 LINE",
"473 780 LINE",
"546 780 LINE"
);
}
);
width = 600;
}
);
},
{
glyphname = tildecomb.case;
lastChange = "2019-12-19 14:57:11 +0000";
layers = (
{
anchors = (
{
name = _top;
position = "{368, 720}";
},
{
name = top;
position = "{416, 960}";
}
);
layerId = "83692D61-586C-413E-9B5A-1AF652750951";
paths = (
{
closed = 1;
nodes = (
"281 777 LINE",
"293 844 OFFCURVE",
"308 868 OFFCURVE",
"334 868 CURVE SMOOTH",
"369 868 OFFCURVE",
"363 778 OFFCURVE",
"455 778 CURVE SMOOTH",
"521 778 OFFCURVE",
"567 820 OFFCURVE",
"584 941 CURVE",
"513 947 LINE",
"501 878 OFFCURVE",
"482 856 OFFCURVE",
"460 856 CURVE SMOOTH",
"423 856 OFFCURVE",
"430 946 OFFCURVE",
"341 946 CURVE SMOOTH",
"276 946 OFFCURVE",
"228 904 OFFCURVE",
"211 783 CURVE"
);
}
);
width = 560;
}
);
},
{
export = 0;
glyphname = _part.asterisk;
lastChange = "2019-12-19 14:57:11 +0000";
layers = (
{
layerId = "83692D61-586C-413E-9B5A-1AF652750951";
paths = (
{
closed = 1;
nodes = (
"317 280 LINE",
"378 560 LINE",
"294 560 LINE",
"243 280 LINE"
);
}
);
width = 600;
}
);
},
{
export = 0;
glyphname = _part.brace;
lastChange = "2019-12-19 14:57:11 +0000";
layers = (
{
background = {
paths = (
{
closed = 1;
nodes = (
"233 318 OFFCURVE",
"311 357 OFFCURVE",
"307 478 CURVE SMOOTH",
"304 560 LINE SMOOTH",
"299 699 OFFCURVE",
"371 713 OFFCURVE",
"486 729 CURVE",
"478 793 LINE",
"324 779 OFFCURVE",
"215 739 OFFCURVE",
"224 556 CURVE SMOOTH",
"228 472 LINE SMOOTH",
"232 388 OFFCURVE",
"187 367 OFFCURVE",
"56 348 CURVE",
"56 308 LINE"
);
}
);
};
layerId = "83692D61-586C-413E-9B5A-1AF652750951";
paths = (
{
closed = 1;
nodes = (
"243 318 OFFCURVE",
"324 354 OFFCURVE",
"346 465 CURVE SMOOTH",
"353 499 OFFCURVE",
"355 530 OFFCURVE",
"363 568 CURVE SMOOTH",
"388 695 OFFCURVE",
"460 713 OFFCURVE",
"578 729 CURVE",
"578 793 LINE",
"422 779 OFFCURVE",
"316 742 OFFCURVE",
"284 581 CURVE SMOOTH",
"275 534 OFFCURVE",
"273 497 OFFCURVE",
"268 469 CURVE SMOOTH",
"252 391 OFFCURVE",
"202 367 OFFCURVE",
"67 348 CURVE",
"65 308 LINE"
);
}
);
width = 560;
},
{
associatedMasterId = "83692D61-586C-413E-9B5A-1AF652750951";
background = {
paths = (
{
closed = 1;
nodes = (
"480 800 LINE",
"320 800 LINE",
"320 720 LINE",
"480 720 LINE"
);
},
{
closed = 1;
nodes = (
"320 720 LINE",
"240 720 LINE",
"240 400 LINE",
"320 400 LINE"
);
},
{
closed = 1;
nodes = (
"80 400 LINE",
"80 240 LINE",
"240 240 LINE",
"240 400 LINE"
);
},
{
closed = 1;
nodes = (
"240 -80 LINE",
"320 -80 LINE",
"320 240 LINE",
"240 240 LINE"
);
},
{
closed = 1;
nodes = (
"480 -160 LINE",
"480 -80 LINE",
"320 -80 LINE",
"320 -160 LINE"
);
}
);
};
layerId = "6A74EB45-28ED-4890-8FA7-E3C97A19C416";
name = "Jun 14 18, 18:30";
paths = (
{
closed = 1;
nodes = (
"270 311 OFFCURVE",
"301 380 OFFCURVE",
"316 541 CURVE SMOOTH",
"329 680 OFFCURVE",
"379 713 OFFCURVE",
"484 727 CURVE",
"476 793 LINE",
"336 776 OFFCURVE",
"254 724 OFFCURVE",
"240 542 CURVE SMOOTH",
"230 408 OFFCURVE",
"209 368 OFFCURVE",
"80 352 CURVE",
"80 309 LINE"
);
}
);
width = 600;
},
{
associatedMasterId = "83692D61-586C-413E-9B5A-1AF652750951";
background = {
paths = (
{
closed = 1;
nodes = (
"480 800 LINE",
"320 800 LINE",
"320 720 LINE",
"480 720 LINE"
);
},
{
closed = 1;
nodes = (
"320 720 LINE",
"240 720 LINE",
"240 400 LINE",
"320 400 LINE"
);
},
{
closed = 1;
nodes = (
"80 400 LINE",
"80 240 LINE",
"240 240 LINE",
"240 400 LINE"
);
},
{
closed = 1;
nodes = (
"240 -80 LINE",
"320 -80 LINE",
"320 240 LINE",
"240 240 LINE"
);
},
{
closed = 1;
nodes = (
"480 -160 LINE",
"480 -80 LINE",
"320 -80 LINE",
"320 -160 LINE"
);
}
);
};
layerId = "B1F09D94-8200-40B6-989B-6271D2DDCC47";
name = "Jun 14 18, 18:36";
paths = (
{
closed = 1;
nodes = (
"250 321 OFFCURVE",
"320 357 OFFCURVE",
"320 475 CURVE SMOOTH",
"320 560 LINE SMOOTH",
"320 699 OFFCURVE",
"380 713 OFFCURVE",
"485 729 CURVE",
"476 793 LINE",
"336 776 OFFCURVE",
"240 739 OFFCURVE",
"240 556 CURVE SMOOTH",
"240 472 LINE SMOOTH",
"240 391 OFFCURVE",
"204 367 OFFCURVE",
"80 348 CURVE",
"80 308 LINE"
);
}
);
width = 600;
}
);
},
{
export = 0;
glyphname = _part.paren;
lastChange = "2019-12-19 14:57:11 +0000";
layers = (
{
background = {
paths = (
{
closed = 1;
nodes = (
"480 800 LINE",
"320 800 LINE",
"320 720 LINE",
"480 720 LINE"
);
},
{
closed = 1;
nodes = (
"320 720 LINE",
"240 720 LINE",
"240 560 LINE",
"320 560 LINE"
);
},
{
closed = 1;
nodes = (
"240 560 LINE",
"160 560 LINE",
"160 80 LINE",
"240 80 LINE"
);
},
{
closed = 1;
nodes = (
"320 -80 LINE",
"320 80 LINE",
"240 80 LINE",
"240 -80 LINE"
);
},
{
closed = 1;
nodes = (
"480 -160 LINE",
"480 -80 LINE",
"320 -80 LINE",
"320 -160 LINE"
);
}
);
};
layerId = "83692D61-586C-413E-9B5A-1AF652750951";
paths = (
{
closed = 1;
nodes = (
"294 535 OFFCURVE",
"372 689 OFFCURVE",
"578 725 CURVE",
"575 793 LINE",
"328 760 OFFCURVE",
"214 565 OFFCURVE",
"166 323 CURVE",
"250 317 LINE"
);
}
);
width = 560;
}
);
},
{
export = 0;
glyphname = _part.percent;
lastChange = "2019-12-19 14:57:11 +0000";
layers = (
{
layerId = "83692D61-586C-413E-9B5A-1AF652750951";
paths = (
{
closed = 1;
nodes = (
"140 -10 OFFCURVE",
"192 47 OFFCURVE",
"212 145 CURVE SMOOTH",
"233 249 OFFCURVE",
"198 311 OFFCURVE",
"121 311 CURVE SMOOTH",
"48 311 OFFCURVE",
"-5 255 OFFCURVE",
"-25 157 CURVE SMOOTH",
"-45 53 OFFCURVE",
"-10 -10 OFFCURVE",
"68 -10 CURVE SMOOTH"
);
},
{
closed = 1;
nodes = (
"40 55 OFFCURVE",
"28 77 OFFCURVE",
"42 145 CURVE SMOOTH",
"57 219 OFFCURVE",
"84 247 OFFCURVE",
"118 247 CURVE SMOOTH",
"146 247 OFFCURVE",
"158 225 OFFCURVE",
"144 157 CURVE SMOOTH",
"130 83 OFFCURVE",
"102 55 OFFCURVE",
"68 55 CURVE SMOOTH"
);
}
);
width = 560;
}
);
},
{
color = 0;
glyphname = pixel;
lastChange = "2019-12-19 14:57:11 +0000";
layers = (
{
layerId = "83692D61-586C-413E-9B5A-1AF652750951";
paths = (
{
closed = 1;
nodes = (
"-56 0 LINE",
"24 0 LINE",
"40 80 LINE",
"-40 80 LINE"
);
}
);
width = 560;
}
);
},
